  0
SECTION
  2
HEADER
  9
$ACADVER
  1
AC1009
  9
$ANGDIR
  70
0
  9
$CECOLOR
  62
256
  9
$CELTYPE
  6
BYLAYER
  9
$EXTMIN
  10
0.0
  20
0.0
  9
$EXTMAX
  10
2.8187
  20
2.2387
  9
$FILLMODE
  70
1
  9
$MIRRTEXT
  70
0
  0
ENDSEC
  0
SECTION
  2
TABLES
  0
TABLE
  2
LAYER
  70
17
  0
LAYER
  2
Edge_Top
  70
64
  62
16
  6
CONTINUOUS
  0
ENDTAB
  0
ENDSEC
  0
SECTION
  2
ENTITIES
  0
POLYLINE
  8
Edge_Top
  6
CONTINUOUS
  66
1
  70
0
  40
0.008
  41
0.008
  0
VERTEX
  8
Edge_Top
  10
1.911
  20
1.9023
  42
0
  0
VERTEX
  8
Edge_Top
  10
1.9095
  20
1.9007
  42
0
  0
VERTEX
  8
Edge_Top
  10
1.905
  20
1.8978
  42
0
  0
VERTEX
  8
Edge_Top
  10
1.9
  20
1.896
  42
0
  0
VERTEX
  8
Edge_Top
  10
1.8947
  20
1.8954
  42
0
  0
VERTEX
  8
Edge_Top
  10
1.8894
  20
1.8959
  42
0
  0
VERTEX
  8
Edge_Top
  10
1.8844
  20
1.8975
  42
0
  0
VERTEX
  8
Edge_Top
  10
1.8798
  20
1.9003
  42
0
  0
VERTEX
  8
Edge_Top
  10
1.876
  20
1.9039
  42
0
  0
VERTEX
  8
Edge_Top
  10
1.873
  20
1.9084
  42
0
  0
VERTEX
  8
Edge_Top
  10
1.8711
  20
1.9134
  42
0
  0
VERTEX
  8
Edge_Top
  10
1.8704
  20
1.9186
  42
0
  0
VERTEX
  8
Edge_Top
  10
1.8708
  20
1.9239
  42
0
  0
VERTEX
  8
Edge_Top
  10
1.8724
  20
1.929
  42
0
  0
VERTEX
  8
Edge_Top
  10
1.8751
  20
1.9336
  42
0
  0
VERTEX
  8
Edge_Top
  10
1.8787
  20
1.9375
  42
0
  0
VERTEX
  8
Edge_Top
  10
1.8831
  20
1.9405
  42
0
  0
VERTEX
  8
Edge_Top
  10
1.888
  20
1.9425
  42
0
  0
VERTEX
  8
Edge_Top
  10
1.8933
  20
1.9433
  42
0
  0
VERTEX
  8
Edge_Top
  10
1.8986
  20
1.943
  42
0
  0
VERTEX
  8
Edge_Top
  10
1.9037
  20
1.9415
  42
0
  0
VERTEX
  8
Edge_Top
  10
1.9083
  20
1.9389
  42
0
  0
VERTEX
  8
Edge_Top
  10
1.9112
  20
1.9363
  42
0
  0
VERTEX
  8
Edge_Top
  10
2.0372
  20
1.9364
  42
0
  0
VERTEX
  8
Edge_Top
  10
2.0961
  20
1.9951
  42
0
  0
VERTEX
  8
Edge_Top
  10
2.0924
  20
2.0046
  42
0
  0
VERTEX
  8
Edge_Top
  10
2.0905
  20
2.015
  42
0
  0
VERTEX
  8
Edge_Top
  10
2.0907
  20
2.0257
  42
0
  0
VERTEX
  8
Edge_Top
  10
2.093
  20
2.0361
  42
0
  0
VERTEX
  8
Edge_Top
  10
2.0973
  20
2.0458
  42
0
  0
VERTEX
  8
Edge_Top
  10
2.1034
  20
2.0546
  42
0
  0
VERTEX
  8
Edge_Top
  10
2.1111
  20
2.0619
  42
0
  0
VERTEX
  8
Edge_Top
  10
2.1201
  20
2.0676
  42
0
  0
VERTEX
  8
Edge_Top
  10
2.1301
  20
2.0714
  42
0
  0
VERTEX
  8
Edge_Top
  10
2.1406
  20
2.0732
  42
0
  0
VERTEX
  8
Edge_Top
  10
2.1512
  20
2.0729
  42
0
  0
VERTEX
  8
Edge_Top
  10
2.1616
  20
2.0705
  42
0
  0
VERTEX
  8
Edge_Top
  10
2.1713
  20
2.0662
  42
0
  0
VERTEX
  8
Edge_Top
  10
2.18
  20
2.06
  42
0
  0
VERTEX
  8
Edge_Top
  10
2.1872
  20
2.0522
  42
0
  0
VERTEX
  8
Edge_Top
  10
2.1928
  20
2.0431
  42
0
  0
VERTEX
  8
Edge_Top
  10
2.1966
  20
2.0332
  42
0
  0
VERTEX
  8
Edge_Top
  10
2.1983
  20
2.0226
  42
0
  0
VERTEX
  8
Edge_Top
  10
2.1981
  20
2.014
  42
0
  0
VERTEX
  8
Edge_Top
  10
2.196
  20
2.0036
  42
0
  0
VERTEX
  8
Edge_Top
  10
2.1919
  20
1.9938
  42
0
  0
VERTEX
  8
Edge_Top
  10
2.186
  20
1.9849
  42
0
  0
VERTEX
  8
Edge_Top
  10
2.1784
  20
1.9774
  42
0
  0
VERTEX
  8
Edge_Top
  10
2.1695
  20
1.9716
  42
0
  0
VERTEX
  8
Edge_Top
  10
2.1596
  20
1.9676
  42
0
  0
VERTEX
  8
Edge_Top
  10
2.1492
  20
1.9656
  42
0
  0
VERTEX
  8
Edge_Top
  10
2.1385
  20
1.9657
  42
0
  0
VERTEX
  8
Edge_Top
  10
2.1281
  20
1.9679
  42
0
  0
VERTEX
  8
Edge_Top
  10
2.1203
  20
1.9711
  42
0
  0
VERTEX
  8
Edge_Top
  10
2.0564
  20
1.9073
  42
0
  0
VERTEX
  8
Edge_Top
  10
2.0521
  20
1.9042
  42
0
  0
VERTEX
  8
Edge_Top
  10
2.0469
  20
1.9026
  42
0
  0
VERTEX
  8
Edge_Top
  10
2.0337
  20
1.9024
  42
0
  0
VERTEX
  8
Edge_Top
  10
1.9112
  20
1.9024
  42
0
  0
VERTEX
  8
Edge_Top
  10
1.911
  20
1.9023
  42
0
  0
SEQEND
  0
POLYLINE
  8
Edge_Top
  6
CONTINUOUS
  66
1
  70
0
  40
0.008
  41
0.008
  0
VERTEX
  8
Edge_Top
  10
1.8178
  20
2.0141
  42
0
  0
VERTEX
  8
Edge_Top
  10
1.816
  20
2.009
  42
0
  0
VERTEX
  8
Edge_Top
  10
1.8132
  20
2.0045
  42
0
  0
VERTEX
  8
Edge_Top
  10
1.8095
  20
2.0007
  42
0
  0
VERTEX
  8
Edge_Top
  10
1.805
  20
1.9978
  42
0
  0
VERTEX
  8
Edge_Top
  10
1.8
  20
1.996
  42
0
  0
VERTEX
  8
Edge_Top
  10
1.7947
  20
1.9954
  42
0
  0
VERTEX
  8
Edge_Top
  10
1.7894
  20
1.9959
  42
0
  0
VERTEX
  8
Edge_Top
  10
1.7844
  20
1.9975
  42
0
  0
VERTEX
  8
Edge_Top
  10
1.7798
  20
2.0003
  42
0
  0
VERTEX
  8
Edge_Top
  10
1.776
  20
2.0039
  42
0
  0
VERTEX
  8
Edge_Top
  10
1.773
  20
2.0084
  42
0
  0
VERTEX
  8
Edge_Top
  10
1.7711
  20
2.0134
  42
0
  0
VERTEX
  8
Edge_Top
  10
1.7704
  20
2.0186
  42
0
  0
VERTEX
  8
Edge_Top
  10
1.7708
  20
2.0239
  42
0
  0
VERTEX
  8
Edge_Top
  10
1.7724
  20
2.029
  42
0
  0
VERTEX
  8
Edge_Top
  10
1.7751
  20
2.0336
  42
0
  0
VERTEX
  8
Edge_Top
  10
1.7787
  20
2.0375
  42
0
  0
VERTEX
  8
Edge_Top
  10
1.7831
  20
2.0405
  42
0
  0
VERTEX
  8
Edge_Top
  10
1.788
  20
2.0425
  42
0
  0
VERTEX
  8
Edge_Top
  10
1.7933
  20
2.0433
  42
0
  0
VERTEX
  8
Edge_Top
  10
1.7986
  20
2.043
  42
0
  0
VERTEX
  8
Edge_Top
  10
1.8037
  20
2.0415
  42
0
  0
VERTEX
  8
Edge_Top
  10
1.8083
  20
2.0389
  42
0
  0
VERTEX
  8
Edge_Top
  10
1.8123
  20
2.0353
  42
0
  0
VERTEX
  8
Edge_Top
  10
1.8154
  20
2.031
  42
0
  0
VERTEX
  8
Edge_Top
  10
1.8174
  20
2.0261
  42
0
  0
VERTEX
  8
Edge_Top
  10
1.8184
  20
2.0194
  42
0
  0
VERTEX
  8
Edge_Top
  10
1.8178
  20
2.0141
  42
0
  0
SEQEND
  0
POLYLINE
  8
Edge_Top
  6
CONTINUOUS
  66
1
  70
0
  40
0.008
  41
0.008
  0
VERTEX
  8
Edge_Top
  10
1.8757
  20
2.1434
  42
0
  0
VERTEX
  8
Edge_Top
  10
1.9184
  20
2.1434
  42
0
  0
VERTEX
  8
Edge_Top
  10
1.9184
  20
2.1362
  42
0
  0
VERTEX
  8
Edge_Top
  10
1.9424
  20
2.1364
  42
0
  0
VERTEX
  8
Edge_Top
  10
2.2073
  20
2.1364
  42
0
  0
VERTEX
  8
Edge_Top
  10
2.2126
  20
2.1355
  42
0
  0
VERTEX
  8
Edge_Top
  10
2.2174
  20
2.133
  42
0
  0
VERTEX
  8
Edge_Top
  10
2.2269
  20
2.1238
  42
0
  0
VERTEX
  8
Edge_Top
  10
2.2584
  20
2.0924
  42
0
  0
VERTEX
  8
Edge_Top
  10
2.2615
  20
2.0881
  42
0
  0
VERTEX
  8
Edge_Top
  10
2.2631
  20
2.0829
  42
0
  0
VERTEX
  8
Edge_Top
  10
2.2633
  20
2.0697
  42
0
  0
VERTEX
  8
Edge_Top
  10
2.2633
  20
2.0362
  42
0
  0
VERTEX
  8
Edge_Top
  10
2.2943
  20
2.0364
  42
0
  0
VERTEX
  8
Edge_Top
  10
2.3605
  20
2.0364
  42
0
  0
VERTEX
  8
Edge_Top
  10
2.3604
  20
2.0534
  42
0
  0
VERTEX
  8
Edge_Top
  10
2.4284
  20
2.0534
  42
0
  0
VERTEX
  8
Edge_Top
  10
2.4284
  20
1.9854
  42
0
  0
VERTEX
  8
Edge_Top
  10
2.3604
  20
1.9854
  42
0
  0
VERTEX
  8
Edge_Top
  10
2.3604
  20
2.0025
  42
0
  0
VERTEX
  8
Edge_Top
  10
2.3357
  20
2.0024
  42
0
  0
VERTEX
  8
Edge_Top
  10
2.2632
  20
2.0024
  42
0
  0
VERTEX
  8
Edge_Top
  10
2.2633
  20
1.9607
  42
0
  0
VERTEX
  8
Edge_Top
  10
2.2633
  20
1.9063
  42
0
  0
VERTEX
  8
Edge_Top
  10
2.2625
  20
1.9011
  42
0
  0
VERTEX
  8
Edge_Top
  10
2.26
  20
1.8962
  42
0
  0
VERTEX
  8
Edge_Top
  10
2.2508
  20
1.8868
  42
0
  0
VERTEX
  8
Edge_Top
  10
2.1927
  20
1.8287
  42
0
  0
VERTEX
  8
Edge_Top
  10
2.1949
  20
1.8232
  42
0
  0
VERTEX
  8
Edge_Top
  10
2.1977
  20
1.8129
  42
0
  0
VERTEX
  8
Edge_Top
  10
2.1984
  20
1.8044
  42
0
  0
VERTEX
  8
Edge_Top
  10
2.1973
  20
1.7938
  42
0
  0
VERTEX
  8
Edge_Top
  10
2.1942
  20
1.7836
  42
0
  0
VERTEX
  8
Edge_Top
  10
2.1891
  20
1.7742
  42
0
  0
VERTEX
  8
Edge_Top
  10
2.1824
  20
1.766
  42
0
  0
VERTEX
  8
Edge_Top
  10
2.1741
  20
1.7593
  42
0
  0
VERTEX
  8
Edge_Top
  10
2.1647
  20
1.7543
  42
0
  0
VERTEX
  8
Edge_Top
  10
2.1545
  20
1.7513
  42
0
  0
VERTEX
  8
Edge_Top
  10
2.1438
  20
1.7504
  42
0
  0
VERTEX
  8
Edge_Top
  10
2.1333
  20
1.7515
  42
0
  0
VERTEX
  8
Edge_Top
  10
2.1231
  20
1.7547
  42
0
  0
VERTEX
  8
Edge_Top
  10
2.1138
  20
1.7599
  42
0
  0
VERTEX
  8
Edge_Top
  10
2.1056
  20
1.7667
  42
0
  0
VERTEX
  8
Edge_Top
  10
2.099
  20
1.775
  42
0
  0
VERTEX
  8
Edge_Top
  10
2.0941
  20
1.7845
  42
0
  0
VERTEX
  8
Edge_Top
  10
2.0912
  20
1.7948
  42
0
  0
VERTEX
  8
Edge_Top
  10
2.0904
  20
1.8054
  42
0
  0
VERTEX
  8
Edge_Top
  10
2.0916
  20
1.816
  42
0
  0
VERTEX
  8
Edge_Top
  10
2.0949
  20
1.8261
  42
0
  0
VERTEX
  8
Edge_Top
  10
2.1001
  20
1.8354
  42
0
  0
VERTEX
  8
Edge_Top
  10
2.1071
  20
1.8434
  42
0
  0
VERTEX
  8
Edge_Top
  10
2.1155
  20
1.85
  42
0
  0
VERTEX
  8
Edge_Top
  10
2.125
  20
1.8548
  42
0
  0
VERTEX
  8
Edge_Top
  10
2.1353
  20
1.8576
  42
0
  0
VERTEX
  8
Edge_Top
  10
2.1459
  20
1.8583
  42
0
  0
VERTEX
  8
Edge_Top
  10
2.1565
  20
1.857
  42
0
  0
VERTEX
  8
Edge_Top
  10
2.1665
  20
1.8536
  42
0
  0
VERTEX
  8
Edge_Top
  10
2.1685
  20
1.8526
  42
0
  0
VERTEX
  8
Edge_Top
  10
2.2293
  20
1.9134
  42
0
  0
VERTEX
  8
Edge_Top
  10
2.2293
  20
2.0732
  42
0
  0
VERTEX
  8
Edge_Top
  10
2.2003
  20
2.1024
  42
0
  0
VERTEX
  8
Edge_Top
  10
1.9185
  20
2.1024
  42
0
  0
VERTEX
  8
Edge_Top
  10
1.9184
  20
2.0954
  42
0
  0
VERTEX
  8
Edge_Top
  10
1.8704
  20
2.0954
  42
0
  0
VERTEX
  8
Edge_Top
  10
1.8704
  20
2.1025
  42
0
  0
VERTEX
  8
Edge_Top
  10
1.8464
  20
2.1024
  42
0
  0
VERTEX
  8
Edge_Top
  10
1.6679
  20
2.1024
  42
0
  0
VERTEX
  8
Edge_Top
  10
1.6659
  20
2.0999
  42
0
  0
VERTEX
  8
Edge_Top
  10
1.6619
  20
2.0963
  42
0
  0
VERTEX
  8
Edge_Top
  10
1.6574
  20
2.0935
  42
0
  0
VERTEX
  8
Edge_Top
  10
1.6525
  20
2.0915
  42
0
  0
VERTEX
  8
Edge_Top
  10
1.6472
  20
2.0905
  42
0
  0
VERTEX
  8
Edge_Top
  10
1.6419
  20
2.0905
  42
0
  0
VERTEX
  8
Edge_Top
  10
1.6367
  20
2.0914
  42
0
  0
VERTEX
  8
Edge_Top
  10
1.6317
  20
2.0933
  42
0
  0
VERTEX
  8
Edge_Top
  10
1.6271
  20
2.096
  42
0
  0
VERTEX
  8
Edge_Top
  10
1.6232
  20
2.0996
  42
0
  0
VERTEX
  8
Edge_Top
  10
1.6199
  20
2.1038
  42
0
  0
VERTEX
  8
Edge_Top
  10
1.6175
  20
2.1085
  42
0
  0
VERTEX
  8
Edge_Top
  10
1.6159
  20
2.1136
  42
0
  0
VERTEX
  8
Edge_Top
  10
1.6154
  20
2.1189
  42
0
  0
VERTEX
  8
Edge_Top
  10
1.6158
  20
2.1242
  42
0
  0
VERTEX
  8
Edge_Top
  10
1.6171
  20
2.1294
  42
0
  0
VERTEX
  8
Edge_Top
  10
1.6194
  20
2.1342
  42
0
  0
VERTEX
  8
Edge_Top
  10
1.6226
  20
2.1385
  42
0
  0
VERTEX
  8
Edge_Top
  10
1.6264
  20
2.1422
  42
0
  0
VERTEX
  8
Edge_Top
  10
1.6309
  20
2.145
  42
0
  0
VERTEX
  8
Edge_Top
  10
1.6358
  20
2.1471
  42
0
  0
VERTEX
  8
Edge_Top
  10
1.641
  20
2.1482
  42
0
  0
VERTEX
  8
Edge_Top
  10
1.6464
  20
2.1483
  42
0
  0
VERTEX
  8
Edge_Top
  10
1.6516
  20
2.1474
  42
0
  0
VERTEX
  8
Edge_Top
  10
1.6566
  20
2.1456
  42
0
  0
VERTEX
  8
Edge_Top
  10
1.6612
  20
2.1429
  42
0
  0
VERTEX
  8
Edge_Top
  10
1.6653
  20
2.1395
  42
0
  0
VERTEX
  8
Edge_Top
  10
1.6676
  20
2.1365
  42
0
  0
VERTEX
  8
Edge_Top
  10
1.7297
  20
2.1364
  42
0
  0
VERTEX
  8
Edge_Top
  10
1.8705
  20
2.1364
  42
0
  0
VERTEX
  8
Edge_Top
  10
1.8704
  20
2.1434
  42
0
  0
VERTEX
  8
Edge_Top
  10
1.8757
  20
2.1434
  42
0
  0
SEQEND
  0
POLYLINE
  8
Edge_Top
  6
CONTINUOUS
  66
1
  70
0
  40
0.008
  41
0.008
  0
VERTEX
  8
Edge_Top
  10
1.5178
  20
0.8141
  42
0
  0
VERTEX
  8
Edge_Top
  10
1.516
  20
0.809
  42
0
  0
VERTEX
  8
Edge_Top
  10
1.5132
  20
0.8045
  42
0
  0
VERTEX
  8
Edge_Top
  10
1.5095
  20
0.8007
  42
0
  0
VERTEX
  8
Edge_Top
  10
1.505
  20
0.7978
  42
0
  0
VERTEX
  8
Edge_Top
  10
1.5
  20
0.796
  42
0
  0
VERTEX
  8
Edge_Top
  10
1.4947
  20
0.7954
  42
0
  0
VERTEX
  8
Edge_Top
  10
1.4894
  20
0.7959
  42
0
  0
VERTEX
  8
Edge_Top
  10
1.4844
  20
0.7975
  42
0
  0
VERTEX
  8
Edge_Top
  10
1.4798
  20
0.8003
  42
0
  0
VERTEX
  8
Edge_Top
  10
1.476
  20
0.8039
  42
0
  0
VERTEX
  8
Edge_Top
  10
1.473
  20
0.8084
  42
0
  0
VERTEX
  8
Edge_Top
  10
1.4711
  20
0.8134
  42
0
  0
VERTEX
  8
Edge_Top
  10
1.4704
  20
0.8186
  42
0
  0
VERTEX
  8
Edge_Top
  10
1.4708
  20
0.8239
  42
0
  0
VERTEX
  8
Edge_Top
  10
1.4724
  20
0.829
  42
0
  0
VERTEX
  8
Edge_Top
  10
1.4751
  20
0.8336
  42
0
  0
VERTEX
  8
Edge_Top
  10
1.4787
  20
0.8375
  42
0
  0
VERTEX
  8
Edge_Top
  10
1.4831
  20
0.8405
  42
0
  0
VERTEX
  8
Edge_Top
  10
1.488
  20
0.8425
  42
0
  0
VERTEX
  8
Edge_Top
  10
1.4933
  20
0.8433
  42
0
  0
VERTEX
  8
Edge_Top
  10
1.4986
  20
0.843
  42
0
  0
VERTEX
  8
Edge_Top
  10
1.5037
  20
0.8415
  42
0
  0
VERTEX
  8
Edge_Top
  10
1.5083
  20
0.8389
  42
0
  0
VERTEX
  8
Edge_Top
  10
1.5123
  20
0.8353
  42
0
  0
VERTEX
  8
Edge_Top
  10
1.5154
  20
0.831
  42
0
  0
VERTEX
  8
Edge_Top
  10
1.5174
  20
0.8261
  42
0
  0
VERTEX
  8
Edge_Top
  10
1.5184
  20
0.8194
  42
0
  0
VERTEX
  8
Edge_Top
  10
1.5178
  20
0.8141
  42
0
  0
SEQEND
  0
POLYLINE
  8
Edge_Top
  6
CONTINUOUS
  66
1
  70
0
  40
0.008
  41
0.008
  0
VERTEX
  8
Edge_Top
  10
1.4178
  20
0.9141
  42
0
  0
VERTEX
  8
Edge_Top
  10
1.416
  20
0.909
  42
0
  0
VERTEX
  8
Edge_Top
  10
1.4132
  20
0.9045
  42
0
  0
VERTEX
  8
Edge_Top
  10
1.4095
  20
0.9007
  42
0
  0
VERTEX
  8
Edge_Top
  10
1.405
  20
0.8978
  42
0
  0
VERTEX
  8
Edge_Top
  10
1.4
  20
0.896
  42
0
  0
VERTEX
  8
Edge_Top
  10
1.3947
  20
0.8954
  42
0
  0
VERTEX
  8
Edge_Top
  10
1.3894
  20
0.8959
  42
0
  0
VERTEX
  8
Edge_Top
  10
1.3844
  20
0.8975
  42
0
  0
VERTEX
  8
Edge_Top
  10
1.3798
  20
0.9003
  42
0
  0
VERTEX
  8
Edge_Top
  10
1.376
  20
0.9039
  42
0
  0
VERTEX
  8
Edge_Top
  10
1.373
  20
0.9084
  42
0
  0
VERTEX
  8
Edge_Top
  10
1.3711
  20
0.9134
  42
0
  0
VERTEX
  8
Edge_Top
  10
1.3704
  20
0.9186
  42
0
  0
VERTEX
  8
Edge_Top
  10
1.3708
  20
0.9239
  42
0
  0
VERTEX
  8
Edge_Top
  10
1.3724
  20
0.929
  42
0
  0
VERTEX
  8
Edge_Top
  10
1.3751
  20
0.9336
  42
0
  0
VERTEX
  8
Edge_Top
  10
1.3787
  20
0.9375
  42
0
  0
VERTEX
  8
Edge_Top
  10
1.3831
  20
0.9405
  42
0
  0
VERTEX
  8
Edge_Top
  10
1.388
  20
0.9425
  42
0
  0
VERTEX
  8
Edge_Top
  10
1.3933
  20
0.9433
  42
0
  0
VERTEX
  8
Edge_Top
  10
1.3986
  20
0.943
  42
0
  0
VERTEX
  8
Edge_Top
  10
1.4037
  20
0.9415
  42
0
  0
VERTEX
  8
Edge_Top
  10
1.4083
  20
0.9389
  42
0
  0
VERTEX
  8
Edge_Top
  10
1.4123
  20
0.9353
  42
0
  0
VERTEX
  8
Edge_Top
  10
1.4154
  20
0.931
  42
0
  0
VERTEX
  8
Edge_Top
  10
1.4174
  20
0.9261
  42
0
  0
VERTEX
  8
Edge_Top
  10
1.4184
  20
0.9194
  42
0
  0
VERTEX
  8
Edge_Top
  10
1.4178
  20
0.9141
  42
0
  0
SEQEND
  0
POLYLINE
  8
Edge_Top
  6
CONTINUOUS
  66
1
  70
0
  40
0.008
  41
0.008
  0
VERTEX
  8
Edge_Top
  10
1.4757
  20
1.0434
  42
0
  0
VERTEX
  8
Edge_Top
  10
1.5184
  20
1.0434
  42
0
  0
VERTEX
  8
Edge_Top
  10
1.5184
  20
0.9954
  42
0
  0
VERTEX
  8
Edge_Top
  10
1.4704
  20
0.9954
  42
0
  0
VERTEX
  8
Edge_Top
  10
1.4704
  20
1.0434
  42
0
  0
VERTEX
  8
Edge_Top
  10
1.4757
  20
1.0434
  42
0
  0
SEQEND
  0
POLYLINE
  8
Edge_Top
  6
CONTINUOUS
  66
1
  70
0
  40
0.008
  41
0.008
  0
VERTEX
  8
Edge_Top
  10
1.5178
  20
1.5641
  42
0
  0
VERTEX
  8
Edge_Top
  10
1.516
  20
1.559
  42
0
  0
VERTEX
  8
Edge_Top
  10
1.5132
  20
1.5545
  42
0
  0
VERTEX
  8
Edge_Top
  10
1.5095
  20
1.5507
  42
0
  0
VERTEX
  8
Edge_Top
  10
1.505
  20
1.5478
  42
0
  0
VERTEX
  8
Edge_Top
  10
1.5
  20
1.546
  42
0
  0
VERTEX
  8
Edge_Top
  10
1.4947
  20
1.5454
  42
0
  0
VERTEX
  8
Edge_Top
  10
1.4894
  20
1.5459
  42
0
  0
VERTEX
  8
Edge_Top
  10
1.4844
  20
1.5475
  42
0
  0
VERTEX
  8
Edge_Top
  10
1.4798
  20
1.5503
  42
0
  0
VERTEX
  8
Edge_Top
  10
1.476
  20
1.5539
  42
0
  0
VERTEX
  8
Edge_Top
  10
1.473
  20
1.5584
  42
0
  0
VERTEX
  8
Edge_Top
  10
1.4711
  20
1.5634
  42
0
  0
VERTEX
  8
Edge_Top
  10
1.4704
  20
1.5686
  42
0
  0
VERTEX
  8
Edge_Top
  10
1.4708
  20
1.5739
  42
0
  0
VERTEX
  8
Edge_Top
  10
1.4724
  20
1.579
  42
0
  0
VERTEX
  8
Edge_Top
  10
1.4751
  20
1.5836
  42
0
  0
VERTEX
  8
Edge_Top
  10
1.4787
  20
1.5875
  42
0
  0
VERTEX
  8
Edge_Top
  10
1.4831
  20
1.5905
  42
0
  0
VERTEX
  8
Edge_Top
  10
1.488
  20
1.5925
  42
0
  0
VERTEX
  8
Edge_Top
  10
1.4933
  20
1.5933
  42
0
  0
VERTEX
  8
Edge_Top
  10
1.4986
  20
1.593
  42
0
  0
VERTEX
  8
Edge_Top
  10
1.5037
  20
1.5915
  42
0
  0
VERTEX
  8
Edge_Top
  10
1.5083
  20
1.5889
  42
0
  0
VERTEX
  8
Edge_Top
  10
1.5123
  20
1.5853
  42
0
  0
VERTEX
  8
Edge_Top
  10
1.5154
  20
1.581
  42
0
  0
VERTEX
  8
Edge_Top
  10
1.5174
  20
1.5761
  42
0
  0
VERTEX
  8
Edge_Top
  10
1.5184
  20
1.5694
  42
0
  0
VERTEX
  8
Edge_Top
  10
1.5178
  20
1.5641
  42
0
  0
SEQEND
  0
POLYLINE
  8
Edge_Top
  6
CONTINUOUS
  66
1
  70
0
  40
0.008
  41
0.008
  0
VERTEX
  8
Edge_Top
  10
1.6178
  20
1.4641
  42
0
  0
VERTEX
  8
Edge_Top
  10
1.616
  20
1.459
  42
0
  0
VERTEX
  8
Edge_Top
  10
1.6132
  20
1.4545
  42
0
  0
VERTEX
  8
Edge_Top
  10
1.6095
  20
1.4507
  42
0
  0
VERTEX
  8
Edge_Top
  10
1.605
  20
1.4478
  42
0
  0
VERTEX
  8
Edge_Top
  10
1.6
  20
1.446
  42
0
  0
VERTEX
  8
Edge_Top
  10
1.5947
  20
1.4454
  42
0
  0
VERTEX
  8
Edge_Top
  10
1.5894
  20
1.4459
  42
0
  0
VERTEX
  8
Edge_Top
  10
1.5844
  20
1.4475
  42
0
  0
VERTEX
  8
Edge_Top
  10
1.5798
  20
1.4503
  42
0
  0
VERTEX
  8
Edge_Top
  10
1.5775
  20
1.4525
  42
0
  0
VERTEX
  8
Edge_Top
  10
1.4944
  20
1.4524
  42
0
  0
VERTEX
  8
Edge_Top
  10
1.4891
  20
1.4532
  42
0
  0
VERTEX
  8
Edge_Top
  10
1.4843
  20
1.4557
  42
0
  0
VERTEX
  8
Edge_Top
  10
1.4748
  20
1.4649
  42
0
  0
VERTEX
  8
Edge_Top
  10
1.3531
  20
1.5866
  42
0
  0
VERTEX
  8
Edge_Top
  10
1.3497
  20
1.5858
  42
0
  0
VERTEX
  8
Edge_Top
  10
1.3444
  20
1.5854
  42
0
  0
VERTEX
  8
Edge_Top
  10
1.3391
  20
1.5858
  42
0
  0
VERTEX
  8
Edge_Top
  10
1.3339
  20
1.587
  42
0
  0
VERTEX
  8
Edge_Top
  10
1.329
  20
1.589
  42
0
  0
VERTEX
  8
Edge_Top
  10
1.3245
  20
1.5918
  42
0
  0
VERTEX
  8
Edge_Top
  10
1.3204
  20
1.5952
  42
0
  0
VERTEX
  8
Edge_Top
  10
1.3169
  20
1.5993
  42
0
  0
VERTEX
  8
Edge_Top
  10
1.3141
  20
1.6038
  42
0
  0
VERTEX
  8
Edge_Top
  10
1.3121
  20
1.6087
  42
0
  0
VERTEX
  8
Edge_Top
  10
1.3108
  20
1.6139
  42
0
  0
VERTEX
  8
Edge_Top
  10
1.3104
  20
1.6192
  42
0
  0
VERTEX
  8
Edge_Top
  10
1.3108
  20
1.6245
  42
0
  0
VERTEX
  8
Edge_Top
  10
1.312
  20
1.6297
  42
0
  0
VERTEX
  8
Edge_Top
  10
1.314
  20
1.6346
  42
0
  0
VERTEX
  8
Edge_Top
  10
1.3167
  20
1.6392
  42
0
  0
VERTEX
  8
Edge_Top
  10
1.3202
  20
1.6433
  42
0
  0
VERTEX
  8
Edge_Top
  10
1.3242
  20
1.6468
  42
0
  0
VERTEX
  8
Edge_Top
  10
1.3287
  20
1.6496
  42
0
  0
VERTEX
  8
Edge_Top
  10
1.3337
  20
1.6516
  42
0
  0
VERTEX
  8
Edge_Top
  10
1.3388
  20
1.6529
  42
0
  0
VERTEX
  8
Edge_Top
  10
1.3441
  20
1.6534
  42
0
  0
VERTEX
  8
Edge_Top
  10
1.3494
  20
1.653
  42
0
  0
VERTEX
  8
Edge_Top
  10
1.3546
  20
1.6518
  42
0
  0
VERTEX
  8
Edge_Top
  10
1.3596
  20
1.6498
  42
0
  0
VERTEX
  8
Edge_Top
  10
1.3641
  20
1.647
  42
0
  0
VERTEX
  8
Edge_Top
  10
1.3682
  20
1.6436
  42
0
  0
VERTEX
  8
Edge_Top
  10
1.3717
  20
1.6396
  42
0
  0
VERTEX
  8
Edge_Top
  10
1.3745
  20
1.635
  42
0
  0
VERTEX
  8
Edge_Top
  10
1.3766
  20
1.6301
  42
0
  0
VERTEX
  8
Edge_Top
  10
1.3779
  20
1.625
  42
0
  0
VERTEX
  8
Edge_Top
  10
1.3784
  20
1.6194
  42
0
  0
VERTEX
  8
Edge_Top
  10
1.3779
  20
1.614
  42
0
  0
VERTEX
  8
Edge_Top
  10
1.3771
  20
1.6106
  42
0
  0
VERTEX
  8
Edge_Top
  10
1.5015
  20
1.4863
  42
0
  0
VERTEX
  8
Edge_Top
  10
1.5775
  20
1.4864
  42
0
  0
VERTEX
  8
Edge_Top
  10
1.5831
  20
1.4905
  42
0
  0
VERTEX
  8
Edge_Top
  10
1.588
  20
1.4925
  42
0
  0
VERTEX
  8
Edge_Top
  10
1.5933
  20
1.4933
  42
0
  0
VERTEX
  8
Edge_Top
  10
1.5986
  20
1.493
  42
0
  0
VERTEX
  8
Edge_Top
  10
1.6037
  20
1.4915
  42
0
  0
VERTEX
  8
Edge_Top
  10
1.6083
  20
1.4889
  42
0
  0
VERTEX
  8
Edge_Top
  10
1.6123
  20
1.4853
  42
0
  0
VERTEX
  8
Edge_Top
  10
1.6154
  20
1.481
  42
0
  0
VERTEX
  8
Edge_Top
  10
1.6174
  20
1.4761
  42
0
  0
VERTEX
  8
Edge_Top
  10
1.6184
  20
1.4694
  42
0
  0
VERTEX
  8
Edge_Top
  10
1.6178
  20
1.4641
  42
0
  0
SEQEND
  0
POLYLINE
  8
Edge_Top
  6
CONTINUOUS
  66
1
  70
0
  40
0.008
  41
0.008
  0
VERTEX
  8
Edge_Top
  10
1.4757
  20
1.3934
  42
0
  0
VERTEX
  8
Edge_Top
  10
1.5184
  20
1.3934
  42
0
  0
VERTEX
  8
Edge_Top
  10
1.5184
  20
1.3454
  42
0
  0
VERTEX
  8
Edge_Top
  10
1.4704
  20
1.3454
  42
0
  0
VERTEX
  8
Edge_Top
  10
1.4704
  20
1.3934
  42
0
  0
VERTEX
  8
Edge_Top
  10
1.4757
  20
1.3934
  42
0
  0
SEQEND
  0
POLYLINE
  8
Edge_Top
  6
CONTINUOUS
  66
1
  70
0
  40
0.008
  41
0.008
  0
VERTEX
  8
Edge_Top
  10
1.861
  20
0.4523
  42
0
  0
VERTEX
  8
Edge_Top
  10
1.8595
  20
0.4507
  42
0
  0
VERTEX
  8
Edge_Top
  10
1.855
  20
0.4478
  42
0
  0
VERTEX
  8
Edge_Top
  10
1.85
  20
0.446
  42
0
  0
VERTEX
  8
Edge_Top
  10
1.8447
  20
0.4454
  42
0
  0
VERTEX
  8
Edge_Top
  10
1.8394
  20
0.4459
  42
0
  0
VERTEX
  8
Edge_Top
  10
1.8344
  20
0.4475
  42
0
  0
VERTEX
  8
Edge_Top
  10
1.8298
  20
0.4503
  42
0
  0
VERTEX
  8
Edge_Top
  10
1.826
  20
0.4539
  42
0
  0
VERTEX
  8
Edge_Top
  10
1.823
  20
0.4584
  42
0
  0
VERTEX
  8
Edge_Top
  10
1.8211
  20
0.4634
  42
0
  0
VERTEX
  8
Edge_Top
  10
1.8204
  20
0.4686
  42
0
  0
VERTEX
  8
Edge_Top
  10
1.8208
  20
0.4739
  42
0
  0
VERTEX
  8
Edge_Top
  10
1.8224
  20
0.479
  42
0
  0
VERTEX
  8
Edge_Top
  10
1.8251
  20
0.4836
  42
0
  0
VERTEX
  8
Edge_Top
  10
1.8287
  20
0.4875
  42
0
  0
VERTEX
  8
Edge_Top
  10
1.8331
  20
0.4905
  42
0
  0
VERTEX
  8
Edge_Top
  10
1.838
  20
0.4925
  42
0
  0
VERTEX
  8
Edge_Top
  10
1.8433
  20
0.4933
  42
0
  0
VERTEX
  8
Edge_Top
  10
1.8486
  20
0.493
  42
0
  0
VERTEX
  8
Edge_Top
  10
1.8537
  20
0.4915
  42
0
  0
VERTEX
  8
Edge_Top
  10
1.8583
  20
0.4889
  42
0
  0
VERTEX
  8
Edge_Top
  10
1.8612
  20
0.4863
  42
0
  0
VERTEX
  8
Edge_Top
  10
2.0444
  20
0.4864
  42
0
  0
VERTEX
  8
Edge_Top
  10
2.0496
  20
0.4855
  42
0
  0
VERTEX
  8
Edge_Top
  10
2.0545
  20
0.483
  42
0
  0
VERTEX
  8
Edge_Top
  10
2.0639
  20
0.4738
  42
0
  0
VERTEX
  8
Edge_Top
  10
2.1201
  20
0.4176
  42
0
  0
VERTEX
  8
Edge_Top
  10
2.1301
  20
0.4214
  42
0
  0
VERTEX
  8
Edge_Top
  10
2.1406
  20
0.4232
  42
0
  0
VERTEX
  8
Edge_Top
  10
2.1512
  20
0.4229
  42
0
  0
VERTEX
  8
Edge_Top
  10
2.1616
  20
0.4205
  42
0
  0
VERTEX
  8
Edge_Top
  10
2.1713
  20
0.4162
  42
0
  0
VERTEX
  8
Edge_Top
  10
2.18
  20
0.41
  42
0
  0
VERTEX
  8
Edge_Top
  10
2.1872
  20
0.4022
  42
0
  0
VERTEX
  8
Edge_Top
  10
2.1928
  20
0.3931
  42
0
  0
VERTEX
  8
Edge_Top
  10
2.1966
  20
0.3832
  42
0
  0
VERTEX
  8
Edge_Top
  10
2.1983
  20
0.3726
  42
0
  0
VERTEX
  8
Edge_Top
  10
2.1981
  20
0.364
  42
0
  0
VERTEX
  8
Edge_Top
  10
2.196
  20
0.3536
  42
0
  0
VERTEX
  8
Edge_Top
  10
2.1919
  20
0.3438
  42
0
  0
VERTEX
  8
Edge_Top
  10
2.186
  20
0.3349
  42
0
  0
VERTEX
  8
Edge_Top
  10
2.1784
  20
0.3274
  42
0
  0
VERTEX
  8
Edge_Top
  10
2.1695
  20
0.3216
  42
0
  0
VERTEX
  8
Edge_Top
  10
2.1596
  20
0.3176
  42
0
  0
VERTEX
  8
Edge_Top
  10
2.1492
  20
0.3156
  42
0
  0
VERTEX
  8
Edge_Top
  10
2.1385
  20
0.3157
  42
0
  0
VERTEX
  8
Edge_Top
  10
2.1281
  20
0.3179
  42
0
  0
VERTEX
  8
Edge_Top
  10
2.1183
  20
0.3221
  42
0
  0
VERTEX
  8
Edge_Top
  10
2.1095
  20
0.3281
  42
0
  0
VERTEX
  8
Edge_Top
  10
2.1021
  20
0.3357
  42
0
  0
VERTEX
  8
Edge_Top
  10
2.0963
  20
0.3447
  42
0
  0
VERTEX
  8
Edge_Top
  10
2.0924
  20
0.3546
  42
0
  0
VERTEX
  8
Edge_Top
  10
2.0905
  20
0.365
  42
0
  0
VERTEX
  8
Edge_Top
  10
2.0907
  20
0.3757
  42
0
  0
VERTEX
  8
Edge_Top
  10
2.093
  20
0.3861
  42
0
  0
VERTEX
  8
Edge_Top
  10
2.0962
  20
0.3936
  42
0
  0
VERTEX
  8
Edge_Top
  10
2.0372
  20
0.4524
  42
0
  0
VERTEX
  8
Edge_Top
  10
1.895
  20
0.4524
  42
0
  0
VERTEX
  8
Edge_Top
  10
1.8612
  20
0.4524
  42
0
  0
VERTEX
  8
Edge_Top
  10
1.861
  20
0.4523
  42
0
  0
SEQEND
  0
POLYLINE
  8
Edge_Top
  6
CONTINUOUS
  66
1
  70
0
  40
0.008
  41
0.008
  0
VERTEX
  8
Edge_Top
  10
1.9678
  20
0.3641
  42
0
  0
VERTEX
  8
Edge_Top
  10
1.966
  20
0.359
  42
0
  0
VERTEX
  8
Edge_Top
  10
1.9632
  20
0.3545
  42
0
  0
VERTEX
  8
Edge_Top
  10
1.9595
  20
0.3507
  42
0
  0
VERTEX
  8
Edge_Top
  10
1.955
  20
0.3478
  42
0
  0
VERTEX
  8
Edge_Top
  10
1.95
  20
0.346
  42
0
  0
VERTEX
  8
Edge_Top
  10
1.9447
  20
0.3454
  42
0
  0
VERTEX
  8
Edge_Top
  10
1.9394
  20
0.3459
  42
0
  0
VERTEX
  8
Edge_Top
  10
1.9344
  20
0.3475
  42
0
  0
VERTEX
  8
Edge_Top
  10
1.9298
  20
0.3503
  42
0
  0
VERTEX
  8
Edge_Top
  10
1.9275
  20
0.3525
  42
0
  0
VERTEX
  8
Edge_Top
  10
1.8444
  20
0.3524
  42
0
  0
VERTEX
  8
Edge_Top
  10
1.8391
  20
0.3532
  42
0
  0
VERTEX
  8
Edge_Top
  10
1.8343
  20
0.3557
  42
0
  0
VERTEX
  8
Edge_Top
  10
1.8248
  20
0.3649
  42
0
  0
VERTEX
  8
Edge_Top
  10
1.6488
  20
0.5408
  42
0
  0
VERTEX
  8
Edge_Top
  10
1.6419
  20
0.5405
  42
0
  0
VERTEX
  8
Edge_Top
  10
1.6367
  20
0.5414
  42
0
  0
VERTEX
  8
Edge_Top
  10
1.6317
  20
0.5433
  42
0
  0
VERTEX
  8
Edge_Top
  10
1.6271
  20
0.546
  42
0
  0
VERTEX
  8
Edge_Top
  10
1.6232
  20
0.5496
  42
0
  0
VERTEX
  8
Edge_Top
  10
1.6199
  20
0.5538
  42
0
  0
VERTEX
  8
Edge_Top
  10
1.6175
  20
0.5585
  42
0
  0
VERTEX
  8
Edge_Top
  10
1.6159
  20
0.5636
  42
0
  0
VERTEX
  8
Edge_Top
  10
1.6154
  20
0.5689
  42
0
  0
VERTEX
  8
Edge_Top
  10
1.6158
  20
0.5742
  42
0
  0
VERTEX
  8
Edge_Top
  10
1.6171
  20
0.5794
  42
0
  0
VERTEX
  8
Edge_Top
  10
1.6194
  20
0.5842
  42
0
  0
VERTEX
  8
Edge_Top
  10
1.6226
  20
0.5885
  42
0
  0
VERTEX
  8
Edge_Top
  10
1.6264
  20
0.5922
  42
0
  0
VERTEX
  8
Edge_Top
  10
1.6309
  20
0.595
  42
0
  0
VERTEX
  8
Edge_Top
  10
1.6358
  20
0.5971
  42
0
  0
VERTEX
  8
Edge_Top
  10
1.641
  20
0.5982
  42
0
  0
VERTEX
  8
Edge_Top
  10
1.6464
  20
0.5983
  42
0
  0
VERTEX
  8
Edge_Top
  10
1.6516
  20
0.5974
  42
0
  0
VERTEX
  8
Edge_Top
  10
1.6566
  20
0.5956
  42
0
  0
VERTEX
  8
Edge_Top
  10
1.6612
  20
0.5929
  42
0
  0
VERTEX
  8
Edge_Top
  10
1.6653
  20
0.5895
  42
0
  0
VERTEX
  8
Edge_Top
  10
1.6686
  20
0.5853
  42
0
  0
VERTEX
  8
Edge_Top
  10
1.6711
  20
0.5806
  42
0
  0
VERTEX
  8
Edge_Top
  10
1.6727
  20
0.5755
  42
0
  0
VERTEX
  8
Edge_Top
  10
1.6734
  20
0.5694
  42
0
  0
VERTEX
  8
Edge_Top
  10
1.6729
  20
0.5649
  42
0
  0
VERTEX
  8
Edge_Top
  10
1.8514
  20
0.3863
  42
0
  0
VERTEX
  8
Edge_Top
  10
1.9275
  20
0.3864
  42
0
  0
VERTEX
  8
Edge_Top
  10
1.9331
  20
0.3905
  42
0
  0
VERTEX
  8
Edge_Top
  10
1.938
  20
0.3925
  42
0
  0
VERTEX
  8
Edge_Top
  10
1.9433
  20
0.3933
  42
0
  0
VERTEX
  8
Edge_Top
  10
1.9486
  20
0.393
  42
0
  0
VERTEX
  8
Edge_Top
  10
1.9537
  20
0.3915
  42
0
  0
VERTEX
  8
Edge_Top
  10
1.9583
  20
0.3889
  42
0
  0
VERTEX
  8
Edge_Top
  10
1.9623
  20
0.3853
  42
0
  0
VERTEX
  8
Edge_Top
  10
1.9654
  20
0.381
  42
0
  0
VERTEX
  8
Edge_Top
  10
1.9674
  20
0.3761
  42
0
  0
VERTEX
  8
Edge_Top
  10
1.9684
  20
0.3694
  42
0
  0
VERTEX
  8
Edge_Top
  10
1.9678
  20
0.3641
  42
0
  0
SEQEND
  0
POLYLINE
  8
Edge_Top
  6
CONTINUOUS
  66
1
  70
0
  40
0.008
  41
0.008
  0
VERTEX
  8
Edge_Top
  10
1.8257
  20
0.2934
  42
0
  0
VERTEX
  8
Edge_Top
  10
1.8684
  20
0.2934
  42
0
  0
VERTEX
  8
Edge_Top
  10
1.8684
  20
0.2454
  42
0
  0
VERTEX
  8
Edge_Top
  10
1.8204
  20
0.2454
  42
0
  0
VERTEX
  8
Edge_Top
  10
1.8204
  20
0.2525
  42
0
  0
VERTEX
  8
Edge_Top
  10
1.7964
  20
0.2524
  42
0
  0
VERTEX
  8
Edge_Top
  10
1.6732
  20
0.2524
  42
0
  0
VERTEX
  8
Edge_Top
  10
1.6734
  20
0.2404
  42
0
  0
VERTEX
  8
Edge_Top
  10
1.6154
  20
0.2404
  42
0
  0
VERTEX
  8
Edge_Top
  10
1.6154
  20
0.2984
  42
0
  0
VERTEX
  8
Edge_Top
  10
1.6734
  20
0.2984
  42
0
  0
VERTEX
  8
Edge_Top
  10
1.6734
  20
0.2862
  42
0
  0
VERTEX
  8
Edge_Top
  10
1.6977
  20
0.2864
  42
0
  0
VERTEX
  8
Edge_Top
  10
1.8205
  20
0.2864
  42
0
  0
VERTEX
  8
Edge_Top
  10
1.8204
  20
0.2934
  42
0
  0
VERTEX
  8
Edge_Top
  10
1.8257
  20
0.2934
  42
0
  0
SEQEND
  0
POLYLINE
  8
Edge_Top
  6
CONTINUOUS
  66
1
  70
0
  40
0.008
  41
0.008
  0
VERTEX
  8
Edge_Top
  10
2.1956
  20
0.5675
  42
0
  0
VERTEX
  8
Edge_Top
  10
2.1919
  20
0.5588
  42
0
  0
VERTEX
  8
Edge_Top
  10
2.186
  20
0.5499
  42
0
  0
VERTEX
  8
Edge_Top
  10
2.1784
  20
0.5424
  42
0
  0
VERTEX
  8
Edge_Top
  10
2.1695
  20
0.5366
  42
0
  0
VERTEX
  8
Edge_Top
  10
2.1596
  20
0.5326
  42
0
  0
VERTEX
  8
Edge_Top
  10
2.1492
  20
0.5306
  42
0
  0
VERTEX
  8
Edge_Top
  10
2.1385
  20
0.5307
  42
0
  0
VERTEX
  8
Edge_Top
  10
2.1281
  20
0.5329
  42
0
  0
VERTEX
  8
Edge_Top
  10
2.1183
  20
0.5371
  42
0
  0
VERTEX
  8
Edge_Top
  10
2.1095
  20
0.5431
  42
0
  0
VERTEX
  8
Edge_Top
  10
2.1021
  20
0.5507
  42
0
  0
VERTEX
  8
Edge_Top
  10
2.0963
  20
0.5597
  42
0
  0
VERTEX
  8
Edge_Top
  10
2.0924
  20
0.5696
  42
0
  0
VERTEX
  8
Edge_Top
  10
2.0905
  20
0.58
  42
0
  0
VERTEX
  8
Edge_Top
  10
2.0907
  20
0.5907
  42
0
  0
VERTEX
  8
Edge_Top
  10
2.093
  20
0.6011
  42
0
  0
VERTEX
  8
Edge_Top
  10
2.0973
  20
0.6108
  42
0
  0
VERTEX
  8
Edge_Top
  10
2.1034
  20
0.6196
  42
0
  0
VERTEX
  8
Edge_Top
  10
2.1111
  20
0.6269
  42
0
  0
VERTEX
  8
Edge_Top
  10
2.1201
  20
0.6326
  42
0
  0
VERTEX
  8
Edge_Top
  10
2.1301
  20
0.6364
  42
0
  0
VERTEX
  8
Edge_Top
  10
2.1406
  20
0.6382
  42
0
  0
VERTEX
  8
Edge_Top
  10
2.1512
  20
0.6379
  42
0
  0
VERTEX
  8
Edge_Top
  10
2.1616
  20
0.6355
  42
0
  0
VERTEX
  8
Edge_Top
  10
2.1713
  20
0.6312
  42
0
  0
VERTEX
  8
Edge_Top
  10
2.18
  20
0.625
  42
0
  0
VERTEX
  8
Edge_Top
  10
2.1872
  20
0.6172
  42
0
  0
VERTEX
  8
Edge_Top
  10
2.1928
  20
0.6081
  42
0
  0
VERTEX
  8
Edge_Top
  10
2.1955
  20
0.6015
  42
0
  0
VERTEX
  8
Edge_Top
  10
2.2244
  20
0.6014
  42
0
  0
VERTEX
  8
Edge_Top
  10
2.3554
  20
0.6014
  42
0
  0
VERTEX
  8
Edge_Top
  10
2.3606
  20
0.6005
  42
0
  0
VERTEX
  8
Edge_Top
  10
2.3655
  20
0.598
  42
0
  0
VERTEX
  8
Edge_Top
  10
2.3749
  20
0.5888
  42
0
  0
VERTEX
  8
Edge_Top
  10
2.4064
  20
0.5574
  42
0
  0
VERTEX
  8
Edge_Top
  10
2.4095
  20
0.5531
  42
0
  0
VERTEX
  8
Edge_Top
  10
2.4111
  20
0.5479
  42
0
  0
VERTEX
  8
Edge_Top
  10
2.4114
  20
0.5347
  42
0
  0
VERTEX
  8
Edge_Top
  10
2.4114
  20
0.3989
  42
0
  0
VERTEX
  8
Edge_Top
  10
2.4182
  20
0.3936
  42
0
  0
VERTEX
  8
Edge_Top
  10
2.4217
  20
0.3896
  42
0
  0
VERTEX
  8
Edge_Top
  10
2.4245
  20
0.385
  42
0
  0
VERTEX
  8
Edge_Top
  10
2.4266
  20
0.3801
  42
0
  0
VERTEX
  8
Edge_Top
  10
2.4279
  20
0.375
  42
0
  0
VERTEX
  8
Edge_Top
  10
2.4284
  20
0.3694
  42
0
  0
VERTEX
  8
Edge_Top
  10
2.4279
  20
0.364
  42
0
  0
VERTEX
  8
Edge_Top
  10
2.4267
  20
0.3589
  42
0
  0
VERTEX
  8
Edge_Top
  10
2.4247
  20
0.3539
  42
0
  0
VERTEX
  8
Edge_Top
  10
2.4219
  20
0.3494
  42
0
  0
VERTEX
  8
Edge_Top
  10
2.4184
  20
0.3453
  42
0
  0
VERTEX
  8
Edge_Top
  10
2.4144
  20
0.3419
  42
0
  0
VERTEX
  8
Edge_Top
  10
2.4098
  20
0.3391
  42
0
  0
VERTEX
  8
Edge_Top
  10
2.4049
  20
0.337
  42
0
  0
VERTEX
  8
Edge_Top
  10
2.3997
  20
0.3358
  42
0
  0
VERTEX
  8
Edge_Top
  10
2.3944
  20
0.3354
  42
0
  0
VERTEX
  8
Edge_Top
  10
2.3891
  20
0.3358
  42
0
  0
VERTEX
  8
Edge_Top
  10
2.3839
  20
0.337
  42
0
  0
VERTEX
  8
Edge_Top
  10
2.379
  20
0.339
  42
0
  0
VERTEX
  8
Edge_Top
  10
2.3745
  20
0.3418
  42
0
  0
VERTEX
  8
Edge_Top
  10
2.3704
  20
0.3452
  42
0
  0
VERTEX
  8
Edge_Top
  10
2.3669
  20
0.3493
  42
0
  0
VERTEX
  8
Edge_Top
  10
2.3641
  20
0.3538
  42
0
  0
VERTEX
  8
Edge_Top
  10
2.3621
  20
0.3587
  42
0
  0
VERTEX
  8
Edge_Top
  10
2.3608
  20
0.3639
  42
0
  0
VERTEX
  8
Edge_Top
  10
2.3604
  20
0.3692
  42
0
  0
VERTEX
  8
Edge_Top
  10
2.3608
  20
0.3745
  42
0
  0
VERTEX
  8
Edge_Top
  10
2.362
  20
0.3797
  42
0
  0
VERTEX
  8
Edge_Top
  10
2.364
  20
0.3846
  42
0
  0
VERTEX
  8
Edge_Top
  10
2.3667
  20
0.3892
  42
0
  0
VERTEX
  8
Edge_Top
  10
2.3702
  20
0.3933
  42
0
  0
VERTEX
  8
Edge_Top
  10
2.3742
  20
0.3968
  42
0
  0
VERTEX
  8
Edge_Top
  10
2.3775
  20
0.3988
  42
0
  0
VERTEX
  8
Edge_Top
  10
2.3774
  20
0.4494
  42
0
  0
VERTEX
  8
Edge_Top
  10
2.3774
  20
0.5382
  42
0
  0
VERTEX
  8
Edge_Top
  10
2.3483
  20
0.5674
  42
0
  0
VERTEX
  8
Edge_Top
  10
2.1955
  20
0.5674
  42
0
  0
VERTEX
  8
Edge_Top
  10
2.1956
  20
0.5675
  42
0
  0
SEQEND
  0
POLYLINE
  8
Edge_Top
  6
CONTINUOUS
  66
1
  70
0
  40
0.008
  41
0.008
  0
VERTEX
  8
Edge_Top
  10
2.0957
  20
0.8534
  42
0
  0
VERTEX
  8
Edge_Top
  10
2.1984
  20
0.8534
  42
0
  0
VERTEX
  8
Edge_Top
  10
2.1984
  20
0.8162
  42
0
  0
VERTEX
  8
Edge_Top
  10
2.2297
  20
0.8164
  42
0
  0
VERTEX
  8
Edge_Top
  10
2.3144
  20
0.8164
  42
0
  0
VERTEX
  8
Edge_Top
  10
2.3196
  20
0.8155
  42
0
  0
VERTEX
  8
Edge_Top
  10
2.3245
  20
0.813
  42
0
  0
VERTEX
  8
Edge_Top
  10
2.3339
  20
0.8038
  42
0
  0
VERTEX
  8
Edge_Top
  10
2.4356
  20
0.7021
  42
0
  0
VERTEX
  8
Edge_Top
  10
2.4388
  20
0.7029
  42
0
  0
VERTEX
  8
Edge_Top
  10
2.4441
  20
0.7034
  42
0
  0
VERTEX
  8
Edge_Top
  10
2.4494
  20
0.703
  42
0
  0
VERTEX
  8
Edge_Top
  10
2.4546
  20
0.7018
  42
0
  0
VERTEX
  8
Edge_Top
  10
2.4596
  20
0.6998
  42
0
  0
VERTEX
  8
Edge_Top
  10
2.4641
  20
0.697
  42
0
  0
VERTEX
  8
Edge_Top
  10
2.4682
  20
0.6936
  42
0
  0
VERTEX
  8
Edge_Top
  10
2.4717
  20
0.6896
  42
0
  0
VERTEX
  8
Edge_Top
  10
2.4745
  20
0.685
  42
0
  0
VERTEX
  8
Edge_Top
  10
2.4766
  20
0.6801
  42
0
  0
VERTEX
  8
Edge_Top
  10
2.4779
  20
0.675
  42
0
  0
VERTEX
  8
Edge_Top
  10
2.4784
  20
0.6694
  42
0
  0
VERTEX
  8
Edge_Top
  10
2.4779
  20
0.664
  42
0
  0
VERTEX
  8
Edge_Top
  10
2.4767
  20
0.6589
  42
0
  0
VERTEX
  8
Edge_Top
  10
2.4747
  20
0.6539
  42
0
  0
VERTEX
  8
Edge_Top
  10
2.4719
  20
0.6494
  42
0
  0
VERTEX
  8
Edge_Top
  10
2.4684
  20
0.6453
  42
0
  0
VERTEX
  8
Edge_Top
  10
2.4644
  20
0.6419
  42
0
  0
VERTEX
  8
Edge_Top
  10
2.4598
  20
0.6391
  42
0
  0
VERTEX
  8
Edge_Top
  10
2.4549
  20
0.637
  42
0
  0
VERTEX
  8
Edge_Top
  10
2.4497
  20
0.6358
  42
0
  0
VERTEX
  8
Edge_Top
  10
2.4444
  20
0.6354
  42
0
  0
VERTEX
  8
Edge_Top
  10
2.4391
  20
0.6358
  42
0
  0
VERTEX
  8
Edge_Top
  10
2.4339
  20
0.637
  42
0
  0
VERTEX
  8
Edge_Top
  10
2.429
  20
0.639
  42
0
  0
VERTEX
  8
Edge_Top
  10
2.4245
  20
0.6418
  42
0
  0
VERTEX
  8
Edge_Top
  10
2.4204
  20
0.6452
  42
0
  0
VERTEX
  8
Edge_Top
  10
2.4169
  20
0.6493
  42
0
  0
VERTEX
  8
Edge_Top
  10
2.4141
  20
0.6538
  42
0
  0
VERTEX
  8
Edge_Top
  10
2.4121
  20
0.6587
  42
0
  0
VERTEX
  8
Edge_Top
  10
2.4108
  20
0.6639
  42
0
  0
VERTEX
  8
Edge_Top
  10
2.4104
  20
0.6692
  42
0
  0
VERTEX
  8
Edge_Top
  10
2.4108
  20
0.6745
  42
0
  0
VERTEX
  8
Edge_Top
  10
2.4116
  20
0.6783
  42
0
  0
VERTEX
  8
Edge_Top
  10
2.3909
  20
0.6988
  42
0
  0
VERTEX
  8
Edge_Top
  10
2.3073
  20
0.7824
  42
0
  0
VERTEX
  8
Edge_Top
  10
2.1982
  20
0.7824
  42
0
  0
VERTEX
  8
Edge_Top
  10
2.1984
  20
0.7574
  42
0
  0
VERTEX
  8
Edge_Top
  10
2.1984
  20
0.7454
  42
0
  0
VERTEX
  8
Edge_Top
  10
2.0904
  20
0.7454
  42
0
  0
VERTEX
  8
Edge_Top
  10
2.0904
  20
0.8534
  42
0
  0
VERTEX
  8
Edge_Top
  10
2.0957
  20
0.8534
  42
0
  0
SEQEND
  0
POLYLINE
  8
Edge_Top
  6
CONTINUOUS
  66
1
  70
0
  40
0.008
  41
0.008
  0
VERTEX
  8
Edge_Top
  10
2.1145
  20
1.6434
  42
0
  0
VERTEX
  8
Edge_Top
  10
2.1984
  20
1.6434
  42
0
  0
VERTEX
  8
Edge_Top
  10
2.1984
  20
1.6062
  42
0
  0
VERTEX
  8
Edge_Top
  10
2.2297
  20
1.6064
  42
0
  0
VERTEX
  8
Edge_Top
  10
2.2572
  20
1.6064
  42
0
  0
VERTEX
  8
Edge_Top
  10
2.3466
  20
1.6957
  42
0
  0
VERTEX
  8
Edge_Top
  10
2.4116
  20
1.7606
  42
0
  0
VERTEX
  8
Edge_Top
  10
2.4108
  20
1.7639
  42
0
  0
VERTEX
  8
Edge_Top
  10
2.4104
  20
1.7692
  42
0
  0
VERTEX
  8
Edge_Top
  10
2.4108
  20
1.7745
  42
0
  0
VERTEX
  8
Edge_Top
  10
2.412
  20
1.7797
  42
0
  0
VERTEX
  8
Edge_Top
  10
2.414
  20
1.7846
  42
0
  0
VERTEX
  8
Edge_Top
  10
2.4167
  20
1.7892
  42
0
  0
VERTEX
  8
Edge_Top
  10
2.4202
  20
1.7933
  42
0
  0
VERTEX
  8
Edge_Top
  10
2.4242
  20
1.7968
  42
0
  0
VERTEX
  8
Edge_Top
  10
2.4287
  20
1.7996
  42
0
  0
VERTEX
  8
Edge_Top
  10
2.4337
  20
1.8016
  42
0
  0
VERTEX
  8
Edge_Top
  10
2.4388
  20
1.8029
  42
0
  0
VERTEX
  8
Edge_Top
  10
2.4441
  20
1.8034
  42
0
  0
VERTEX
  8
Edge_Top
  10
2.4494
  20
1.803
  42
0
  0
VERTEX
  8
Edge_Top
  10
2.4546
  20
1.8018
  42
0
  0
VERTEX
  8
Edge_Top
  10
2.4596
  20
1.7998
  42
0
  0
VERTEX
  8
Edge_Top
  10
2.4641
  20
1.797
  42
0
  0
VERTEX
  8
Edge_Top
  10
2.4682
  20
1.7936
  42
0
  0
VERTEX
  8
Edge_Top
  10
2.4717
  20
1.7896
  42
0
  0
VERTEX
  8
Edge_Top
  10
2.4745
  20
1.785
  42
0
  0
VERTEX
  8
Edge_Top
  10
2.4766
  20
1.7801
  42
0
  0
VERTEX
  8
Edge_Top
  10
2.4779
  20
1.775
  42
0
  0
VERTEX
  8
Edge_Top
  10
2.4784
  20
1.7694
  42
0
  0
VERTEX
  8
Edge_Top
  10
2.4779
  20
1.764
  42
0
  0
VERTEX
  8
Edge_Top
  10
2.4767
  20
1.7589
  42
0
  0
VERTEX
  8
Edge_Top
  10
2.4747
  20
1.7539
  42
0
  0
VERTEX
  8
Edge_Top
  10
2.4719
  20
1.7494
  42
0
  0
VERTEX
  8
Edge_Top
  10
2.4684
  20
1.7453
  42
0
  0
VERTEX
  8
Edge_Top
  10
2.4644
  20
1.7419
  42
0
  0
VERTEX
  8
Edge_Top
  10
2.4598
  20
1.7391
  42
0
  0
VERTEX
  8
Edge_Top
  10
2.4549
  20
1.737
  42
0
  0
VERTEX
  8
Edge_Top
  10
2.4497
  20
1.7358
  42
0
  0
VERTEX
  8
Edge_Top
  10
2.4444
  20
1.7354
  42
0
  0
VERTEX
  8
Edge_Top
  10
2.4391
  20
1.7358
  42
0
  0
VERTEX
  8
Edge_Top
  10
2.4357
  20
1.7366
  42
0
  0
VERTEX
  8
Edge_Top
  10
2.2904
  20
1.5914
  42
0
  0
VERTEX
  8
Edge_Top
  10
2.2764
  20
1.5773
  42
0
  0
VERTEX
  8
Edge_Top
  10
2.2721
  20
1.5742
  42
0
  0
VERTEX
  8
Edge_Top
  10
2.2669
  20
1.5726
  42
0
  0
VERTEX
  8
Edge_Top
  10
2.2537
  20
1.5724
  42
0
  0
VERTEX
  8
Edge_Top
  10
2.1982
  20
1.5724
  42
0
  0
VERTEX
  8
Edge_Top
  10
2.1984
  20
1.5474
  42
0
  0
VERTEX
  8
Edge_Top
  10
2.1984
  20
1.5354
  42
0
  0
VERTEX
  8
Edge_Top
  10
2.0904
  20
1.5354
  42
0
  0
VERTEX
  8
Edge_Top
  10
2.0904
  20
1.6192
  42
0
  0
VERTEX
  8
Edge_Top
  10
2.0073
  20
1.7024
  42
0
  0
VERTEX
  8
Edge_Top
  10
1.9832
  20
1.7024
  42
0
  0
VERTEX
  8
Edge_Top
  10
1.9834
  20
1.6804
  42
0
  0
VERTEX
  8
Edge_Top
  10
1.9054
  20
1.6804
  42
0
  0
VERTEX
  8
Edge_Top
  10
1.9054
  20
1.7584
  42
0
  0
VERTEX
  8
Edge_Top
  10
1.9834
  20
1.7584
  42
0
  0
VERTEX
  8
Edge_Top
  10
1.9834
  20
1.7362
  42
0
  0
VERTEX
  8
Edge_Top
  10
2.0084
  20
1.7364
  42
0
  0
VERTEX
  8
Edge_Top
  10
2.0144
  20
1.7364
  42
0
  0
VERTEX
  8
Edge_Top
  10
2.0196
  20
1.7355
  42
0
  0
VERTEX
  8
Edge_Top
  10
2.0245
  20
1.733
  42
0
  0
VERTEX
  8
Edge_Top
  10
2.0339
  20
1.7238
  42
0
  0
VERTEX
  8
Edge_Top
  10
2.1144
  20
1.6433
  42
0
  0
VERTEX
  8
Edge_Top
  10
2.1145
  20
1.6434
  42
0
  0
SEQEND
  0
POLYLINE
  8
Edge_Top
  6
CONTINUOUS
  66
1
  70
0
  40
0.008
  41
0.008
  0
VERTEX
  8
Edge_Top
  10
0.8107
  20
1.6584
  42
0
  0
VERTEX
  8
Edge_Top
  10
0.8275
  20
1.6584
  42
0
  0
VERTEX
  8
Edge_Top
  10
0.8274
  20
1.6753
  42
0
  0
VERTEX
  8
Edge_Top
  10
0.8282
  20
1.6806
  42
0
  0
VERTEX
  8
Edge_Top
  10
0.8306
  20
1.6853
  42
0
  0
VERTEX
  8
Edge_Top
  10
0.8343
  20
1.6891
  42
0
  0
VERTEX
  8
Edge_Top
  10
0.8391
  20
1.6915
  42
0
  0
VERTEX
  8
Edge_Top
  10
0.8444
  20
1.6923
  42
0
  0
VERTEX
  8
Edge_Top
  10
0.9444
  20
1.6923
  42
0
  0
VERTEX
  8
Edge_Top
  10
0.9496
  20
1.6915
  42
0
  0
VERTEX
  8
Edge_Top
  10
0.9543
  20
1.6891
  42
0
  0
VERTEX
  8
Edge_Top
  10
0.9581
  20
1.6854
  42
0
  0
VERTEX
  8
Edge_Top
  10
0.9605
  20
1.6806
  42
0
  0
VERTEX
  8
Edge_Top
  10
0.9614
  20
1.6753
  42
0
  0
VERTEX
  8
Edge_Top
  10
0.9614
  20
1.6532
  42
0
  0
VERTEX
  8
Edge_Top
  10
0.9784
  20
1.6534
  42
0
  0
VERTEX
  8
Edge_Top
  10
0.9784
  20
1.5854
  42
0
  0
VERTEX
  8
Edge_Top
  10
0.9104
  20
1.5854
  42
0
  0
VERTEX
  8
Edge_Top
  10
0.9104
  20
1.6534
  42
0
  0
VERTEX
  8
Edge_Top
  10
0.9275
  20
1.6534
  42
0
  0
VERTEX
  8
Edge_Top
  10
0.9274
  20
1.6585
  42
0
  0
VERTEX
  8
Edge_Top
  10
0.9017
  20
1.6583
  42
0
  0
VERTEX
  8
Edge_Top
  10
0.8834
  20
1.6584
  42
0
  0
VERTEX
  8
Edge_Top
  10
0.8834
  20
1.5804
  42
0
  0
VERTEX
  8
Edge_Top
  10
0.8054
  20
1.5804
  42
0
  0
VERTEX
  8
Edge_Top
  10
0.8054
  20
1.6584
  42
0
  0
VERTEX
  8
Edge_Top
  10
0.8107
  20
1.6584
  42
0
  0
SEQEND
  0
POLYLINE
  8
Edge_Top
  6
CONTINUOUS
  66
1
  70
0
  40
0.008
  41
0.008
  0
VERTEX
  8
Edge_Top
  10
0.883
  20
1.214
  42
0
  0
VERTEX
  8
Edge_Top
  10
0.8819
  20
1.2088
  42
0
  0
VERTEX
  8
Edge_Top
  10
0.8801
  20
1.2038
  42
0
  0
VERTEX
  8
Edge_Top
  10
0.8777
  20
1.1991
  42
0
  0
VERTEX
  8
Edge_Top
  10
0.8746
  20
1.1947
  42
0
  0
VERTEX
  8
Edge_Top
  10
0.8709
  20
1.1908
  42
0
  0
VERTEX
  8
Edge_Top
  10
0.8668
  20
1.1875
  42
0
  0
VERTEX
  8
Edge_Top
  10
0.8623
  20
1.1847
  42
0
  0
VERTEX
  8
Edge_Top
  10
0.8574
  20
1.1826
  42
0
  0
VERTEX
  8
Edge_Top
  10
0.8522
  20
1.1812
  42
0
  0
VERTEX
  8
Edge_Top
  10
0.8469
  20
1.1804
  42
0
  0
VERTEX
  8
Edge_Top
  10
0.8416
  20
1.1805
  42
0
  0
VERTEX
  8
Edge_Top
  10
0.8363
  20
1.1812
  42
0
  0
VERTEX
  8
Edge_Top
  10
0.8312
  20
1.1826
  42
0
  0
VERTEX
  8
Edge_Top
  10
0.8263
  20
1.1848
  42
0
  0
VERTEX
  8
Edge_Top
  10
0.8218
  20
1.1876
  42
0
  0
VERTEX
  8
Edge_Top
  10
0.8177
  20
1.1909
  42
0
  0
VERTEX
  8
Edge_Top
  10
0.814
  20
1.1948
  42
0
  0
VERTEX
  8
Edge_Top
  10
0.811
  20
1.1992
  42
0
  0
VERTEX
  8
Edge_Top
  10
0.8085
  20
1.2039
  42
0
  0
VERTEX
  8
Edge_Top
  10
0.8069
  20
1.2085
  42
0
  0
VERTEX
  8
Edge_Top
  10
0.7904
  20
1.2083
  42
0
  0
VERTEX
  8
Edge_Top
  10
0.7575
  20
1.2083
  42
0
  0
VERTEX
  8
Edge_Top
  10
0.7271
  20
1.1781
  42
0
  0
VERTEX
  8
Edge_Top
  10
0.7279
  20
1.175
  42
0
  0
VERTEX
  8
Edge_Top
  10
0.7284
  20
1.1694
  42
0
  0
VERTEX
  8
Edge_Top
  10
0.7279
  20
1.164
  42
0
  0
VERTEX
  8
Edge_Top
  10
0.7267
  20
1.1589
  42
0
  0
VERTEX
  8
Edge_Top
  10
0.7247
  20
1.1539
  42
0
  0
VERTEX
  8
Edge_Top
  10
0.7219
  20
1.1494
  42
0
  0
VERTEX
  8
Edge_Top
  10
0.7184
  20
1.1453
  42
0
  0
VERTEX
  8
Edge_Top
  10
0.7144
  20
1.1419
  42
0
  0
VERTEX
  8
Edge_Top
  10
0.7098
  20
1.1391
  42
0
  0
VERTEX
  8
Edge_Top
  10
0.7049
  20
1.137
  42
0
  0
VERTEX
  8
Edge_Top
  10
0.6997
  20
1.1358
  42
0
  0
VERTEX
  8
Edge_Top
  10
0.6944
  20
1.1354
  42
0
  0
VERTEX
  8
Edge_Top
  10
0.6891
  20
1.1358
  42
0
  0
VERTEX
  8
Edge_Top
  10
0.6839
  20
1.137
  42
0
  0
VERTEX
  8
Edge_Top
  10
0.679
  20
1.139
  42
0
  0
VERTEX
  8
Edge_Top
  10
0.6745
  20
1.1418
  42
0
  0
VERTEX
  8
Edge_Top
  10
0.6704
  20
1.1452
  42
0
  0
VERTEX
  8
Edge_Top
  10
0.6669
  20
1.1493
  42
0
  0
VERTEX
  8
Edge_Top
  10
0.6641
  20
1.1538
  42
0
  0
VERTEX
  8
Edge_Top
  10
0.6621
  20
1.1587
  42
0
  0
VERTEX
  8
Edge_Top
  10
0.6608
  20
1.1639
  42
0
  0
VERTEX
  8
Edge_Top
  10
0.6604
  20
1.1692
  42
0
  0
VERTEX
  8
Edge_Top
  10
0.6608
  20
1.1745
  42
0
  0
VERTEX
  8
Edge_Top
  10
0.662
  20
1.1797
  42
0
  0
VERTEX
  8
Edge_Top
  10
0.664
  20
1.1846
  42
0
  0
VERTEX
  8
Edge_Top
  10
0.6667
  20
1.1892
  42
0
  0
VERTEX
  8
Edge_Top
  10
0.6702
  20
1.1933
  42
0
  0
VERTEX
  8
Edge_Top
  10
0.6742
  20
1.1968
  42
0
  0
VERTEX
  8
Edge_Top
  10
0.6787
  20
1.1996
  42
0
  0
VERTEX
  8
Edge_Top
  10
0.6837
  20
1.2016
  42
0
  0
VERTEX
  8
Edge_Top
  10
0.6888
  20
1.2029
  42
0
  0
VERTEX
  8
Edge_Top
  10
0.6941
  20
1.2034
  42
0
  0
VERTEX
  8
Edge_Top
  10
0.6994
  20
1.203
  42
0
  0
VERTEX
  8
Edge_Top
  10
0.7032
  20
1.2021
  42
0
  0
VERTEX
  8
Edge_Top
  10
0.7383
  20
1.2374
  42
0
  0
VERTEX
  8
Edge_Top
  10
0.7426
  20
1.2405
  42
0
  0
VERTEX
  8
Edge_Top
  10
0.7478
  20
1.2421
  42
0
  0
VERTEX
  8
Edge_Top
  10
0.761
  20
1.2423
  42
0
  0
VERTEX
  8
Edge_Top
  10
0.8128
  20
1.2423
  42
0
  0
VERTEX
  8
Edge_Top
  10
0.8179
  20
1.248
  42
0
  0
VERTEX
  8
Edge_Top
  10
0.822
  20
1.2513
  42
0
  0
VERTEX
  8
Edge_Top
  10
0.8266
  20
1.2541
  42
0
  0
VERTEX
  8
Edge_Top
  10
0.8315
  20
1.2562
  42
0
  0
VERTEX
  8
Edge_Top
  10
0.8366
  20
1.2576
  42
0
  0
VERTEX
  8
Edge_Top
  10
0.8419
  20
1.2583
  42
0
  0
VERTEX
  8
Edge_Top
  10
0.8472
  20
1.2583
  42
0
  0
VERTEX
  8
Edge_Top
  10
0.8525
  20
1.2575
  42
0
  0
VERTEX
  8
Edge_Top
  10
0.8576
  20
1.256
  42
0
  0
VERTEX
  8
Edge_Top
  10
0.8625
  20
1.2539
  42
0
  0
VERTEX
  8
Edge_Top
  10
0.867
  20
1.2511
  42
0
  0
VERTEX
  8
Edge_Top
  10
0.8712
  20
1.2477
  42
0
  0
VERTEX
  8
Edge_Top
  10
0.8748
  20
1.2438
  42
0
  0
VERTEX
  8
Edge_Top
  10
0.8778
  20
1.2394
  42
0
  0
VERTEX
  8
Edge_Top
  10
0.8802
  20
1.2346
  42
0
  0
VERTEX
  8
Edge_Top
  10
0.882
  20
1.2296
  42
0
  0
VERTEX
  8
Edge_Top
  10
0.883
  20
1.2244
  42
0
  0
VERTEX
  8
Edge_Top
  10
0.8834
  20
1.2194
  42
0
  0
VERTEX
  8
Edge_Top
  10
0.883
  20
1.214
  42
0
  0
SEQEND
  0
POLYLINE
  8
Edge_Top
  6
CONTINUOUS
  66
1
  70
0
  40
0.008
  41
0.008
  0
VERTEX
  8
Edge_Top
  10
0.8107
  20
1.1584
  42
0
  0
VERTEX
  8
Edge_Top
  10
0.8834
  20
1.1584
  42
0
  0
VERTEX
  8
Edge_Top
  10
0.8834
  20
1.0804
  42
0
  0
VERTEX
  8
Edge_Top
  10
0.8054
  20
1.0804
  42
0
  0
VERTEX
  8
Edge_Top
  10
0.8054
  20
1.1584
  42
0
  0
VERTEX
  8
Edge_Top
  10
0.8107
  20
1.1584
  42
0
  0
SEQEND
  0
POLYLINE
  8
Edge_Top
  6
CONTINUOUS
  66
1
  70
0
  40
0.008
  41
0.008
  0
VERTEX
  8
Edge_Top
  10
0.8794
  20
0.7025
  42
0
  0
VERTEX
  8
Edge_Top
  10
0.8777
  20
0.6991
  42
0
  0
VERTEX
  8
Edge_Top
  10
0.8746
  20
0.6947
  42
0
  0
VERTEX
  8
Edge_Top
  10
0.8709
  20
0.6908
  42
0
  0
VERTEX
  8
Edge_Top
  10
0.8668
  20
0.6875
  42
0
  0
VERTEX
  8
Edge_Top
  10
0.8623
  20
0.6847
  42
0
  0
VERTEX
  8
Edge_Top
  10
0.8574
  20
0.6826
  42
0
  0
VERTEX
  8
Edge_Top
  10
0.8522
  20
0.6812
  42
0
  0
VERTEX
  8
Edge_Top
  10
0.8469
  20
0.6804
  42
0
  0
VERTEX
  8
Edge_Top
  10
0.8416
  20
0.6805
  42
0
  0
VERTEX
  8
Edge_Top
  10
0.8363
  20
0.6812
  42
0
  0
VERTEX
  8
Edge_Top
  10
0.8312
  20
0.6826
  42
0
  0
VERTEX
  8
Edge_Top
  10
0.8263
  20
0.6848
  42
0
  0
VERTEX
  8
Edge_Top
  10
0.8218
  20
0.6876
  42
0
  0
VERTEX
  8
Edge_Top
  10
0.8177
  20
0.6909
  42
0
  0
VERTEX
  8
Edge_Top
  10
0.814
  20
0.6948
  42
0
  0
VERTEX
  8
Edge_Top
  10
0.811
  20
0.6992
  42
0
  0
VERTEX
  8
Edge_Top
  10
0.8085
  20
0.7039
  42
0
  0
VERTEX
  8
Edge_Top
  10
0.8068
  20
0.709
  42
0
  0
VERTEX
  8
Edge_Top
  10
0.8057
  20
0.7142
  42
0
  0
VERTEX
  8
Edge_Top
  10
0.8054
  20
0.7195
  42
0
  0
VERTEX
  8
Edge_Top
  10
0.8057
  20
0.7248
  42
0
  0
VERTEX
  8
Edge_Top
  10
0.8068
  20
0.73
  42
0
  0
VERTEX
  8
Edge_Top
  10
0.8087
  20
0.735
  42
0
  0
VERTEX
  8
Edge_Top
  10
0.8111
  20
0.7398
  42
0
  0
VERTEX
  8
Edge_Top
  10
0.8142
  20
0.7441
  42
0
  0
VERTEX
  8
Edge_Top
  10
0.8179
  20
0.748
  42
0
  0
VERTEX
  8
Edge_Top
  10
0.822
  20
0.7513
  42
0
  0
VERTEX
  8
Edge_Top
  10
0.8266
  20
0.7541
  42
0
  0
VERTEX
  8
Edge_Top
  10
0.8315
  20
0.7562
  42
0
  0
VERTEX
  8
Edge_Top
  10
0.8366
  20
0.7576
  42
0
  0
VERTEX
  8
Edge_Top
  10
0.8419
  20
0.7583
  42
0
  0
VERTEX
  8
Edge_Top
  10
0.8472
  20
0.7583
  42
0
  0
VERTEX
  8
Edge_Top
  10
0.8525
  20
0.7575
  42
0
  0
VERTEX
  8
Edge_Top
  10
0.8576
  20
0.756
  42
0
  0
VERTEX
  8
Edge_Top
  10
0.8625
  20
0.7539
  42
0
  0
VERTEX
  8
Edge_Top
  10
0.867
  20
0.7511
  42
0
  0
VERTEX
  8
Edge_Top
  10
0.8712
  20
0.7477
  42
0
  0
VERTEX
  8
Edge_Top
  10
0.8748
  20
0.7438
  42
0
  0
VERTEX
  8
Edge_Top
  10
0.8778
  20
0.7394
  42
0
  0
VERTEX
  8
Edge_Top
  10
0.8794
  20
0.7363
  42
0
  0
VERTEX
  8
Edge_Top
  10
0.9105
  20
0.7364
  42
0
  0
VERTEX
  8
Edge_Top
  10
0.9104
  20
0.7534
  42
0
  0
VERTEX
  8
Edge_Top
  10
0.9784
  20
0.7534
  42
0
  0
VERTEX
  8
Edge_Top
  10
0.9784
  20
0.6854
  42
0
  0
VERTEX
  8
Edge_Top
  10
0.9104
  20
0.6854
  42
0
  0
VERTEX
  8
Edge_Top
  10
0.9104
  20
0.7025
  42
0
  0
VERTEX
  8
Edge_Top
  10
0.8857
  20
0.7024
  42
0
  0
VERTEX
  8
Edge_Top
  10
0.8795
  20
0.7024
  42
0
  0
VERTEX
  8
Edge_Top
  10
0.8794
  20
0.7025
  42
0
  0
SEQEND
  0
POLYLINE
  8
Edge_Top
  6
CONTINUOUS
  66
1
  70
0
  40
0.008
  41
0.008
  0
VERTEX
  8
Edge_Top
  10
1.4157
  20
1.8534
  42
0
  0
VERTEX
  8
Edge_Top
  10
1.4784
  20
1.8534
  42
0
  0
VERTEX
  8
Edge_Top
  10
1.4784
  20
1.7854
  42
0
  0
VERTEX
  8
Edge_Top
  10
1.4104
  20
1.7854
  42
0
  0
VERTEX
  8
Edge_Top
  10
1.4104
  20
1.8534
  42
0
  0
VERTEX
  8
Edge_Top
  10
1.4157
  20
1.8534
  42
0
  0
SEQEND
  0
POLYLINE
  8
Edge_Top
  6
CONTINUOUS
  66
1
  70
0
  40
0.008
  41
0.008
  0
VERTEX
  8
Edge_Top
  10
0.9779
  20
1.814
  42
0
  0
VERTEX
  8
Edge_Top
  10
0.9767
  20
1.8089
  42
0
  0
VERTEX
  8
Edge_Top
  10
0.9747
  20
1.8039
  42
0
  0
VERTEX
  8
Edge_Top
  10
0.9719
  20
1.7994
  42
0
  0
VERTEX
  8
Edge_Top
  10
0.9684
  20
1.7953
  42
0
  0
VERTEX
  8
Edge_Top
  10
0.9644
  20
1.7919
  42
0
  0
VERTEX
  8
Edge_Top
  10
0.9598
  20
1.7891
  42
0
  0
VERTEX
  8
Edge_Top
  10
0.9549
  20
1.787
  42
0
  0
VERTEX
  8
Edge_Top
  10
0.9497
  20
1.7858
  42
0
  0
VERTEX
  8
Edge_Top
  10
0.9444
  20
1.7854
  42
0
  0
VERTEX
  8
Edge_Top
  10
0.9391
  20
1.7858
  42
0
  0
VERTEX
  8
Edge_Top
  10
0.9339
  20
1.787
  42
0
  0
VERTEX
  8
Edge_Top
  10
0.929
  20
1.789
  42
0
  0
VERTEX
  8
Edge_Top
  10
0.9245
  20
1.7918
  42
0
  0
VERTEX
  8
Edge_Top
  10
0.9204
  20
1.7952
  42
0
  0
VERTEX
  8
Edge_Top
  10
0.9169
  20
1.7993
  42
0
  0
VERTEX
  8
Edge_Top
  10
0.9151
  20
1.8023
  42
0
  0
VERTEX
  8
Edge_Top
  10
0.8484
  20
1.8024
  42
0
  0
VERTEX
  8
Edge_Top
  10
0.7015
  20
1.8024
  42
0
  0
VERTEX
  8
Edge_Top
  10
0.6121
  20
1.7131
  42
0
  0
VERTEX
  8
Edge_Top
  10
0.5769
  20
1.6778
  42
0
  0
VERTEX
  8
Edge_Top
  10
0.5779
  20
1.6694
  42
0
  0
VERTEX
  8
Edge_Top
  10
0.5775
  20
1.664
  42
0
  0
VERTEX
  8
Edge_Top
  10
0.5762
  20
1.6589
  42
0
  0
VERTEX
  8
Edge_Top
  10
0.5741
  20
1.654
  42
0
  0
VERTEX
  8
Edge_Top
  10
0.5713
  20
1.6494
  42
0
  0
VERTEX
  8
Edge_Top
  10
0.5678
  20
1.6454
  42
0
  0
VERTEX
  8
Edge_Top
  10
0.5637
  20
1.642
  42
0
  0
VERTEX
  8
Edge_Top
  10
0.5592
  20
1.6393
  42
0
  0
VERTEX
  8
Edge_Top
  10
0.5542
  20
1.6373
  42
0
  0
VERTEX
  8
Edge_Top
  10
0.549
  20
1.6362
  42
0
  0
VERTEX
  8
Edge_Top
  10
0.5437
  20
1.6358
  42
0
  0
VERTEX
  8
Edge_Top
  10
0.5384
  20
1.6364
  42
0
  0
VERTEX
  8
Edge_Top
  10
0.5332
  20
1.6377
  42
0
  0
VERTEX
  8
Edge_Top
  10
0.5284
  20
1.6399
  42
0
  0
VERTEX
  8
Edge_Top
  10
0.5239
  20
1.6428
  42
0
  0
VERTEX
  8
Edge_Top
  10
0.52
  20
1.6464
  42
0
  0
VERTEX
  8
Edge_Top
  10
0.5166
  20
1.6505
  42
0
  0
VERTEX
  8
Edge_Top
  10
0.514
  20
1.6552
  42
0
  0
VERTEX
  8
Edge_Top
  10
0.5121
  20
1.6601
  42
0
  0
VERTEX
  8
Edge_Top
  10
0.5111
  20
1.6654
  42
0
  0
VERTEX
  8
Edge_Top
  10
0.5109
  20
1.6707
  42
0
  0
VERTEX
  8
Edge_Top
  10
0.5115
  20
1.676
  42
0
  0
VERTEX
  8
Edge_Top
  10
0.513
  20
1.6811
  42
0
  0
VERTEX
  8
Edge_Top
  10
0.5152
  20
1.6859
  42
0
  0
VERTEX
  8
Edge_Top
  10
0.5182
  20
1.6903
  42
0
  0
VERTEX
  8
Edge_Top
  10
0.5219
  20
1.6942
  42
0
  0
VERTEX
  8
Edge_Top
  10
0.5261
  20
1.6975
  42
0
  0
VERTEX
  8
Edge_Top
  10
0.5308
  20
1.7
  42
0
  0
VERTEX
  8
Edge_Top
  10
0.5358
  20
1.7018
  42
0
  0
VERTEX
  8
Edge_Top
  10
0.541
  20
1.7027
  42
0
  0
VERTEX
  8
Edge_Top
  10
0.5464
  20
1.7028
  42
0
  0
VERTEX
  8
Edge_Top
  10
0.5528
  20
1.7017
  42
0
  0
VERTEX
  8
Edge_Top
  10
0.6823
  20
1.8314
  42
0
  0
VERTEX
  8
Edge_Top
  10
0.6866
  20
1.8345
  42
0
  0
VERTEX
  8
Edge_Top
  10
0.6918
  20
1.8361
  42
0
  0
VERTEX
  8
Edge_Top
  10
0.705
  20
1.8364
  42
0
  0
VERTEX
  8
Edge_Top
  10
0.9149
  20
1.8364
  42
0
  0
VERTEX
  8
Edge_Top
  10
0.9202
  20
1.8433
  42
0
  0
VERTEX
  8
Edge_Top
  10
0.9242
  20
1.8468
  42
0
  0
VERTEX
  8
Edge_Top
  10
0.9287
  20
1.8496
  42
0
  0
VERTEX
  8
Edge_Top
  10
0.9337
  20
1.8516
  42
0
  0
VERTEX
  8
Edge_Top
  10
0.9388
  20
1.8529
  42
0
  0
VERTEX
  8
Edge_Top
  10
0.9441
  20
1.8534
  42
0
  0
VERTEX
  8
Edge_Top
  10
0.9494
  20
1.853
  42
0
  0
VERTEX
  8
Edge_Top
  10
0.9546
  20
1.8518
  42
0
  0
VERTEX
  8
Edge_Top
  10
0.9596
  20
1.8498
  42
0
  0
VERTEX
  8
Edge_Top
  10
0.9641
  20
1.847
  42
0
  0
VERTEX
  8
Edge_Top
  10
0.9682
  20
1.8436
  42
0
  0
VERTEX
  8
Edge_Top
  10
0.9717
  20
1.8396
  42
0
  0
VERTEX
  8
Edge_Top
  10
0.9745
  20
1.835
  42
0
  0
VERTEX
  8
Edge_Top
  10
0.9766
  20
1.8301
  42
0
  0
VERTEX
  8
Edge_Top
  10
0.9779
  20
1.825
  42
0
  0
VERTEX
  8
Edge_Top
  10
0.9784
  20
1.8194
  42
0
  0
VERTEX
  8
Edge_Top
  10
0.9779
  20
1.814
  42
0
  0
SEQEND
  0
POLYLINE
  8
Edge_Top
  6
CONTINUOUS
  66
1
  70
0
  40
0.008
  41
0.008
  0
VERTEX
  8
Edge_Top
  10
0.9157
  20
0.5534
  42
0
  0
VERTEX
  8
Edge_Top
  10
0.9784
  20
0.5534
  42
0
  0
VERTEX
  8
Edge_Top
  10
0.9784
  20
0.4854
  42
0
  0
VERTEX
  8
Edge_Top
  10
0.9104
  20
0.4854
  42
0
  0
VERTEX
  8
Edge_Top
  10
0.9104
  20
0.5534
  42
0
  0
VERTEX
  8
Edge_Top
  10
0.9157
  20
0.5534
  42
0
  0
SEQEND
  0
POLYLINE
  8
Edge_Top
  6
CONTINUOUS
  66
1
  70
0
  40
0.008
  41
0.008
  0
VERTEX
  8
Edge_Top
  10
1.4779
  20
0.514
  42
0
  0
VERTEX
  8
Edge_Top
  10
1.4767
  20
0.5089
  42
0
  0
VERTEX
  8
Edge_Top
  10
1.4747
  20
0.5039
  42
0
  0
VERTEX
  8
Edge_Top
  10
1.4719
  20
0.4994
  42
0
  0
VERTEX
  8
Edge_Top
  10
1.4684
  20
0.4953
  42
0
  0
VERTEX
  8
Edge_Top
  10
1.4644
  20
0.4919
  42
0
  0
VERTEX
  8
Edge_Top
  10
1.4598
  20
0.4891
  42
0
  0
VERTEX
  8
Edge_Top
  10
1.4549
  20
0.487
  42
0
  0
VERTEX
  8
Edge_Top
  10
1.4497
  20
0.4858
  42
0
  0
VERTEX
  8
Edge_Top
  10
1.4444
  20
0.4854
  42
0
  0
VERTEX
  8
Edge_Top
  10
1.4391
  20
0.4858
  42
0
  0
VERTEX
  8
Edge_Top
  10
1.4339
  20
0.487
  42
0
  0
VERTEX
  8
Edge_Top
  10
1.429
  20
0.489
  42
0
  0
VERTEX
  8
Edge_Top
  10
1.4245
  20
0.4918
  42
0
  0
VERTEX
  8
Edge_Top
  10
1.4204
  20
0.4952
  42
0
  0
VERTEX
  8
Edge_Top
  10
1.4169
  20
0.4993
  42
0
  0
VERTEX
  8
Edge_Top
  10
1.4141
  20
0.5038
  42
0
  0
VERTEX
  8
Edge_Top
  10
1.4121
  20
0.5087
  42
0
  0
VERTEX
  8
Edge_Top
  10
1.4108
  20
0.5139
  42
0
  0
VERTEX
  8
Edge_Top
  10
1.4104
  20
0.5192
  42
0
  0
VERTEX
  8
Edge_Top
  10
1.4108
  20
0.5245
  42
0
  0
VERTEX
  8
Edge_Top
  10
1.412
  20
0.5297
  42
0
  0
VERTEX
  8
Edge_Top
  10
1.414
  20
0.5346
  42
0
  0
VERTEX
  8
Edge_Top
  10
1.4167
  20
0.5392
  42
0
  0
VERTEX
  8
Edge_Top
  10
1.4202
  20
0.5433
  42
0
  0
VERTEX
  8
Edge_Top
  10
1.4242
  20
0.5468
  42
0
  0
VERTEX
  8
Edge_Top
  10
1.4287
  20
0.5496
  42
0
  0
VERTEX
  8
Edge_Top
  10
1.4337
  20
0.5516
  42
0
  0
VERTEX
  8
Edge_Top
  10
1.4388
  20
0.5529
  42
0
  0
VERTEX
  8
Edge_Top
  10
1.4441
  20
0.5534
  42
0
  0
VERTEX
  8
Edge_Top
  10
1.4494
  20
0.553
  42
0
  0
VERTEX
  8
Edge_Top
  10
1.4546
  20
0.5518
  42
0
  0
VERTEX
  8
Edge_Top
  10
1.4596
  20
0.5498
  42
0
  0
VERTEX
  8
Edge_Top
  10
1.4641
  20
0.547
  42
0
  0
VERTEX
  8
Edge_Top
  10
1.4682
  20
0.5436
  42
0
  0
VERTEX
  8
Edge_Top
  10
1.4717
  20
0.5396
  42
0
  0
VERTEX
  8
Edge_Top
  10
1.4745
  20
0.535
  42
0
  0
VERTEX
  8
Edge_Top
  10
1.4766
  20
0.5301
  42
0
  0
VERTEX
  8
Edge_Top
  10
1.4779
  20
0.525
  42
0
  0
VERTEX
  8
Edge_Top
  10
1.4784
  20
0.5194
  42
0
  0
VERTEX
  8
Edge_Top
  10
1.4779
  20
0.514
  42
0
  0
SEQEND
  0
POLYLINE
  8
Edge_Top
  6
CONTINUOUS
  66
1
  70
0
  40
0.008
  41
0.008
  0
VERTEX
  8
Edge_Top
  10
2.6279
  20
2.014
  42
0
  0
VERTEX
  8
Edge_Top
  10
2.6267
  20
2.0089
  42
0
  0
VERTEX
  8
Edge_Top
  10
2.6247
  20
2.0039
  42
0
  0
VERTEX
  8
Edge_Top
  10
2.6219
  20
1.9994
  42
0
  0
VERTEX
  8
Edge_Top
  10
2.6184
  20
1.9953
  42
0
  0
VERTEX
  8
Edge_Top
  10
2.6144
  20
1.9919
  42
0
  0
VERTEX
  8
Edge_Top
  10
2.6098
  20
1.9891
  42
0
  0
VERTEX
  8
Edge_Top
  10
2.6049
  20
1.987
  42
0
  0
VERTEX
  8
Edge_Top
  10
2.5997
  20
1.9858
  42
0
  0
VERTEX
  8
Edge_Top
  10
2.5944
  20
1.9854
  42
0
  0
VERTEX
  8
Edge_Top
  10
2.5891
  20
1.9858
  42
0
  0
VERTEX
  8
Edge_Top
  10
2.5839
  20
1.987
  42
0
  0
VERTEX
  8
Edge_Top
  10
2.579
  20
1.989
  42
0
  0
VERTEX
  8
Edge_Top
  10
2.5745
  20
1.9918
  42
0
  0
VERTEX
  8
Edge_Top
  10
2.5704
  20
1.9952
  42
0
  0
VERTEX
  8
Edge_Top
  10
2.5669
  20
1.9993
  42
0
  0
VERTEX
  8
Edge_Top
  10
2.5641
  20
2.0038
  42
0
  0
VERTEX
  8
Edge_Top
  10
2.5621
  20
2.0087
  42
0
  0
VERTEX
  8
Edge_Top
  10
2.5608
  20
2.0139
  42
0
  0
VERTEX
  8
Edge_Top
  10
2.5604
  20
2.0192
  42
0
  0
VERTEX
  8
Edge_Top
  10
2.5608
  20
2.0245
  42
0
  0
VERTEX
  8
Edge_Top
  10
2.562
  20
2.0297
  42
0
  0
VERTEX
  8
Edge_Top
  10
2.564
  20
2.0346
  42
0
  0
VERTEX
  8
Edge_Top
  10
2.5667
  20
2.0392
  42
0
  0
VERTEX
  8
Edge_Top
  10
2.5702
  20
2.0433
  42
0
  0
VERTEX
  8
Edge_Top
  10
2.5742
  20
2.0468
  42
0
  0
VERTEX
  8
Edge_Top
  10
2.5787
  20
2.0496
  42
0
  0
VERTEX
  8
Edge_Top
  10
2.5837
  20
2.0516
  42
0
  0
VERTEX
  8
Edge_Top
  10
2.5888
  20
2.0529
  42
0
  0
VERTEX
  8
Edge_Top
  10
2.5941
  20
2.0534
  42
0
  0
VERTEX
  8
Edge_Top
  10
2.5994
  20
2.053
  42
0
  0
VERTEX
  8
Edge_Top
  10
2.6046
  20
2.0518
  42
0
  0
VERTEX
  8
Edge_Top
  10
2.6096
  20
2.0498
  42
0
  0
VERTEX
  8
Edge_Top
  10
2.6141
  20
2.047
  42
0
  0
VERTEX
  8
Edge_Top
  10
2.6182
  20
2.0436
  42
0
  0
VERTEX
  8
Edge_Top
  10
2.6217
  20
2.0396
  42
0
  0
VERTEX
  8
Edge_Top
  10
2.6245
  20
2.035
  42
0
  0
VERTEX
  8
Edge_Top
  10
2.6266
  20
2.0301
  42
0
  0
VERTEX
  8
Edge_Top
  10
2.6279
  20
2.025
  42
0
  0
VERTEX
  8
Edge_Top
  10
2.6284
  20
2.0194
  42
0
  0
VERTEX
  8
Edge_Top
  10
2.6279
  20
2.014
  42
0
  0
SEQEND
  0
POLYLINE
  8
Edge_Top
  6
CONTINUOUS
  66
1
  70
0
  40
0.008
  41
0.008
  0
VERTEX
  8
Edge_Top
  10
2.5657
  20
0.4034
  42
0
  0
VERTEX
  8
Edge_Top
  10
2.6284
  20
0.4034
  42
0
  0
VERTEX
  8
Edge_Top
  10
2.6284
  20
0.3354
  42
0
  0
VERTEX
  8
Edge_Top
  10
2.5604
  20
0.3354
  42
0
  0
VERTEX
  8
Edge_Top
  10
2.5604
  20
0.4034
  42
0
  0
VERTEX
  8
Edge_Top
  10
2.5657
  20
0.4034
  42
0
  0
SEQEND
  0
POLYLINE
  8
Edge_Top
  6
CONTINUOUS
  66
1
  70
0
  40
0.008
  41
0.008
  0
VERTEX
  8
Edge_Top
  10
1.983
  20
1.314
  42
0
  0
VERTEX
  8
Edge_Top
  10
1.9819
  20
1.3088
  42
0
  0
VERTEX
  8
Edge_Top
  10
1.9801
  20
1.3038
  42
0
  0
VERTEX
  8
Edge_Top
  10
1.9777
  20
1.2991
  42
0
  0
VERTEX
  8
Edge_Top
  10
1.9746
  20
1.2947
  42
0
  0
VERTEX
  8
Edge_Top
  10
1.9709
  20
1.2908
  42
0
  0
VERTEX
  8
Edge_Top
  10
1.9668
  20
1.2875
  42
0
  0
VERTEX
  8
Edge_Top
  10
1.9623
  20
1.2847
  42
0
  0
VERTEX
  8
Edge_Top
  10
1.9574
  20
1.2826
  42
0
  0
VERTEX
  8
Edge_Top
  10
1.9522
  20
1.2812
  42
0
  0
VERTEX
  8
Edge_Top
  10
1.9469
  20
1.2804
  42
0
  0
VERTEX
  8
Edge_Top
  10
1.9416
  20
1.2805
  42
0
  0
VERTEX
  8
Edge_Top
  10
1.9363
  20
1.2812
  42
0
  0
VERTEX
  8
Edge_Top
  10
1.9312
  20
1.2826
  42
0
  0
VERTEX
  8
Edge_Top
  10
1.9263
  20
1.2848
  42
0
  0
VERTEX
  8
Edge_Top
  10
1.9218
  20
1.2876
  42
0
  0
VERTEX
  8
Edge_Top
  10
1.9177
  20
1.2909
  42
0
  0
VERTEX
  8
Edge_Top
  10
1.914
  20
1.2948
  42
0
  0
VERTEX
  8
Edge_Top
  10
1.911
  20
1.2992
  42
0
  0
VERTEX
  8
Edge_Top
  10
1.9085
  20
1.3039
  42
0
  0
VERTEX
  8
Edge_Top
  10
1.9068
  20
1.309
  42
0
  0
VERTEX
  8
Edge_Top
  10
1.9057
  20
1.3142
  42
0
  0
VERTEX
  8
Edge_Top
  10
1.9054
  20
1.3195
  42
0
  0
VERTEX
  8
Edge_Top
  10
1.9057
  20
1.3248
  42
0
  0
VERTEX
  8
Edge_Top
  10
1.9068
  20
1.33
  42
0
  0
VERTEX
  8
Edge_Top
  10
1.9087
  20
1.335
  42
0
  0
VERTEX
  8
Edge_Top
  10
1.9111
  20
1.3398
  42
0
  0
VERTEX
  8
Edge_Top
  10
1.9142
  20
1.3441
  42
0
  0
VERTEX
  8
Edge_Top
  10
1.9179
  20
1.348
  42
0
  0
VERTEX
  8
Edge_Top
  10
1.922
  20
1.3513
  42
0
  0
VERTEX
  8
Edge_Top
  10
1.9266
  20
1.3541
  42
0
  0
VERTEX
  8
Edge_Top
  10
1.9315
  20
1.3562
  42
0
  0
VERTEX
  8
Edge_Top
  10
1.9366
  20
1.3576
  42
0
  0
VERTEX
  8
Edge_Top
  10
1.9419
  20
1.3583
  42
0
  0
VERTEX
  8
Edge_Top
  10
1.9472
  20
1.3583
  42
0
  0
VERTEX
  8
Edge_Top
  10
1.9525
  20
1.3575
  42
0
  0
VERTEX
  8
Edge_Top
  10
1.9576
  20
1.356
  42
0
  0
VERTEX
  8
Edge_Top
  10
1.9625
  20
1.3539
  42
0
  0
VERTEX
  8
Edge_Top
  10
1.967
  20
1.3511
  42
0
  0
VERTEX
  8
Edge_Top
  10
1.9712
  20
1.3477
  42
0
  0
VERTEX
  8
Edge_Top
  10
1.9748
  20
1.3438
  42
0
  0
VERTEX
  8
Edge_Top
  10
1.9778
  20
1.3394
  42
0
  0
VERTEX
  8
Edge_Top
  10
1.9802
  20
1.3346
  42
0
  0
VERTEX
  8
Edge_Top
  10
1.982
  20
1.3296
  42
0
  0
VERTEX
  8
Edge_Top
  10
1.983
  20
1.3244
  42
0
  0
VERTEX
  8
Edge_Top
  10
1.9834
  20
1.3194
  42
0
  0
VERTEX
  8
Edge_Top
  10
1.983
  20
1.314
  42
0
  0
SEQEND
  0
POLYLINE
  8
Edge_Top
  6
CONTINUOUS
  66
1
  70
0
  40
0.008
  41
0.008
  0
VERTEX
  8
Edge_Top
  10
1.9107
  20
1.1084
  42
0
  0
VERTEX
  8
Edge_Top
  10
1.9834
  20
1.1084
  42
0
  0
VERTEX
  8
Edge_Top
  10
1.9834
  20
1.0304
  42
0
  0
VERTEX
  8
Edge_Top
  10
1.9054
  20
1.0304
  42
0
  0
VERTEX
  8
Edge_Top
  10
1.9054
  20
1.1084
  42
0
  0
VERTEX
  8
Edge_Top
  10
1.9107
  20
1.1084
  42
0
  0
SEQEND
  0
POLYLINE
  8
Edge_Top
  6
CONTINUOUS
  66
1
  70
0
  40
0.008
  41
0.008
  0
VERTEX
  8
Edge_Top
  10
1.983
  20
0.664
  42
0
  0
VERTEX
  8
Edge_Top
  10
1.9819
  20
0.6588
  42
0
  0
VERTEX
  8
Edge_Top
  10
1.9801
  20
0.6538
  42
0
  0
VERTEX
  8
Edge_Top
  10
1.9777
  20
0.6491
  42
0
  0
VERTEX
  8
Edge_Top
  10
1.9746
  20
0.6447
  42
0
  0
VERTEX
  8
Edge_Top
  10
1.9709
  20
0.6408
  42
0
  0
VERTEX
  8
Edge_Top
  10
1.9668
  20
0.6375
  42
0
  0
VERTEX
  8
Edge_Top
  10
1.9623
  20
0.6347
  42
0
  0
VERTEX
  8
Edge_Top
  10
1.9574
  20
0.6326
  42
0
  0
VERTEX
  8
Edge_Top
  10
1.9522
  20
0.6312
  42
0
  0
VERTEX
  8
Edge_Top
  10
1.9469
  20
0.6304
  42
0
  0
VERTEX
  8
Edge_Top
  10
1.9416
  20
0.6305
  42
0
  0
VERTEX
  8
Edge_Top
  10
1.9363
  20
0.6312
  42
0
  0
VERTEX
  8
Edge_Top
  10
1.9312
  20
0.6326
  42
0
  0
VERTEX
  8
Edge_Top
  10
1.9263
  20
0.6348
  42
0
  0
VERTEX
  8
Edge_Top
  10
1.9218
  20
0.6376
  42
0
  0
VERTEX
  8
Edge_Top
  10
1.9177
  20
0.6409
  42
0
  0
VERTEX
  8
Edge_Top
  10
1.914
  20
0.6448
  42
0
  0
VERTEX
  8
Edge_Top
  10
1.911
  20
0.6492
  42
0
  0
VERTEX
  8
Edge_Top
  10
1.9085
  20
0.6539
  42
0
  0
VERTEX
  8
Edge_Top
  10
1.9068
  20
0.659
  42
0
  0
VERTEX
  8
Edge_Top
  10
1.9057
  20
0.6642
  42
0
  0
VERTEX
  8
Edge_Top
  10
1.9054
  20
0.6695
  42
0
  0
VERTEX
  8
Edge_Top
  10
1.9057
  20
0.6748
  42
0
  0
VERTEX
  8
Edge_Top
  10
1.9068
  20
0.68
  42
0
  0
VERTEX
  8
Edge_Top
  10
1.9087
  20
0.685
  42
0
  0
VERTEX
  8
Edge_Top
  10
1.9111
  20
0.6898
  42
0
  0
VERTEX
  8
Edge_Top
  10
1.9142
  20
0.6941
  42
0
  0
VERTEX
  8
Edge_Top
  10
1.9179
  20
0.698
  42
0
  0
VERTEX
  8
Edge_Top
  10
1.922
  20
0.7013
  42
0
  0
VERTEX
  8
Edge_Top
  10
1.9266
  20
0.7041
  42
0
  0
VERTEX
  8
Edge_Top
  10
1.9315
  20
0.7062
  42
0
  0
VERTEX
  8
Edge_Top
  10
1.9366
  20
0.7076
  42
0
  0
VERTEX
  8
Edge_Top
  10
1.9419
  20
0.7083
  42
0
  0
VERTEX
  8
Edge_Top
  10
1.9472
  20
0.7083
  42
0
  0
VERTEX
  8
Edge_Top
  10
1.9525
  20
0.7075
  42
0
  0
VERTEX
  8
Edge_Top
  10
1.9576
  20
0.706
  42
0
  0
VERTEX
  8
Edge_Top
  10
1.9625
  20
0.7039
  42
0
  0
VERTEX
  8
Edge_Top
  10
1.967
  20
0.7011
  42
0
  0
VERTEX
  8
Edge_Top
  10
1.9712
  20
0.6977
  42
0
  0
VERTEX
  8
Edge_Top
  10
1.9748
  20
0.6938
  42
0
  0
VERTEX
  8
Edge_Top
  10
1.9778
  20
0.6894
  42
0
  0
VERTEX
  8
Edge_Top
  10
1.9802
  20
0.6846
  42
0
  0
VERTEX
  8
Edge_Top
  10
1.982
  20
0.6796
  42
0
  0
VERTEX
  8
Edge_Top
  10
1.983
  20
0.6744
  42
0
  0
VERTEX
  8
Edge_Top
  10
1.9834
  20
0.6694
  42
0
  0
VERTEX
  8
Edge_Top
  10
1.983
  20
0.664
  42
0
  0
SEQEND
  0
POLYLINE
  8
Edge_Top
  6
CONTINUOUS
  66
1
  70
0
  40
0.008
  41
0.008
  0
VERTEX
  8
Edge_Top
  10
1.8229
  20
1.1141
  42
0
  0
VERTEX
  8
Edge_Top
  10
1.8214
  20
1.1089
  42
0
  0
VERTEX
  8
Edge_Top
  10
1.8191
  20
1.1042
  42
0
  0
VERTEX
  8
Edge_Top
  10
1.8159
  20
1.0999
  42
0
  0
VERTEX
  8
Edge_Top
  10
1.8119
  20
1.0963
  42
0
  0
VERTEX
  8
Edge_Top
  10
1.8074
  20
1.0935
  42
0
  0
VERTEX
  8
Edge_Top
  10
1.8025
  20
1.0915
  42
0
  0
VERTEX
  8
Edge_Top
  10
1.7972
  20
1.0905
  42
0
  0
VERTEX
  8
Edge_Top
  10
1.7919
  20
1.0905
  42
0
  0
VERTEX
  8
Edge_Top
  10
1.7867
  20
1.0914
  42
0
  0
VERTEX
  8
Edge_Top
  10
1.7817
  20
1.0933
  42
0
  0
VERTEX
  8
Edge_Top
  10
1.7771
  20
1.096
  42
0
  0
VERTEX
  8
Edge_Top
  10
1.7732
  20
1.0996
  42
0
  0
VERTEX
  8
Edge_Top
  10
1.7699
  20
1.1038
  42
0
  0
VERTEX
  8
Edge_Top
  10
1.7675
  20
1.1085
  42
0
  0
VERTEX
  8
Edge_Top
  10
1.7659
  20
1.1136
  42
0
  0
VERTEX
  8
Edge_Top
  10
1.7654
  20
1.1189
  42
0
  0
VERTEX
  8
Edge_Top
  10
1.7658
  20
1.1242
  42
0
  0
VERTEX
  8
Edge_Top
  10
1.7671
  20
1.1294
  42
0
  0
VERTEX
  8
Edge_Top
  10
1.7694
  20
1.1342
  42
0
  0
VERTEX
  8
Edge_Top
  10
1.7726
  20
1.1385
  42
0
  0
VERTEX
  8
Edge_Top
  10
1.7764
  20
1.1422
  42
0
  0
VERTEX
  8
Edge_Top
  10
1.7809
  20
1.145
  42
0
  0
VERTEX
  8
Edge_Top
  10
1.7858
  20
1.1471
  42
0
  0
VERTEX
  8
Edge_Top
  10
1.791
  20
1.1482
  42
0
  0
VERTEX
  8
Edge_Top
  10
1.7964
  20
1.1483
  42
0
  0
VERTEX
  8
Edge_Top
  10
1.8016
  20
1.1474
  42
0
  0
VERTEX
  8
Edge_Top
  10
1.8066
  20
1.1456
  42
0
  0
VERTEX
  8
Edge_Top
  10
1.8112
  20
1.1429
  42
0
  0
VERTEX
  8
Edge_Top
  10
1.8153
  20
1.1395
  42
0
  0
VERTEX
  8
Edge_Top
  10
1.8186
  20
1.1353
  42
0
  0
VERTEX
  8
Edge_Top
  10
1.8211
  20
1.1306
  42
0
  0
VERTEX
  8
Edge_Top
  10
1.8227
  20
1.1255
  42
0
  0
VERTEX
  8
Edge_Top
  10
1.8234
  20
1.1194
  42
0
  0
VERTEX
  8
Edge_Top
  10
1.8229
  20
1.1141
  42
0
  0
SEQEND
  0
POLYLINE
  8
Edge_Top
  6
CONTINUOUS
  66
1
  70
0
  40
0.008
  41
0.008
  0
VERTEX
  8
Edge_Top
  10
1.4707
  20
1.1484
  42
0
  0
VERTEX
  8
Edge_Top
  10
1.5234
  20
1.1484
  42
0
  0
VERTEX
  8
Edge_Top
  10
1.5234
  20
1.0904
  42
0
  0
VERTEX
  8
Edge_Top
  10
1.4654
  20
1.0904
  42
0
  0
VERTEX
  8
Edge_Top
  10
1.4654
  20
1.1484
  42
0
  0
VERTEX
  8
Edge_Top
  10
1.4707
  20
1.1484
  42
0
  0
SEQEND
  0
POLYLINE
  8
Edge_Top
  6
CONTINUOUS
  66
1
  70
0
  40
0.008
  41
0.008
  0
VERTEX
  8
Edge_Top
  10
1.5229
  20
1.2641
  42
0
  0
VERTEX
  8
Edge_Top
  10
1.5214
  20
1.2589
  42
0
  0
VERTEX
  8
Edge_Top
  10
1.5191
  20
1.2542
  42
0
  0
VERTEX
  8
Edge_Top
  10
1.5159
  20
1.2499
  42
0
  0
VERTEX
  8
Edge_Top
  10
1.5119
  20
1.2463
  42
0
  0
VERTEX
  8
Edge_Top
  10
1.5074
  20
1.2435
  42
0
  0
VERTEX
  8
Edge_Top
  10
1.5025
  20
1.2415
  42
0
  0
VERTEX
  8
Edge_Top
  10
1.4972
  20
1.2405
  42
0
  0
VERTEX
  8
Edge_Top
  10
1.4919
  20
1.2405
  42
0
  0
VERTEX
  8
Edge_Top
  10
1.4867
  20
1.2414
  42
0
  0
VERTEX
  8
Edge_Top
  10
1.4817
  20
1.2433
  42
0
  0
VERTEX
  8
Edge_Top
  10
1.4771
  20
1.246
  42
0
  0
VERTEX
  8
Edge_Top
  10
1.4732
  20
1.2496
  42
0
  0
VERTEX
  8
Edge_Top
  10
1.4699
  20
1.2538
  42
0
  0
VERTEX
  8
Edge_Top
  10
1.4675
  20
1.2585
  42
0
  0
VERTEX
  8
Edge_Top
  10
1.4659
  20
1.2636
  42
0
  0
VERTEX
  8
Edge_Top
  10
1.4654
  20
1.2689
  42
0
  0
VERTEX
  8
Edge_Top
  10
1.4658
  20
1.2742
  42
0
  0
VERTEX
  8
Edge_Top
  10
1.4671
  20
1.2794
  42
0
  0
VERTEX
  8
Edge_Top
  10
1.4694
  20
1.2842
  42
0
  0
VERTEX
  8
Edge_Top
  10
1.4726
  20
1.2885
  42
0
  0
VERTEX
  8
Edge_Top
  10
1.4764
  20
1.2922
  42
0
  0
VERTEX
  8
Edge_Top
  10
1.4809
  20
1.295
  42
0
  0
VERTEX
  8
Edge_Top
  10
1.4858
  20
1.2971
  42
0
  0
VERTEX
  8
Edge_Top
  10
1.491
  20
1.2982
  42
0
  0
VERTEX
  8
Edge_Top
  10
1.4964
  20
1.2983
  42
0
  0
VERTEX
  8
Edge_Top
  10
1.5016
  20
1.2974
  42
0
  0
VERTEX
  8
Edge_Top
  10
1.5066
  20
1.2956
  42
0
  0
VERTEX
  8
Edge_Top
  10
1.5112
  20
1.2929
  42
0
  0
VERTEX
  8
Edge_Top
  10
1.5153
  20
1.2895
  42
0
  0
VERTEX
  8
Edge_Top
  10
1.5186
  20
1.2853
  42
0
  0
VERTEX
  8
Edge_Top
  10
1.5211
  20
1.2806
  42
0
  0
VERTEX
  8
Edge_Top
  10
1.5227
  20
1.2755
  42
0
  0
VERTEX
  8
Edge_Top
  10
1.5234
  20
1.2694
  42
0
  0
VERTEX
  8
Edge_Top
  10
1.5229
  20
1.2641
  42
0
  0
SEQEND
  0
POLYLINE
  8
Edge_Top
  6
CONTINUOUS
  66
1
  70
0
  40
0.008
  41
0.008
  0
VERTEX
  8
Edge_Top
  10
1.7895
  20
1.2984
  42
0
  0
VERTEX
  8
Edge_Top
  10
1.8234
  20
1.2984
  42
0
  0
VERTEX
  8
Edge_Top
  10
1.8234
  20
1.2645
  42
0
  0
VERTEX
  8
Edge_Top
  10
1.9003
  20
1.1875
  42
0
  0
VERTEX
  8
Edge_Top
  10
1.984
  20
1.1873
  42
0
  0
VERTEX
  8
Edge_Top
  10
2.3434
  20
1.1873
  42
0
  0
VERTEX
  8
Edge_Top
  10
2.3486
  20
1.1865
  42
0
  0
VERTEX
  8
Edge_Top
  10
2.3535
  20
1.184
  42
0
  0
VERTEX
  8
Edge_Top
  10
2.3629
  20
1.1748
  42
0
  0
VERTEX
  8
Edge_Top
  10
2.4345
  20
1.1033
  42
0
  0
VERTEX
  8
Edge_Top
  10
2.4784
  20
1.1034
  42
0
  0
VERTEX
  8
Edge_Top
  10
2.4784
  20
1.0354
  42
0
  0
VERTEX
  8
Edge_Top
  10
2.4104
  20
1.0354
  42
0
  0
VERTEX
  8
Edge_Top
  10
2.4104
  20
1.0792
  42
0
  0
VERTEX
  8
Edge_Top
  10
2.3569
  20
1.1328
  42
0
  0
VERTEX
  8
Edge_Top
  10
2.3363
  20
1.1534
  42
0
  0
VERTEX
  8
Edge_Top
  10
1.8934
  20
1.1533
  42
0
  0
VERTEX
  8
Edge_Top
  10
1.8881
  20
1.1542
  42
0
  0
VERTEX
  8
Edge_Top
  10
1.8833
  20
1.1567
  42
0
  0
VERTEX
  8
Edge_Top
  10
1.8738
  20
1.1659
  42
0
  0
VERTEX
  8
Edge_Top
  10
1.7992
  20
1.2405
  42
0
  0
VERTEX
  8
Edge_Top
  10
1.7654
  20
1.2404
  42
0
  0
VERTEX
  8
Edge_Top
  10
1.7654
  20
1.2742
  42
0
  0
VERTEX
  8
Edge_Top
  10
1.7363
  20
1.3034
  42
0
  0
VERTEX
  8
Edge_Top
  10
1.3967
  20
1.3033
  42
0
  0
VERTEX
  8
Edge_Top
  10
1.2525
  20
1.3033
  42
0
  0
VERTEX
  8
Edge_Top
  10
1.1895
  20
1.2404
  42
0
  0
VERTEX
  8
Edge_Top
  10
1.1771
  20
1.2281
  42
0
  0
VERTEX
  8
Edge_Top
  10
1.1779
  20
1.225
  42
0
  0
VERTEX
  8
Edge_Top
  10
1.1784
  20
1.2194
  42
0
  0
VERTEX
  8
Edge_Top
  10
1.1779
  20
1.214
  42
0
  0
VERTEX
  8
Edge_Top
  10
1.1767
  20
1.2089
  42
0
  0
VERTEX
  8
Edge_Top
  10
1.1747
  20
1.2039
  42
0
  0
VERTEX
  8
Edge_Top
  10
1.1719
  20
1.1994
  42
0
  0
VERTEX
  8
Edge_Top
  10
1.1684
  20
1.1953
  42
0
  0
VERTEX
  8
Edge_Top
  10
1.1644
  20
1.1919
  42
0
  0
VERTEX
  8
Edge_Top
  10
1.1598
  20
1.1891
  42
0
  0
VERTEX
  8
Edge_Top
  10
1.1549
  20
1.187
  42
0
  0
VERTEX
  8
Edge_Top
  10
1.1497
  20
1.1858
  42
0
  0
VERTEX
  8
Edge_Top
  10
1.1444
  20
1.1854
  42
0
  0
VERTEX
  8
Edge_Top
  10
1.1391
  20
1.1858
  42
0
  0
VERTEX
  8
Edge_Top
  10
1.1339
  20
1.187
  42
0
  0
VERTEX
  8
Edge_Top
  10
1.129
  20
1.189
  42
0
  0
VERTEX
  8
Edge_Top
  10
1.1245
  20
1.1918
  42
0
  0
VERTEX
  8
Edge_Top
  10
1.1204
  20
1.1952
  42
0
  0
VERTEX
  8
Edge_Top
  10
1.1169
  20
1.1993
  42
0
  0
VERTEX
  8
Edge_Top
  10
1.1141
  20
1.2038
  42
0
  0
VERTEX
  8
Edge_Top
  10
1.1121
  20
1.2087
  42
0
  0
VERTEX
  8
Edge_Top
  10
1.1108
  20
1.2139
  42
0
  0
VERTEX
  8
Edge_Top
  10
1.1104
  20
1.2192
  42
0
  0
VERTEX
  8
Edge_Top
  10
1.1108
  20
1.2245
  42
0
  0
VERTEX
  8
Edge_Top
  10
1.1116
  20
1.2283
  42
0
  0
VERTEX
  8
Edge_Top
  10
1.0909
  20
1.2488
  42
0
  0
VERTEX
  8
Edge_Top
  10
1.0363
  20
1.3034
  42
0
  0
VERTEX
  8
Edge_Top
  10
0.6934
  20
1.3033
  42
0
  0
VERTEX
  8
Edge_Top
  10
0.6881
  20
1.3042
  42
0
  0
VERTEX
  8
Edge_Top
  10
0.6833
  20
1.3067
  42
0
  0
VERTEX
  8
Edge_Top
  10
0.6738
  20
1.3159
  42
0
  0
VERTEX
  8
Edge_Top
  10
0.5528
  20
1.4369
  42
0
  0
VERTEX
  8
Edge_Top
  10
0.549
  20
1.4362
  42
0
  0
VERTEX
  8
Edge_Top
  10
0.5437
  20
1.4358
  42
0
  0
VERTEX
  8
Edge_Top
  10
0.5384
  20
1.4364
  42
0
  0
VERTEX
  8
Edge_Top
  10
0.5332
  20
1.4377
  42
0
  0
VERTEX
  8
Edge_Top
  10
0.5284
  20
1.4399
  42
0
  0
VERTEX
  8
Edge_Top
  10
0.5239
  20
1.4428
  42
0
  0
VERTEX
  8
Edge_Top
  10
0.52
  20
1.4464
  42
0
  0
VERTEX
  8
Edge_Top
  10
0.5166
  20
1.4505
  42
0
  0
VERTEX
  8
Edge_Top
  10
0.514
  20
1.4552
  42
0
  0
VERTEX
  8
Edge_Top
  10
0.5121
  20
1.4601
  42
0
  0
VERTEX
  8
Edge_Top
  10
0.5111
  20
1.4654
  42
0
  0
VERTEX
  8
Edge_Top
  10
0.5109
  20
1.4707
  42
0
  0
VERTEX
  8
Edge_Top
  10
0.5115
  20
1.476
  42
0
  0
VERTEX
  8
Edge_Top
  10
0.513
  20
1.4811
  42
0
  0
VERTEX
  8
Edge_Top
  10
0.5152
  20
1.4859
  42
0
  0
VERTEX
  8
Edge_Top
  10
0.5182
  20
1.4903
  42
0
  0
VERTEX
  8
Edge_Top
  10
0.5219
  20
1.4942
  42
0
  0
VERTEX
  8
Edge_Top
  10
0.5261
  20
1.4975
  42
0
  0
VERTEX
  8
Edge_Top
  10
0.5308
  20
1.5
  42
0
  0
VERTEX
  8
Edge_Top
  10
0.5358
  20
1.5018
  42
0
  0
VERTEX
  8
Edge_Top
  10
0.541
  20
1.5027
  42
0
  0
VERTEX
  8
Edge_Top
  10
0.5464
  20
1.5028
  42
0
  0
VERTEX
  8
Edge_Top
  10
0.5516
  20
1.5021
  42
0
  0
VERTEX
  8
Edge_Top
  10
0.5567
  20
1.5005
  42
0
  0
VERTEX
  8
Edge_Top
  10
0.5615
  20
1.4982
  42
0
  0
VERTEX
  8
Edge_Top
  10
0.5659
  20
1.4951
  42
0
  0
VERTEX
  8
Edge_Top
  10
0.5697
  20
1.4914
  42
0
  0
VERTEX
  8
Edge_Top
  10
0.5728
  20
1.4871
  42
0
  0
VERTEX
  8
Edge_Top
  10
0.5753
  20
1.4823
  42
0
  0
VERTEX
  8
Edge_Top
  10
0.5769
  20
1.4773
  42
0
  0
VERTEX
  8
Edge_Top
  10
0.5779
  20
1.4694
  42
0
  0
VERTEX
  8
Edge_Top
  10
0.5775
  20
1.464
  42
0
  0
VERTEX
  8
Edge_Top
  10
0.5767
  20
1.461
  42
0
  0
VERTEX
  8
Edge_Top
  10
0.7005
  20
1.3372
  42
0
  0
VERTEX
  8
Edge_Top
  10
0.7787
  20
1.3373
  42
0
  0
VERTEX
  8
Edge_Top
  10
1.0434
  20
1.3373
  42
0
  0
VERTEX
  8
Edge_Top
  10
1.0486
  20
1.3365
  42
0
  0
VERTEX
  8
Edge_Top
  10
1.0535
  20
1.334
  42
0
  0
VERTEX
  8
Edge_Top
  10
1.0629
  20
1.3248
  42
0
  0
VERTEX
  8
Edge_Top
  10
1.1356
  20
1.2521
  42
0
  0
VERTEX
  8
Edge_Top
  10
1.1388
  20
1.2529
  42
0
  0
VERTEX
  8
Edge_Top
  10
1.1441
  20
1.2534
  42
0
  0
VERTEX
  8
Edge_Top
  10
1.1494
  20
1.253
  42
0
  0
VERTEX
  8
Edge_Top
  10
1.1532
  20
1.2521
  42
0
  0
VERTEX
  8
Edge_Top
  10
1.2333
  20
1.3324
  42
0
  0
VERTEX
  8
Edge_Top
  10
1.2376
  20
1.3355
  42
0
  0
VERTEX
  8
Edge_Top
  10
1.2428
  20
1.3371
  42
0
  0
VERTEX
  8
Edge_Top
  10
1.256
  20
1.3373
  42
0
  0
VERTEX
  8
Edge_Top
  10
1.7434
  20
1.3373
  42
0
  0
VERTEX
  8
Edge_Top
  10
1.7486
  20
1.3365
  42
0
  0
VERTEX
  8
Edge_Top
  10
1.7535
  20
1.334
  42
0
  0
VERTEX
  8
Edge_Top
  10
1.7629
  20
1.3248
  42
0
  0
VERTEX
  8
Edge_Top
  10
1.7894
  20
1.2983
  42
0
  0
VERTEX
  8
Edge_Top
  10
1.7895
  20
1.2984
  42
0
  0
SEQEND
  0
POLYLINE
  8
Edge_Top
  6
CONTINUOUS
  66
1
  70
0
  40
0.008
  41
0.008
  0
VERTEX
  8
Edge_Top
  10
1.6207
  20
1.8484
  42
0
  0
VERTEX
  8
Edge_Top
  10
1.6734
  20
1.8484
  42
0
  0
VERTEX
  8
Edge_Top
  10
1.6734
  20
1.7904
  42
0
  0
VERTEX
  8
Edge_Top
  10
1.6154
  20
1.7904
  42
0
  0
VERTEX
  8
Edge_Top
  10
1.6154
  20
1.8484
  42
0
  0
VERTEX
  8
Edge_Top
  10
1.6207
  20
1.8484
  42
0
  0
SEQEND
  0
POLYLINE
  8
Edge_Top
  6
CONTINUOUS
  66
1
  70
0
  40
0.008
  41
0.008
  0
VERTEX
  8
Edge_Top
  10
2.4157
  20
1.4034
  42
0
  0
VERTEX
  8
Edge_Top
  10
2.4784
  20
1.4034
  42
0
  0
VERTEX
  8
Edge_Top
  10
2.4784
  20
1.3354
  42
0
  0
VERTEX
  8
Edge_Top
  10
2.4104
  20
1.3354
  42
0
  0
VERTEX
  8
Edge_Top
  10
2.4104
  20
1.4034
  42
0
  0
VERTEX
  8
Edge_Top
  10
2.4157
  20
1.4034
  42
0
  0
SEQEND
  0
POLYLINE
  8
Edge_Top
  6
CONTINUOUS
  66
1
  70
0
  40
0.008
  41
0.008
  0
VERTEX
  8
Edge_Top
  10
1.1157
  20
1.4534
  42
0
  0
VERTEX
  8
Edge_Top
  10
1.1784
  20
1.4534
  42
0
  0
VERTEX
  8
Edge_Top
  10
1.1784
  20
1.3854
  42
0
  0
VERTEX
  8
Edge_Top
  10
1.1104
  20
1.3854
  42
0
  0
VERTEX
  8
Edge_Top
  10
1.1104
  20
1.4534
  42
0
  0
VERTEX
  8
Edge_Top
  10
1.1157
  20
1.4534
  42
0
  0
SEQEND
  0
POLYLINE
  8
Edge_Top
  6
CONTINUOUS
  66
1
  70
0
  40
0.008
  41
0.008
  0
VERTEX
  8
Edge_Top
  10
1.1779
  20
0.864
  42
0
  0
VERTEX
  8
Edge_Top
  10
1.1767
  20
0.8589
  42
0
  0
VERTEX
  8
Edge_Top
  10
1.1747
  20
0.8539
  42
0
  0
VERTEX
  8
Edge_Top
  10
1.1719
  20
0.8494
  42
0
  0
VERTEX
  8
Edge_Top
  10
1.1684
  20
0.8453
  42
0
  0
VERTEX
  8
Edge_Top
  10
1.1644
  20
0.8419
  42
0
  0
VERTEX
  8
Edge_Top
  10
1.1598
  20
0.8391
  42
0
  0
VERTEX
  8
Edge_Top
  10
1.1549
  20
0.837
  42
0
  0
VERTEX
  8
Edge_Top
  10
1.1497
  20
0.8358
  42
0
  0
VERTEX
  8
Edge_Top
  10
1.1444
  20
0.8354
  42
0
  0
VERTEX
  8
Edge_Top
  10
1.1391
  20
0.8358
  42
0
  0
VERTEX
  8
Edge_Top
  10
1.1339
  20
0.837
  42
0
  0
VERTEX
  8
Edge_Top
  10
1.129
  20
0.839
  42
0
  0
VERTEX
  8
Edge_Top
  10
1.1245
  20
0.8418
  42
0
  0
VERTEX
  8
Edge_Top
  10
1.1204
  20
0.8452
  42
0
  0
VERTEX
  8
Edge_Top
  10
1.1169
  20
0.8493
  42
0
  0
VERTEX
  8
Edge_Top
  10
1.1141
  20
0.8538
  42
0
  0
VERTEX
  8
Edge_Top
  10
1.1121
  20
0.8587
  42
0
  0
VERTEX
  8
Edge_Top
  10
1.1108
  20
0.8639
  42
0
  0
VERTEX
  8
Edge_Top
  10
1.1104
  20
0.8692
  42
0
  0
VERTEX
  8
Edge_Top
  10
1.1108
  20
0.8745
  42
0
  0
VERTEX
  8
Edge_Top
  10
1.112
  20
0.8797
  42
0
  0
VERTEX
  8
Edge_Top
  10
1.114
  20
0.8846
  42
0
  0
VERTEX
  8
Edge_Top
  10
1.1167
  20
0.8892
  42
0
  0
VERTEX
  8
Edge_Top
  10
1.1202
  20
0.8933
  42
0
  0
VERTEX
  8
Edge_Top
  10
1.1242
  20
0.8968
  42
0
  0
VERTEX
  8
Edge_Top
  10
1.1287
  20
0.8996
  42
0
  0
VERTEX
  8
Edge_Top
  10
1.1337
  20
0.9016
  42
0
  0
VERTEX
  8
Edge_Top
  10
1.1388
  20
0.9029
  42
0
  0
VERTEX
  8
Edge_Top
  10
1.1441
  20
0.9034
  42
0
  0
VERTEX
  8
Edge_Top
  10
1.1494
  20
0.903
  42
0
  0
VERTEX
  8
Edge_Top
  10
1.1546
  20
0.9018
  42
0
  0
VERTEX
  8
Edge_Top
  10
1.1596
  20
0.8998
  42
0
  0
VERTEX
  8
Edge_Top
  10
1.1641
  20
0.897
  42
0
  0
VERTEX
  8
Edge_Top
  10
1.1682
  20
0.8936
  42
0
  0
VERTEX
  8
Edge_Top
  10
1.1717
  20
0.8896
  42
0
  0
VERTEX
  8
Edge_Top
  10
1.1745
  20
0.885
  42
0
  0
VERTEX
  8
Edge_Top
  10
1.1766
  20
0.8801
  42
0
  0
VERTEX
  8
Edge_Top
  10
1.1779
  20
0.875
  42
0
  0
VERTEX
  8
Edge_Top
  10
1.1784
  20
0.8694
  42
0
  0
VERTEX
  8
Edge_Top
  10
1.1779
  20
0.864
  42
0
  0
SEQEND
  0
POLYLINE
  8
Edge_Top
  6
CONTINUOUS
  66
1
  70
0
  40
0.008
  41
0.008
  0
VERTEX
  8
Edge_Top
  10
1.1157
  20
1.1034
  42
0
  0
VERTEX
  8
Edge_Top
  10
1.1784
  20
1.1034
  42
0
  0
VERTEX
  8
Edge_Top
  10
1.1784
  20
1.0354
  42
0
  0
VERTEX
  8
Edge_Top
  10
1.1104
  20
1.0354
  42
0
  0
VERTEX
  8
Edge_Top
  10
1.1104
  20
1.1034
  42
0
  0
VERTEX
  8
Edge_Top
  10
1.1157
  20
1.1034
  42
0
  0
SEQEND
  0
POLYLINE
  8
Edge_Top
  6
CONTINUOUS
  66
1
  70
0
  40
0.008
  41
0.008
  0
VERTEX
  8
Edge_Top
  10
0.2657
  20
1.2034
  42
0
  0
VERTEX
  8
Edge_Top
  10
0.3284
  20
1.2034
  42
0
  0
VERTEX
  8
Edge_Top
  10
0.3284
  20
1.1354
  42
0
  0
VERTEX
  8
Edge_Top
  10
0.2604
  20
1.1354
  42
0
  0
VERTEX
  8
Edge_Top
  10
0.2604
  20
1.2034
  42
0
  0
VERTEX
  8
Edge_Top
  10
0.2657
  20
1.2034
  42
0
  0
SEQEND
  0
POLYLINE
  8
Edge_Top
  6
CONTINUOUS
  66
1
  70
0
  40
0.008
  41
0.008
  0
VERTEX
  8
Edge_Top
  10
1.3779
  20
0.714
  42
0
  0
VERTEX
  8
Edge_Top
  10
1.3767
  20
0.7089
  42
0
  0
VERTEX
  8
Edge_Top
  10
1.3747
  20
0.7039
  42
0
  0
VERTEX
  8
Edge_Top
  10
1.3719
  20
0.6994
  42
0
  0
VERTEX
  8
Edge_Top
  10
1.3684
  20
0.6953
  42
0
  0
VERTEX
  8
Edge_Top
  10
1.3644
  20
0.6919
  42
0
  0
VERTEX
  8
Edge_Top
  10
1.3598
  20
0.6891
  42
0
  0
VERTEX
  8
Edge_Top
  10
1.3549
  20
0.687
  42
0
  0
VERTEX
  8
Edge_Top
  10
1.3497
  20
0.6858
  42
0
  0
VERTEX
  8
Edge_Top
  10
1.3444
  20
0.6854
  42
0
  0
VERTEX
  8
Edge_Top
  10
1.3391
  20
0.6858
  42
0
  0
VERTEX
  8
Edge_Top
  10
1.3339
  20
0.687
  42
0
  0
VERTEX
  8
Edge_Top
  10
1.329
  20
0.689
  42
0
  0
VERTEX
  8
Edge_Top
  10
1.3245
  20
0.6918
  42
0
  0
VERTEX
  8
Edge_Top
  10
1.3204
  20
0.6952
  42
0
  0
VERTEX
  8
Edge_Top
  10
1.3169
  20
0.6993
  42
0
  0
VERTEX
  8
Edge_Top
  10
1.3141
  20
0.7038
  42
0
  0
VERTEX
  8
Edge_Top
  10
1.3121
  20
0.7087
  42
0
  0
VERTEX
  8
Edge_Top
  10
1.3108
  20
0.7139
  42
0
  0
VERTEX
  8
Edge_Top
  10
1.3104
  20
0.7192
  42
0
  0
VERTEX
  8
Edge_Top
  10
1.3108
  20
0.7245
  42
0
  0
VERTEX
  8
Edge_Top
  10
1.312
  20
0.7297
  42
0
  0
VERTEX
  8
Edge_Top
  10
1.314
  20
0.7346
  42
0
  0
VERTEX
  8
Edge_Top
  10
1.3167
  20
0.7392
  42
0
  0
VERTEX
  8
Edge_Top
  10
1.3202
  20
0.7433
  42
0
  0
VERTEX
  8
Edge_Top
  10
1.3242
  20
0.7468
  42
0
  0
VERTEX
  8
Edge_Top
  10
1.3287
  20
0.7496
  42
0
  0
VERTEX
  8
Edge_Top
  10
1.3337
  20
0.7516
  42
0
  0
VERTEX
  8
Edge_Top
  10
1.3388
  20
0.7529
  42
0
  0
VERTEX
  8
Edge_Top
  10
1.3441
  20
0.7534
  42
0
  0
VERTEX
  8
Edge_Top
  10
1.3494
  20
0.753
  42
0
  0
VERTEX
  8
Edge_Top
  10
1.3546
  20
0.7518
  42
0
  0
VERTEX
  8
Edge_Top
  10
1.3596
  20
0.7498
  42
0
  0
VERTEX
  8
Edge_Top
  10
1.3641
  20
0.747
  42
0
  0
VERTEX
  8
Edge_Top
  10
1.3682
  20
0.7436
  42
0
  0
VERTEX
  8
Edge_Top
  10
1.3717
  20
0.7396
  42
0
  0
VERTEX
  8
Edge_Top
  10
1.3745
  20
0.735
  42
0
  0
VERTEX
  8
Edge_Top
  10
1.3766
  20
0.7301
  42
0
  0
VERTEX
  8
Edge_Top
  10
1.3779
  20
0.725
  42
0
  0
VERTEX
  8
Edge_Top
  10
1.3784
  20
0.7194
  42
0
  0
VERTEX
  8
Edge_Top
  10
1.3779
  20
0.714
  42
0
  0
SEQEND
  0
POLYLINE
  8
Edge_Top
  6
CONTINUOUS
  66
1
  70
0
  40
0.008
  41
0.008
  0
VERTEX
  8
Edge_Top
  10
0.5162
  20
1.4029
  42
0
  0
VERTEX
  8
Edge_Top
  10
0.5779
  20
1.4029
  42
0
  0
VERTEX
  8
Edge_Top
  10
0.5779
  20
1.3358
  42
0
  0
VERTEX
  8
Edge_Top
  10
0.5108
  20
1.3358
  42
0
  0
VERTEX
  8
Edge_Top
  10
0.5108
  20
1.4029
  42
0
  0
VERTEX
  8
Edge_Top
  10
0.5162
  20
1.4029
  42
0
  0
SEQEND
  0
POLYLINE
  8
Edge_Top
  6
CONTINUOUS
  66
1
  70
0
  40
0.008
  41
0.008
  0
VERTEX
  8
Edge_Top
  10
0.5775
  20
1.564
  42
0
  0
VERTEX
  8
Edge_Top
  10
0.5762
  20
1.5589
  42
0
  0
VERTEX
  8
Edge_Top
  10
0.5741
  20
1.554
  42
0
  0
VERTEX
  8
Edge_Top
  10
0.5713
  20
1.5494
  42
0
  0
VERTEX
  8
Edge_Top
  10
0.5678
  20
1.5454
  42
0
  0
VERTEX
  8
Edge_Top
  10
0.5637
  20
1.542
  42
0
  0
VERTEX
  8
Edge_Top
  10
0.5592
  20
1.5393
  42
0
  0
VERTEX
  8
Edge_Top
  10
0.5542
  20
1.5373
  42
0
  0
VERTEX
  8
Edge_Top
  10
0.549
  20
1.5362
  42
0
  0
VERTEX
  8
Edge_Top
  10
0.5437
  20
1.5358
  42
0
  0
VERTEX
  8
Edge_Top
  10
0.5384
  20
1.5364
  42
0
  0
VERTEX
  8
Edge_Top
  10
0.5332
  20
1.5377
  42
0
  0
VERTEX
  8
Edge_Top
  10
0.5284
  20
1.5399
  42
0
  0
VERTEX
  8
Edge_Top
  10
0.5239
  20
1.5428
  42
0
  0
VERTEX
  8
Edge_Top
  10
0.52
  20
1.5464
  42
0
  0
VERTEX
  8
Edge_Top
  10
0.5166
  20
1.5505
  42
0
  0
VERTEX
  8
Edge_Top
  10
0.514
  20
1.5552
  42
0
  0
VERTEX
  8
Edge_Top
  10
0.5121
  20
1.5601
  42
0
  0
VERTEX
  8
Edge_Top
  10
0.5111
  20
1.5654
  42
0
  0
VERTEX
  8
Edge_Top
  10
0.5109
  20
1.5707
  42
0
  0
VERTEX
  8
Edge_Top
  10
0.5115
  20
1.576
  42
0
  0
VERTEX
  8
Edge_Top
  10
0.513
  20
1.5811
  42
0
  0
VERTEX
  8
Edge_Top
  10
0.5152
  20
1.5859
  42
0
  0
VERTEX
  8
Edge_Top
  10
0.5182
  20
1.5903
  42
0
  0
VERTEX
  8
Edge_Top
  10
0.5219
  20
1.5942
  42
0
  0
VERTEX
  8
Edge_Top
  10
0.5261
  20
1.5975
  42
0
  0
VERTEX
  8
Edge_Top
  10
0.5308
  20
1.6
  42
0
  0
VERTEX
  8
Edge_Top
  10
0.5358
  20
1.6018
  42
0
  0
VERTEX
  8
Edge_Top
  10
0.541
  20
1.6027
  42
0
  0
VERTEX
  8
Edge_Top
  10
0.5464
  20
1.6028
  42
0
  0
VERTEX
  8
Edge_Top
  10
0.5516
  20
1.6021
  42
0
  0
VERTEX
  8
Edge_Top
  10
0.5567
  20
1.6005
  42
0
  0
VERTEX
  8
Edge_Top
  10
0.5615
  20
1.5982
  42
0
  0
VERTEX
  8
Edge_Top
  10
0.5659
  20
1.5951
  42
0
  0
VERTEX
  8
Edge_Top
  10
0.5697
  20
1.5914
  42
0
  0
VERTEX
  8
Edge_Top
  10
0.5728
  20
1.5871
  42
0
  0
VERTEX
  8
Edge_Top
  10
0.5753
  20
1.5823
  42
0
  0
VERTEX
  8
Edge_Top
  10
0.5769
  20
1.5773
  42
0
  0
VERTEX
  8
Edge_Top
  10
0.5779
  20
1.5694
  42
0
  0
VERTEX
  8
Edge_Top
  10
0.5775
  20
1.564
  42
0
  0
SEQEND
  0
POLYLINE
  8
Edge_Top
  6
CONTINUOUS
  66
1
  70
0
  40
0.008
  41
0.008
  0
VERTEX
  8
Edge_Top
  10
0.3279
  20
0.664
  42
0
  0
VERTEX
  8
Edge_Top
  10
0.3267
  20
0.6589
  42
0
  0
VERTEX
  8
Edge_Top
  10
0.3247
  20
0.6539
  42
0
  0
VERTEX
  8
Edge_Top
  10
0.3219
  20
0.6494
  42
0
  0
VERTEX
  8
Edge_Top
  10
0.3184
  20
0.6453
  42
0
  0
VERTEX
  8
Edge_Top
  10
0.3144
  20
0.6419
  42
0
  0
VERTEX
  8
Edge_Top
  10
0.3098
  20
0.6391
  42
0
  0
VERTEX
  8
Edge_Top
  10
0.3049
  20
0.637
  42
0
  0
VERTEX
  8
Edge_Top
  10
0.2997
  20
0.6358
  42
0
  0
VERTEX
  8
Edge_Top
  10
0.2944
  20
0.6354
  42
0
  0
VERTEX
  8
Edge_Top
  10
0.2891
  20
0.6358
  42
0
  0
VERTEX
  8
Edge_Top
  10
0.2839
  20
0.637
  42
0
  0
VERTEX
  8
Edge_Top
  10
0.279
  20
0.639
  42
0
  0
VERTEX
  8
Edge_Top
  10
0.2745
  20
0.6418
  42
0
  0
VERTEX
  8
Edge_Top
  10
0.2704
  20
0.6452
  42
0
  0
VERTEX
  8
Edge_Top
  10
0.2669
  20
0.6493
  42
0
  0
VERTEX
  8
Edge_Top
  10
0.2641
  20
0.6538
  42
0
  0
VERTEX
  8
Edge_Top
  10
0.2621
  20
0.6587
  42
0
  0
VERTEX
  8
Edge_Top
  10
0.2608
  20
0.6639
  42
0
  0
VERTEX
  8
Edge_Top
  10
0.2604
  20
0.6692
  42
0
  0
VERTEX
  8
Edge_Top
  10
0.2608
  20
0.6745
  42
0
  0
VERTEX
  8
Edge_Top
  10
0.262
  20
0.6797
  42
0
  0
VERTEX
  8
Edge_Top
  10
0.264
  20
0.6846
  42
0
  0
VERTEX
  8
Edge_Top
  10
0.2667
  20
0.6892
  42
0
  0
VERTEX
  8
Edge_Top
  10
0.2702
  20
0.6933
  42
0
  0
VERTEX
  8
Edge_Top
  10
0.2742
  20
0.6968
  42
0
  0
VERTEX
  8
Edge_Top
  10
0.2787
  20
0.6996
  42
0
  0
VERTEX
  8
Edge_Top
  10
0.2837
  20
0.7016
  42
0
  0
VERTEX
  8
Edge_Top
  10
0.2888
  20
0.7029
  42
0
  0
VERTEX
  8
Edge_Top
  10
0.2941
  20
0.7034
  42
0
  0
VERTEX
  8
Edge_Top
  10
0.2994
  20
0.703
  42
0
  0
VERTEX
  8
Edge_Top
  10
0.3046
  20
0.7018
  42
0
  0
VERTEX
  8
Edge_Top
  10
0.3096
  20
0.6998
  42
0
  0
VERTEX
  8
Edge_Top
  10
0.3141
  20
0.697
  42
0
  0
VERTEX
  8
Edge_Top
  10
0.3182
  20
0.6936
  42
0
  0
VERTEX
  8
Edge_Top
  10
0.3217
  20
0.6896
  42
0
  0
VERTEX
  8
Edge_Top
  10
0.3245
  20
0.685
  42
0
  0
VERTEX
  8
Edge_Top
  10
0.3266
  20
0.6801
  42
0
  0
VERTEX
  8
Edge_Top
  10
0.3279
  20
0.675
  42
0
  0
VERTEX
  8
Edge_Top
  10
0.3284
  20
0.6694
  42
0
  0
VERTEX
  8
Edge_Top
  10
0.3279
  20
0.664
  42
0
  0
SEQEND
  0
POLYLINE
  8
Edge_Top
  6
CONTINUOUS
  66
1
  70
0
  40
0.008
  41
0.008
  0
VERTEX
  8
Edge_Top
  10
0.4279
  20
0.564
  42
0
  0
VERTEX
  8
Edge_Top
  10
0.4267
  20
0.5589
  42
0
  0
VERTEX
  8
Edge_Top
  10
0.4247
  20
0.5539
  42
0
  0
VERTEX
  8
Edge_Top
  10
0.4219
  20
0.5494
  42
0
  0
VERTEX
  8
Edge_Top
  10
0.4184
  20
0.5453
  42
0
  0
VERTEX
  8
Edge_Top
  10
0.4144
  20
0.5419
  42
0
  0
VERTEX
  8
Edge_Top
  10
0.4098
  20
0.5391
  42
0
  0
VERTEX
  8
Edge_Top
  10
0.4049
  20
0.537
  42
0
  0
VERTEX
  8
Edge_Top
  10
0.3997
  20
0.5358
  42
0
  0
VERTEX
  8
Edge_Top
  10
0.3944
  20
0.5354
  42
0
  0
VERTEX
  8
Edge_Top
  10
0.3891
  20
0.5358
  42
0
  0
VERTEX
  8
Edge_Top
  10
0.3839
  20
0.537
  42
0
  0
VERTEX
  8
Edge_Top
  10
0.379
  20
0.539
  42
0
  0
VERTEX
  8
Edge_Top
  10
0.3745
  20
0.5418
  42
0
  0
VERTEX
  8
Edge_Top
  10
0.3704
  20
0.5452
  42
0
  0
VERTEX
  8
Edge_Top
  10
0.3669
  20
0.5493
  42
0
  0
VERTEX
  8
Edge_Top
  10
0.3641
  20
0.5538
  42
0
  0
VERTEX
  8
Edge_Top
  10
0.3621
  20
0.5587
  42
0
  0
VERTEX
  8
Edge_Top
  10
0.3608
  20
0.5639
  42
0
  0
VERTEX
  8
Edge_Top
  10
0.3604
  20
0.5692
  42
0
  0
VERTEX
  8
Edge_Top
  10
0.3608
  20
0.5745
  42
0
  0
VERTEX
  8
Edge_Top
  10
0.362
  20
0.5797
  42
0
  0
VERTEX
  8
Edge_Top
  10
0.364
  20
0.5846
  42
0
  0
VERTEX
  8
Edge_Top
  10
0.3667
  20
0.5892
  42
0
  0
VERTEX
  8
Edge_Top
  10
0.3702
  20
0.5933
  42
0
  0
VERTEX
  8
Edge_Top
  10
0.3742
  20
0.5968
  42
0
  0
VERTEX
  8
Edge_Top
  10
0.3787
  20
0.5996
  42
0
  0
VERTEX
  8
Edge_Top
  10
0.3837
  20
0.6016
  42
0
  0
VERTEX
  8
Edge_Top
  10
0.3888
  20
0.6029
  42
0
  0
VERTEX
  8
Edge_Top
  10
0.3941
  20
0.6034
  42
0
  0
VERTEX
  8
Edge_Top
  10
0.3994
  20
0.603
  42
0
  0
VERTEX
  8
Edge_Top
  10
0.4046
  20
0.6018
  42
0
  0
VERTEX
  8
Edge_Top
  10
0.4096
  20
0.5998
  42
0
  0
VERTEX
  8
Edge_Top
  10
0.4141
  20
0.597
  42
0
  0
VERTEX
  8
Edge_Top
  10
0.4182
  20
0.5936
  42
0
  0
VERTEX
  8
Edge_Top
  10
0.4217
  20
0.5896
  42
0
  0
VERTEX
  8
Edge_Top
  10
0.4245
  20
0.585
  42
0
  0
VERTEX
  8
Edge_Top
  10
0.4266
  20
0.5801
  42
0
  0
VERTEX
  8
Edge_Top
  10
0.4279
  20
0.575
  42
0
  0
VERTEX
  8
Edge_Top
  10
0.4284
  20
0.5694
  42
0
  0
VERTEX
  8
Edge_Top
  10
0.4279
  20
0.564
  42
0
  0
SEQEND
  0
POLYLINE
  8
Edge_Top
  6
CONTINUOUS
  66
1
  70
0
  40
0.008
  41
0.008
  0
VERTEX
  8
Edge_Top
  10
0.3657
  20
0.8034
  42
0
  0
VERTEX
  8
Edge_Top
  10
0.4284
  20
0.8034
  42
0
  0
VERTEX
  8
Edge_Top
  10
0.4284
  20
0.7354
  42
0
  0
VERTEX
  8
Edge_Top
  10
0.3604
  20
0.7354
  42
0
  0
VERTEX
  8
Edge_Top
  10
0.3604
  20
0.8034
  42
0
  0
VERTEX
  8
Edge_Top
  10
0.3657
  20
0.8034
  42
0
  0
SEQEND
  0
ENDSEC
  0
EOF
