 0
SECTION
 2
ENTITIES
  0
POLYLINE
 8
Layer0
 66
     1
70
    8
 10
0.0
 20
 0.0
 30
0.0
  0
VERTEX
  8
MY3DLAYER
10
173.72
20
98.5232342102365
30
0.0
 70
     32
  0
VERTEX
  8
MY3DLAYER
10
173.72
20
0.0
30
0.0
 70
     32
  0
VERTEX
  8
MY3DLAYER
10
0.0
20
0.0
30
0.0
 70
     32
  0
VERTEX
  8
MY3DLAYER
10
0.0
20
98.5232342102365
30
0.0
 70
     32
  0
VERTEX
  8
MY3DLAYER
10
173.72
20
98.5232342102365
30
0.0
 70
     32
  0
SEQEND
  0
POLYLINE
 8
Layer0
 66
     1
70
    8
 10
0.0
 20
 0.0
 30
0.0
  0
VERTEX
  8
MY3DLAYER
10
43.28
20
89.877785943046
30
0.0
 70
     32
  0
VERTEX
  8
MY3DLAYER
10
43.6735028842544
20
90.179731325982
30
0.0
 70
     32
  0
VERTEX
  8
MY3DLAYER
10
43.9754482671904
20
90.5732342102365
30
0.0
 70
     32
  0
VERTEX
  8
MY3DLAYER
10
44.1652590699492
20
91.0314780245417
30
0.0
 70
     32
  0
VERTEX
  8
MY3DLAYER
10
44.23
20
91.5232342102365
30
0.0
 70
     32
  0
VERTEX
  8
MY3DLAYER
10
44.1652590699492
20
92.0149903959313
30
0.0
 70
     32
  0
VERTEX
  8
MY3DLAYER
10
43.9754482671904
20
92.4732342102365
30
0.0
 70
     32
  0
VERTEX
  8
MY3DLAYER
10
43.6735028842544
20
92.8667370944909
30
0.0
 70
     32
  0
VERTEX
  8
MY3DLAYER
10
43.28
20
93.1686824774269
30
0.0
 70
     32
  0
VERTEX
  8
MY3DLAYER
10
42.8217561856948
20
93.3584932801857
30
0.0
 70
     32
  0
VERTEX
  8
MY3DLAYER
10
42.33
20
93.4232342102365
30
0.0
 70
     32
  0
VERTEX
  8
MY3DLAYER
10
41.8382438143052
20
93.3584932801857
30
0.0
 70
     32
  0
VERTEX
  8
MY3DLAYER
10
41.38
20
93.1686824774269
30
0.0
 70
     32
  0
VERTEX
  8
MY3DLAYER
10
40.9864971157456
20
92.8667370944909
30
0.0
 70
     32
  0
VERTEX
  8
MY3DLAYER
10
40.6845517328096
20
92.4732342102365
30
0.0
 70
     32
  0
VERTEX
  8
MY3DLAYER
10
40.4947409300508
20
92.0149903959313
30
0.0
 70
     32
  0
VERTEX
  8
MY3DLAYER
10
40.43
20
91.5232342102365
30
0.0
 70
     32
  0
VERTEX
  8
MY3DLAYER
10
40.4947409300508
20
91.0314780245417
30
0.0
 70
     32
  0
VERTEX
  8
MY3DLAYER
10
40.6845517328096
20
90.5732342102365
30
0.0
 70
     32
  0
VERTEX
  8
MY3DLAYER
10
40.9864971157456
20
90.179731325982
30
0.0
 70
     32
  0
VERTEX
  8
MY3DLAYER
10
41.38
20
89.877785943046
30
0.0
 70
     32
  0
VERTEX
  8
MY3DLAYER
10
41.8382438143052
20
89.6879751402872
30
0.0
 70
     32
  0
VERTEX
  8
MY3DLAYER
10
42.33
20
89.6232342102365
30
0.0
 70
     32
  0
VERTEX
  8
MY3DLAYER
10
42.8217561856948
20
89.6879751402872
30
0.0
 70
     32
  0
VERTEX
  8
MY3DLAYER
10
43.28
20
89.877785943046
30
0.0
 70
     32
  0
SEQEND
  0
POLYLINE
 8
Layer0
 66
     1
70
    8
 10
0.0
 20
 0.0
 30
0.0
  0
VERTEX
  8
MY3DLAYER
10
7.98525906994923
20
73.6114780245417
30
0.0
 70
     32
  0
VERTEX
  8
MY3DLAYER
10
8.05
20
74.1032342102365
30
0.0
 70
     32
  0
VERTEX
  8
MY3DLAYER
10
7.98525906994923
20
74.5949903959313
30
0.0
 70
     32
  0
VERTEX
  8
MY3DLAYER
10
7.79544826719043
20
75.0532342102365
30
0.0
 70
     32
  0
VERTEX
  8
MY3DLAYER
10
7.49350288425444
20
75.4467370944909
30
0.0
 70
     32
  0
VERTEX
  8
MY3DLAYER
10
7.1
20
75.7486824774269
30
0.0
 70
     32
  0
VERTEX
  8
MY3DLAYER
10
6.64175618569479
20
75.9384932801857
30
0.0
 70
     32
  0
VERTEX
  8
MY3DLAYER
10
6.15
20
76.0032342102365
30
0.0
 70
     32
  0
VERTEX
  8
MY3DLAYER
10
5.65824381430521
20
75.9384932801857
30
0.0
 70
     32
  0
VERTEX
  8
MY3DLAYER
10
5.2
20
75.7486824774269
30
0.0
 70
     32
  0
VERTEX
  8
MY3DLAYER
10
4.80649711574556
20
75.4467370944909
30
0.0
 70
     32
  0
VERTEX
  8
MY3DLAYER
10
4.50455173280957
20
75.0532342102365
30
0.0
 70
     32
  0
VERTEX
  8
MY3DLAYER
10
4.31474093005077
20
74.5949903959313
30
0.0
 70
     32
  0
VERTEX
  8
MY3DLAYER
10
4.25
20
74.1032342102365
30
0.0
 70
     32
  0
VERTEX
  8
MY3DLAYER
10
4.31474093005077
20
73.6114780245417
30
0.0
 70
     32
  0
VERTEX
  8
MY3DLAYER
10
4.50455173280957
20
73.1532342102365
30
0.0
 70
     32
  0
VERTEX
  8
MY3DLAYER
10
4.80649711574556
20
72.759731325982
30
0.0
 70
     32
  0
VERTEX
  8
MY3DLAYER
10
5.2
20
72.457785943046
30
0.0
 70
     32
  0
VERTEX
  8
MY3DLAYER
10
5.65824381430521
20
72.2679751402872
30
0.0
 70
     32
  0
VERTEX
  8
MY3DLAYER
10
6.15
20
72.2032342102365
30
0.0
 70
     32
  0
VERTEX
  8
MY3DLAYER
10
6.64175618569479
20
72.2679751402872
30
0.0
 70
     32
  0
VERTEX
  8
MY3DLAYER
10
7.1
20
72.457785943046
30
0.0
 70
     32
  0
VERTEX
  8
MY3DLAYER
10
7.49350288425444
20
72.759731325982
30
0.0
 70
     32
  0
VERTEX
  8
MY3DLAYER
10
7.79544826719043
20
73.1532342102365
30
0.0
 70
     32
  0
VERTEX
  8
MY3DLAYER
10
7.98525906994923
20
73.6114780245417
30
0.0
 70
     32
  0
SEQEND
  0
POLYLINE
 8
Layer0
 66
     1
70
    8
 10
0.0
 20
 0.0
 30
0.0
  0
VERTEX
  8
MY3DLAYER
10
5.35455173280957
20
12.0132342102365
30
0.0
 70
     32
  0
VERTEX
  8
MY3DLAYER
10
5.65649711574556
20
11.619731325982
30
0.0
 70
     32
  0
VERTEX
  8
MY3DLAYER
10
6.05
20
11.317785943046
30
0.0
 70
     32
  0
VERTEX
  8
MY3DLAYER
10
6.50824381430521
20
11.1279751402872
30
0.0
 70
     32
  0
VERTEX
  8
MY3DLAYER
10
7.0
20
11.0632342102365
30
0.0
 70
     32
  0
VERTEX
  8
MY3DLAYER
10
7.49175618569479
20
11.1279751402872
30
0.0
 70
     32
  0
VERTEX
  8
MY3DLAYER
10
7.95
20
11.317785943046
30
0.0
 70
     32
  0
VERTEX
  8
MY3DLAYER
10
8.34350288425444
20
11.619731325982
30
0.0
 70
     32
  0
VERTEX
  8
MY3DLAYER
10
8.64544826719043
20
12.0132342102365
30
0.0
 70
     32
  0
VERTEX
  8
MY3DLAYER
10
8.83525906994923
20
12.4714780245417
30
0.0
 70
     32
  0
VERTEX
  8
MY3DLAYER
10
8.9
20
12.9632342102365
30
0.0
 70
     32
  0
VERTEX
  8
MY3DLAYER
10
8.83525906994923
20
13.4549903959313
30
0.0
 70
     32
  0
VERTEX
  8
MY3DLAYER
10
8.64544826719043
20
13.9132342102365
30
0.0
 70
     32
  0
VERTEX
  8
MY3DLAYER
10
8.34350288425444
20
14.3067370944909
30
0.0
 70
     32
  0
VERTEX
  8
MY3DLAYER
10
7.95
20
14.6086824774269
30
0.0
 70
     32
  0
VERTEX
  8
MY3DLAYER
10
7.49175618569479
20
14.7984932801857
30
0.0
 70
     32
  0
VERTEX
  8
MY3DLAYER
10
7.0
20
14.8632342102365
30
0.0
 70
     32
  0
VERTEX
  8
MY3DLAYER
10
6.50824381430521
20
14.7984932801857
30
0.0
 70
     32
  0
VERTEX
  8
MY3DLAYER
10
6.05
20
14.6086824774269
30
0.0
 70
     32
  0
VERTEX
  8
MY3DLAYER
10
5.65649711574556
20
14.3067370944909
30
0.0
 70
     32
  0
VERTEX
  8
MY3DLAYER
10
5.35455173280957
20
13.9132342102365
30
0.0
 70
     32
  0
VERTEX
  8
MY3DLAYER
10
5.16474093005077
20
13.4549903959313
30
0.0
 70
     32
  0
VERTEX
  8
MY3DLAYER
10
5.1
20
12.9632342102365
30
0.0
 70
     32
  0
VERTEX
  8
MY3DLAYER
10
5.16474093005077
20
12.4714780245417
30
0.0
 70
     32
  0
VERTEX
  8
MY3DLAYER
10
5.35455173280957
20
12.0132342102365
30
0.0
 70
     32
  0
SEQEND
  0
POLYLINE
 8
Layer0
 66
     1
70
    8
 10
0.0
 20
 0.0
 30
0.0
  0
VERTEX
  8
MY3DLAYER
10
169.41
20
12.9632342102365
30
0.0
 70
     32
  0
VERTEX
  8
MY3DLAYER
10
169.345259069949
20
13.4549903959313
30
0.0
 70
     32
  0
VERTEX
  8
MY3DLAYER
10
169.15544826719
20
13.9132342102365
30
0.0
 70
     32
  0
VERTEX
  8
MY3DLAYER
10
168.853502884254
20
14.3067370944909
30
0.0
 70
     32
  0
VERTEX
  8
MY3DLAYER
10
168.46
20
14.6086824774269
30
0.0
 70
     32
  0
VERTEX
  8
MY3DLAYER
10
168.001756185695
20
14.7984932801857
30
0.0
 70
     32
  0
VERTEX
  8
MY3DLAYER
10
167.51
20
14.8632342102365
30
0.0
 70
     32
  0
VERTEX
  8
MY3DLAYER
10
167.018243814305
20
14.7984932801857
30
0.0
 70
     32
  0
VERTEX
  8
MY3DLAYER
10
166.56
20
14.6086824774269
30
0.0
 70
     32
  0
VERTEX
  8
MY3DLAYER
10
166.166497115746
20
14.3067370944909
30
0.0
 70
     32
  0
VERTEX
  8
MY3DLAYER
10
165.86455173281
20
13.9132342102365
30
0.0
 70
     32
  0
VERTEX
  8
MY3DLAYER
10
165.674740930051
20
13.4549903959313
30
0.0
 70
     32
  0
VERTEX
  8
MY3DLAYER
10
165.61
20
12.9632342102365
30
0.0
 70
     32
  0
VERTEX
  8
MY3DLAYER
10
165.674740930051
20
12.4714780245417
30
0.0
 70
     32
  0
VERTEX
  8
MY3DLAYER
10
165.86455173281
20
12.0132342102365
30
0.0
 70
     32
  0
VERTEX
  8
MY3DLAYER
10
166.166497115746
20
11.619731325982
30
0.0
 70
     32
  0
VERTEX
  8
MY3DLAYER
10
166.56
20
11.317785943046
30
0.0
 70
     32
  0
VERTEX
  8
MY3DLAYER
10
167.018243814305
20
11.1279751402872
30
0.0
 70
     32
  0
VERTEX
  8
MY3DLAYER
10
167.51
20
11.0632342102365
30
0.0
 70
     32
  0
VERTEX
  8
MY3DLAYER
10
168.001756185695
20
11.1279751402872
30
0.0
 70
     32
  0
VERTEX
  8
MY3DLAYER
10
168.46
20
11.317785943046
30
0.0
 70
     32
  0
VERTEX
  8
MY3DLAYER
10
168.853502884254
20
11.619731325982
30
0.0
 70
     32
  0
VERTEX
  8
MY3DLAYER
10
169.15544826719
20
12.0132342102365
30
0.0
 70
     32
  0
VERTEX
  8
MY3DLAYER
10
169.345259069949
20
12.4714780245417
30
0.0
 70
     32
  0
VERTEX
  8
MY3DLAYER
10
169.41
20
12.9632342102365
30
0.0
 70
     32
  0
SEQEND
  0
POLYLINE
 8
Layer0
 66
     1
70
    8
 10
0.0
 20
 0.0
 30
0.0
  0
VERTEX
  8
MY3DLAYER
10
165.734740930051
20
77.4249903959313
30
0.0
 70
     32
  0
VERTEX
  8
MY3DLAYER
10
165.67
20
76.9332342102365
30
0.0
 70
     32
  0
VERTEX
  8
MY3DLAYER
10
165.734740930051
20
76.4414780245417
30
0.0
 70
     32
  0
VERTEX
  8
MY3DLAYER
10
165.92455173281
20
75.9832342102365
30
0.0
 70
     32
  0
VERTEX
  8
MY3DLAYER
10
166.226497115746
20
75.589731325982
30
0.0
 70
     32
  0
VERTEX
  8
MY3DLAYER
10
166.62
20
75.287785943046
30
0.0
 70
     32
  0
VERTEX
  8
MY3DLAYER
10
167.078243814305
20
75.0979751402872
30
0.0
 70
     32
  0
VERTEX
  8
MY3DLAYER
10
167.57
20
75.0332342102365
30
0.0
 70
     32
  0
VERTEX
  8
MY3DLAYER
10
168.061756185695
20
75.0979751402872
30
0.0
 70
     32
  0
VERTEX
  8
MY3DLAYER
10
168.52
20
75.287785943046
30
0.0
 70
     32
  0
VERTEX
  8
MY3DLAYER
10
168.913502884254
20
75.589731325982
30
0.0
 70
     32
  0
VERTEX
  8
MY3DLAYER
10
169.21544826719
20
75.9832342102365
30
0.0
 70
     32
  0
VERTEX
  8
MY3DLAYER
10
169.405259069949
20
76.4414780245417
30
0.0
 70
     32
  0
VERTEX
  8
MY3DLAYER
10
169.47
20
76.9332342102365
30
0.0
 70
     32
  0
VERTEX
  8
MY3DLAYER
10
169.405259069949
20
77.4249903959313
30
0.0
 70
     32
  0
VERTEX
  8
MY3DLAYER
10
169.21544826719
20
77.8832342102365
30
0.0
 70
     32
  0
VERTEX
  8
MY3DLAYER
10
168.913502884254
20
78.2767370944909
30
0.0
 70
     32
  0
VERTEX
  8
MY3DLAYER
10
168.52
20
78.5786824774269
30
0.0
 70
     32
  0
VERTEX
  8
MY3DLAYER
10
168.061756185695
20
78.7684932801857
30
0.0
 70
     32
  0
VERTEX
  8
MY3DLAYER
10
167.57
20
78.8332342102365
30
0.0
 70
     32
  0
VERTEX
  8
MY3DLAYER
10
167.078243814305
20
78.7684932801857
30
0.0
 70
     32
  0
VERTEX
  8
MY3DLAYER
10
166.62
20
78.5786824774269
30
0.0
 70
     32
  0
VERTEX
  8
MY3DLAYER
10
166.226497115746
20
78.2767370944909
30
0.0
 70
     32
  0
VERTEX
  8
MY3DLAYER
10
165.92455173281
20
77.8832342102365
30
0.0
 70
     32
  0
VERTEX
  8
MY3DLAYER
10
165.734740930051
20
77.4249903959313
30
0.0
 70
     32
  0
SEQEND
  0
POLYLINE
 8
Layer0
 66
     1
70
    8
 10
0.0
 20
 0.0
 30
0.0
  0
VERTEX
  8
MY3DLAYER
10
16.3841569285879
20
4.38739113882433
30
0.0
 70
     32
  0
VERTEX
  8
MY3DLAYER
10
16.875
20
4.01075400326733
30
0.0
 70
     32
  0
VERTEX
  8
MY3DLAYER
10
17.446598863107
20
3.77399000193136
30
0.0
 70
     32
  0
VERTEX
  8
MY3DLAYER
10
18.06
20
3.69323421023645
30
0.0
 70
     32
  0
VERTEX
  8
MY3DLAYER
10
18.673401136893
20
3.77399000193136
30
0.0
 70
     32
  0
VERTEX
  8
MY3DLAYER
10
19.245
20
4.01075400326733
30
0.0
 70
     32
  0
VERTEX
  8
MY3DLAYER
10
19.7358430714121
20
4.38739113882433
30
0.0
 70
     32
  0
VERTEX
  8
MY3DLAYER
10
20.1124802069691
20
4.87823421023645
30
0.0
 70
     32
  0
VERTEX
  8
MY3DLAYER
10
20.3492442083051
20
5.44983307334348
30
0.0
 70
     32
  0
VERTEX
  8
MY3DLAYER
10
20.43
20
6.06323421023646
30
0.0
 70
     32
  0
VERTEX
  8
MY3DLAYER
10
20.3492442083051
20
6.67663534712943
30
0.0
 70
     32
  0
VERTEX
  8
MY3DLAYER
10
20.1124802069691
20
7.24823421023646
30
0.0
 70
     32
  0
VERTEX
  8
MY3DLAYER
10
19.7358430714121
20
7.73907728164857
30
0.0
 70
     32
  0
VERTEX
  8
MY3DLAYER
10
19.245
20
8.11571441720558
30
0.0
 70
     32
  0
VERTEX
  8
MY3DLAYER
10
18.673401136893
20
8.35247841854155
30
0.0
 70
     32
  0
VERTEX
  8
MY3DLAYER
10
18.06
20
8.43323421023646
30
0.0
 70
     32
  0
VERTEX
  8
MY3DLAYER
10
17.446598863107
20
8.35247841854155
30
0.0
 70
     32
  0
VERTEX
  8
MY3DLAYER
10
16.875
20
8.11571441720558
30
0.0
 70
     32
  0
VERTEX
  8
MY3DLAYER
10
16.3841569285879
20
7.73907728164857
30
0.0
 70
     32
  0
VERTEX
  8
MY3DLAYER
10
16.0075197930309
20
7.24823421023646
30
0.0
 70
     32
  0
VERTEX
  8
MY3DLAYER
10
15.7707557916949
20
6.67663534712943
30
0.0
 70
     32
  0
VERTEX
  8
MY3DLAYER
10
15.69
20
6.06323421023646
30
0.0
 70
     32
  0
VERTEX
  8
MY3DLAYER
10
15.7707557916949
20
5.44983307334348
30
0.0
 70
     32
  0
VERTEX
  8
MY3DLAYER
10
16.0075197930309
20
4.87823421023645
30
0.0
 70
     32
  0
VERTEX
  8
MY3DLAYER
10
16.3841569285879
20
4.38739113882433
30
0.0
 70
     32
  0
SEQEND
  0
POLYLINE
 8
Layer0
 66
     1
70
    8
 10
0.0
 20
 0.0
 30
0.0
  0
VERTEX
  8
MY3DLAYER
10
153.370755791695
20
6.67663534712943
30
0.0
 70
     32
  0
VERTEX
  8
MY3DLAYER
10
153.29
20
6.06323421023646
30
0.0
 70
     32
  0
VERTEX
  8
MY3DLAYER
10
153.370755791695
20
5.44983307334348
30
0.0
 70
     32
  0
VERTEX
  8
MY3DLAYER
10
153.607519793031
20
4.87823421023646
30
0.0
 70
     32
  0
VERTEX
  8
MY3DLAYER
10
153.984156928588
20
4.38739113882434
30
0.0
 70
     32
  0
VERTEX
  8
MY3DLAYER
10
154.475
20
4.01075400326734
30
0.0
 70
     32
  0
VERTEX
  8
MY3DLAYER
10
155.046598863107
20
3.77399000193137
30
0.0
 70
     32
  0
VERTEX
  8
MY3DLAYER
10
155.66
20
3.69323421023646
30
0.0
 70
     32
  0
VERTEX
  8
MY3DLAYER
10
156.273401136893
20
3.77399000193137
30
0.0
 70
     32
  0
VERTEX
  8
MY3DLAYER
10
156.845
20
4.01075400326734
30
0.0
 70
     32
  0
VERTEX
  8
MY3DLAYER
10
157.335843071412
20
4.38739113882434
30
0.0
 70
     32
  0
VERTEX
  8
MY3DLAYER
10
157.712480206969
20
4.87823421023646
30
0.0
 70
     32
  0
VERTEX
  8
MY3DLAYER
10
157.949244208305
20
5.44983307334348
30
0.0
 70
     32
  0
VERTEX
  8
MY3DLAYER
10
158.03
20
6.06323421023646
30
0.0
 70
     32
  0
VERTEX
  8
MY3DLAYER
10
157.949244208305
20
6.67663534712943
30
0.0
 70
     32
  0
VERTEX
  8
MY3DLAYER
10
157.712480206969
20
7.24823421023646
30
0.0
 70
     32
  0
VERTEX
  8
MY3DLAYER
10
157.335843071412
20
7.73907728164857
30
0.0
 70
     32
  0
VERTEX
  8
MY3DLAYER
10
156.845
20
8.11571441720557
30
0.0
 70
     32
  0
VERTEX
  8
MY3DLAYER
10
156.273401136893
20
8.35247841854155
30
0.0
 70
     32
  0
VERTEX
  8
MY3DLAYER
10
155.66
20
8.43323421023645
30
0.0
 70
     32
  0
VERTEX
  8
MY3DLAYER
10
155.046598863107
20
8.35247841854155
30
0.0
 70
     32
  0
VERTEX
  8
MY3DLAYER
10
154.475
20
8.11571441720557
30
0.0
 70
     32
  0
VERTEX
  8
MY3DLAYER
10
153.984156928588
20
7.73907728164857
30
0.0
 70
     32
  0
VERTEX
  8
MY3DLAYER
10
153.607519793031
20
7.24823421023646
30
0.0
 70
     32
  0
VERTEX
  8
MY3DLAYER
10
153.370755791695
20
6.67663534712943
30
0.0
 70
     32
  0
SEQEND
  0
POLYLINE
 8
Layer0
 66
     1
70
    8
 10
0.0
 20
 0.0
 30
0.0
  0
VERTEX
  8
MY3DLAYER
10
157.949244208305
20
69.4198330733435
30
0.0
 70
     32
  0
VERTEX
  8
MY3DLAYER
10
158.03
20
70.0332342102365
30
0.0
 70
     32
  0
VERTEX
  8
MY3DLAYER
10
157.949244208305
20
70.6466353471294
30
0.0
 70
     32
  0
VERTEX
  8
MY3DLAYER
10
157.712480206969
20
71.2182342102365
30
0.0
 70
     32
  0
VERTEX
  8
MY3DLAYER
10
157.335843071412
20
71.7090772816486
30
0.0
 70
     32
  0
VERTEX
  8
MY3DLAYER
10
156.845
20
72.0857144172056
30
0.0
 70
     32
  0
VERTEX
  8
MY3DLAYER
10
156.273401136893
20
72.3224784185416
30
0.0
 70
     32
  0
VERTEX
  8
MY3DLAYER
10
155.66
20
72.4032342102365
30
0.0
 70
     32
  0
VERTEX
  8
MY3DLAYER
10
155.046598863107
20
72.3224784185416
30
0.0
 70
     32
  0
VERTEX
  8
MY3DLAYER
10
154.475
20
72.0857144172056
30
0.0
 70
     32
  0
VERTEX
  8
MY3DLAYER
10
153.984156928588
20
71.7090772816486
30
0.0
 70
     32
  0
VERTEX
  8
MY3DLAYER
10
153.607519793031
20
71.2182342102365
30
0.0
 70
     32
  0
VERTEX
  8
MY3DLAYER
10
153.370755791695
20
70.6466353471294
30
0.0
 70
     32
  0
VERTEX
  8
MY3DLAYER
10
153.29
20
70.0332342102365
30
0.0
 70
     32
  0
VERTEX
  8
MY3DLAYER
10
153.370755791695
20
69.4198330733435
30
0.0
 70
     32
  0
VERTEX
  8
MY3DLAYER
10
153.607519793031
20
68.8482342102365
30
0.0
 70
     32
  0
VERTEX
  8
MY3DLAYER
10
153.984156928588
20
68.3573911388244
30
0.0
 70
     32
  0
VERTEX
  8
MY3DLAYER
10
154.475
20
67.9807540032674
30
0.0
 70
     32
  0
VERTEX
  8
MY3DLAYER
10
155.046598863107
20
67.7439900019314
30
0.0
 70
     32
  0
VERTEX
  8
MY3DLAYER
10
155.66
20
67.6632342102365
30
0.0
 70
     32
  0
VERTEX
  8
MY3DLAYER
10
156.273401136893
20
67.7439900019314
30
0.0
 70
     32
  0
VERTEX
  8
MY3DLAYER
10
156.845
20
67.9807540032674
30
0.0
 70
     32
  0
VERTEX
  8
MY3DLAYER
10
157.335843071412
20
68.3573911388244
30
0.0
 70
     32
  0
VERTEX
  8
MY3DLAYER
10
157.712480206969
20
68.8482342102365
30
0.0
 70
     32
  0
VERTEX
  8
MY3DLAYER
10
157.949244208305
20
69.4198330733435
30
0.0
 70
     32
  0
SEQEND
  0
POLYLINE
 8
Layer0
 66
     1
70
    8
 10
0.0
 20
 0.0
 30
0.0
  0
VERTEX
  8
MY3DLAYER
10
44.0058430714121
20
78.7873911388243
30
0.0
 70
     32
  0
VERTEX
  8
MY3DLAYER
10
44.3824802069691
20
79.2782342102365
30
0.0
 70
     32
  0
VERTEX
  8
MY3DLAYER
10
44.6192442083051
20
79.8498330733435
30
0.0
 70
     32
  0
VERTEX
  8
MY3DLAYER
10
44.7
20
80.4632342102365
30
0.0
 70
     32
  0
VERTEX
  8
MY3DLAYER
10
44.6192442083051
20
81.0766353471294
30
0.0
 70
     32
  0
VERTEX
  8
MY3DLAYER
10
44.3824802069691
20
81.6482342102365
30
0.0
 70
     32
  0
VERTEX
  8
MY3DLAYER
10
44.0058430714121
20
82.1390772816486
30
0.0
 70
     32
  0
VERTEX
  8
MY3DLAYER
10
43.515
20
82.5157144172056
30
0.0
 70
     32
  0
VERTEX
  8
MY3DLAYER
10
42.943401136893
20
82.7524784185416
30
0.0
 70
     32
  0
VERTEX
  8
MY3DLAYER
10
42.33
20
82.8332342102365
30
0.0
 70
     32
  0
VERTEX
  8
MY3DLAYER
10
41.716598863107
20
82.7524784185416
30
0.0
 70
     32
  0
VERTEX
  8
MY3DLAYER
10
41.145
20
82.5157144172056
30
0.0
 70
     32
  0
VERTEX
  8
MY3DLAYER
10
40.6541569285879
20
82.1390772816486
30
0.0
 70
     32
  0
VERTEX
  8
MY3DLAYER
10
40.2775197930309
20
81.6482342102365
30
0.0
 70
     32
  0
VERTEX
  8
MY3DLAYER
10
40.0407557916949
20
81.0766353471294
30
0.0
 70
     32
  0
VERTEX
  8
MY3DLAYER
10
39.96
20
80.4632342102365
30
0.0
 70
     32
  0
VERTEX
  8
MY3DLAYER
10
40.0407557916949
20
79.8498330733435
30
0.0
 70
     32
  0
VERTEX
  8
MY3DLAYER
10
40.2775197930309
20
79.2782342102365
30
0.0
 70
     32
  0
VERTEX
  8
MY3DLAYER
10
40.6541569285879
20
78.7873911388243
30
0.0
 70
     32
  0
VERTEX
  8
MY3DLAYER
10
41.145
20
78.4107540032673
30
0.0
 70
     32
  0
VERTEX
  8
MY3DLAYER
10
41.716598863107
20
78.1739900019314
30
0.0
 70
     32
  0
VERTEX
  8
MY3DLAYER
10
42.33
20
78.0932342102365
30
0.0
 70
     32
  0
VERTEX
  8
MY3DLAYER
10
42.943401136893
20
78.1739900019314
30
0.0
 70
     32
  0
VERTEX
  8
MY3DLAYER
10
43.515
20
78.4107540032673
30
0.0
 70
     32
  0
VERTEX
  8
MY3DLAYER
10
44.0058430714121
20
78.7873911388243
30
0.0
 70
     32
  0
SEQEND
  0
POLYLINE
 8
Layer0
 66
     1
70
    8
 10
0.0
 20
 0.0
 30
0.0
  0
VERTEX
  8
MY3DLAYER
10
50.82
20
78.0232342102365
30
0.0
 70
     32
  0
VERTEX
  8
MY3DLAYER
10
50.82
20
74.3345672350707
30
0.0
 70
     32
  0
VERTEX
  8
MY3DLAYER
10
19.25
20
74.3345672350707
30
0.0
 70
     32
  0
VERTEX
  8
MY3DLAYER
10
19.25
20
10.2032342102365
30
0.0
 70
     32
  0
VERTEX
  8
MY3DLAYER
10
149.56
20
10.2032342102365
30
0.0
 70
     32
  0
VERTEX
  8
MY3DLAYER
10
149.56
20
78.0232342102365
30
0.0
 70
     32
  0
VERTEX
  8
MY3DLAYER
10
50.82
20
78.0232342102365
30
0.0
 70
     32
  0
SEQEND
 0
ENDSEC
 0
EOF
