999
DXF created by Inkscape
  0
SECTION
  2
HEADER
  9
$ACADVER
  1
AC1014
  9
$HANDSEED
  5
FFFF
  9
$MEASUREMENT
 70
     1
  0
ENDSEC
  0
SECTION
  2
TABLES
  0
TABLE
  2
VPORT
  5
8
330
0
100
AcDbSymbolTable
 70
     4
  0
VPORT
  5
2E
330
8
100
AcDbSymbolTableRecord
100
AcDbViewportTableRecord
  2
*ACTIVE
 70
     0
 10
0.0
 20
0.0
 11
1.0
 21
1.0
 12
210.0
 22
148.5
 13
0.0
 23
0.0
 14
10.0
 24
10.0
 15
10.0
 25
10.0
 16
0.0
 26
0.0
 36
1.0
 17
0.0
 27
0.0
 37
0.0
 40
341.0
 41
1.24
 42
50.0
 43
0.0
 44
0.0
 50
0.0
 51
0.0
 71
     0
 72
   100
 73
     1
 74
     3
 75
     0
 76
     0
 77
     0
 78
     0
  0
ENDTAB
  0
TABLE
  2
LTYPE
  5
5
330
0
100
AcDbSymbolTable
 70
     1
  0
LTYPE
  5
14
330
5
100
AcDbSymbolTableRecord
100
AcDbLinetypeTableRecord
  2
BYBLOCK
 70
     0
  3

 72
    65
 73
     0
 40
0.0
  0
LTYPE
  5
15
330
5
100
AcDbSymbolTableRecord
100
AcDbLinetypeTableRecord
  2
BYLAYER
 70
     0
  3

 72
    65
 73
     0
 40
0.0
  0
LTYPE
  5
16
330
5
100
AcDbSymbolTableRecord
100
AcDbLinetypeTableRecord
  2
CONTINUOUS
 70
     0
  3
Solid line
 72
    65
 73
     0
 40
0.0
  0
ENDTAB
  0
TABLE
  2
LAYER
  5
2
100
AcDbSymbolTable
 70
3
  0
LAYER
  5
50
100
AcDbSymbolTableRecord
100
AcDbLayerTableRecord
  2
0
 70
0
  6
CONTINUOUS
  0
LAYER
  5
51
100
AcDbSymbolTableRecord
100
AcDbLayerTableRecord
  2
background
 70
0
  6
CONTINUOUS
  0
LAYER
  5
52
100
AcDbSymbolTableRecord
100
AcDbLayerTableRecord
  2
wireframe
 70
0
  6
CONTINUOUS
  0
ENDTAB
  0
TABLE
  2
STYLE
  5
3
330
0
100
AcDbSymbolTable
 70
     1
  0
STYLE
  5
11
330
3
100
AcDbSymbolTableRecord
100
AcDbTextStyleTableRecord
  2
STANDARD
 70
     0
 40
0.0
 41
1.0
 50
0.0
 71
     0
 42
2.5
  3
txt
  4

  0
ENDTAB
  0
TABLE
  2
VIEW
  5
6
330
0
100
AcDbSymbolTable
 70
     0
  0
ENDTAB
  0
TABLE
  2
UCS
  5
7
330
0
100
AcDbSymbolTable
 70
     0
  0
ENDTAB
  0
TABLE
  2
APPID
  5
9
330
0
100
AcDbSymbolTable
 70
     2
  0
APPID
  5
12
330
9
100
AcDbSymbolTableRecord
100
AcDbRegAppTableRecord
  2
ACAD
 70
     0
  0
ENDTAB
  0
TABLE
  2
DIMSTYLE
  5
A
330
0
100
AcDbSymbolTable
 70
     1
  0
DIMSTYLE
105
27
330
A
100
AcDbSymbolTableRecord
100
AcDbDimStyleTableRecord
  2
ISO-25
 70
     0
  3

  4

  5

  6

  7

 40
1.0
 41
2.5
 42
0.625
 43
3.75
 44
1.25
 45
0.0
 46
0.0
 47
0.0
 48
0.0
140
2.5
141
2.5
142
0.0
143
0.03937007874016
144
1.0
145
0.0
146
1.0
147
0.625
 71
     0
 72
     0
 73
     0
 74
     0
 75
     0
 76
     0
 77
     1
 78
     8
170
     0
171
     3
172
     1
173
     0
174
     0
175
     0
176
     0
177
     0
178
     0
270
     2
271
     2
272
     2
273
     2
274
     3
340
11
275
     0
280
     0
281
     0
282
     0
283
     0
284
     8
285
     0
286
     0
287
     3
288
     0
  0
ENDTAB
  0
TABLE
  2
BLOCK_RECORD
  5
1
330
0
100
AcDbSymbolTable
 70
     1
  0
BLOCK_RECORD
  5
1F
330
1
100
AcDbSymbolTableRecord
100
AcDbBlockTableRecord
  2
*MODEL_SPACE
  0
BLOCK_RECORD
  5
1B
330
1
100
AcDbSymbolTableRecord
100
AcDbBlockTableRecord
  2
*PAPER_SPACE
  0
ENDTAB
  0
ENDSEC
  0
SECTION
  2
BLOCKS
  0
BLOCK
  5
20
330
1F
100
AcDbEntity
  8
0
100
AcDbBlockBegin
  2
*MODEL_SPACE
 70
     0
 10
0.0
 20
0.0
 30
0.0
  3
*MODEL_SPACE
  1

  0
ENDBLK
  5
21
330
1F
100
AcDbEntity
  8
0
100
AcDbBlockEnd
  0
BLOCK
  5
1C
330
1B
100
AcDbEntity
 67
     1
  8
0
100
AcDbBlockBegin
  2
*PAPER_SPACE
  1

  0
ENDBLK
  5
1D
330
1B
100
AcDbEntity
 67
     1
  8
0
100
AcDbBlockEnd
  0
ENDSEC
  0
SECTION
  2
ENTITIES
  0
LINE
  5
100
100
AcDbEntity
  8
wireframe
 62
7
100
AcDbLine
 10
42.772034
 20
273.283099
 30
0.0
 11
46.353445
 21
273.274189
 31
0.0
  0
LINE
  5
101
100
AcDbEntity
  8
wireframe
 62
7
100
AcDbLine
 10
46.353445
 20
273.274189
 30
0.0
 11
46.415808
 21
272.320928
 31
0.0
  0
LINE
  5
102
100
AcDbEntity
  8
wireframe
 62
7
100
AcDbLine
 10
46.415808
 20
272.320928
 30
0.0
 11
42.674035
 21
271.144942
 31
0.0
  0
LINE
  5
103
100
AcDbEntity
  8
wireframe
 62
7
100
AcDbLine
 10
42.674035
 20
271.144942
 30
0.0
 11
42.772034
 21
273.283099
 31
0.0
  0
LINE
  5
104
100
AcDbEntity
  8
wireframe
 62
7
100
AcDbLine
 10
42.584946
 20
270.111500
 30
0.0
 11
46.460354
 21
271.340940
 31
0.0
  0
LINE
  5
105
100
AcDbEntity
  8
wireframe
 62
7
100
AcDbLine
 10
46.460354
 20
271.340940
 30
0.0
 11
46.674168
 21
268.748427
 31
0.0
  0
LINE
  5
106
100
AcDbEntity
  8
wireframe
 62
7
100
AcDbLine
 10
46.674168
 20
268.748427
 30
0.0
 11
42.344402
 21
267.385353
 31
0.0
  0
LINE
  5
107
100
AcDbEntity
  8
wireframe
 62
7
100
AcDbLine
 10
42.344402
 20
267.385353
 30
0.0
 11
42.584946
 21
270.111500
 31
0.0
  0
LINE
  5
108
100
AcDbEntity
  8
wireframe
 62
7
100
AcDbLine
 10
42.237493
 20
266.334092
 30
0.0
 11
46.781077
 21
267.759528
 31
0.0
  0
LINE
  5
109
100
AcDbEntity
  8
wireframe
 62
7
100
AcDbLine
 10
46.781077
 20
267.759528
 30
0.0
 11
47.057254
 21
265.193742
 31
0.0
  0
LINE
  5
10a
100
AcDbEntity
  8
wireframe
 62
7
100
AcDbLine
 10
47.057254
 20
265.193742
 30
0.0
 11
41.925680
 21
263.572307
 31
0.0
  0
LINE
  5
10b
100
AcDbEntity
  8
wireframe
 62
7
100
AcDbLine
 10
41.925680
 20
263.572307
 30
0.0
 11
42.237493
 21
266.334092
 31
0.0
  0
LINE
  5
10c
100
AcDbEntity
  8
wireframe
 62
7
100
AcDbLine
 10
41.800955
 20
262.521047
 30
0.0
 11
47.146345
 21
264.204844
 31
0.0
  0
LINE
  5
10d
100
AcDbEntity
  8
wireframe
 62
7
100
AcDbLine
 10
47.146345
 20
264.204844
 30
0.0
 11
47.422522
 21
261.656874
 31
0.0
  0
LINE
  5
10e
100
AcDbEntity
  8
wireframe
 62
7
100
AcDbLine
 10
47.422522
 20
261.656874
 30
0.0
 11
41.515865
 21
259.759259
 31
0.0
  0
LINE
  5
10f
100
AcDbEntity
  8
wireframe
 62
7
100
AcDbLine
 10
41.515865
 20
259.759259
 30
0.0
 11
41.800955
 21
262.521047
 31
0.0
  0
LINE
  5
110
100
AcDbEntity
  8
wireframe
 62
7
100
AcDbLine
 10
41.382233
 20
258.716908
 30
0.0
 11
47.538341
 21
260.659069
 31
0.0
  0
LINE
  5
111
100
AcDbEntity
  8
wireframe
 62
7
100
AcDbLine
 10
47.538341
 20
260.659069
 30
0.0
 11
47.796701
 21
258.084372
 31
0.0
  0
LINE
  5
112
100
AcDbEntity
  8
wireframe
 62
7
100
AcDbLine
 10
47.796701
 20
258.084372
 30
0.0
 11
41.177326
 21
255.981850
 31
0.0
  0
LINE
  5
113
100
AcDbEntity
  8
wireframe
 62
7
100
AcDbLine
 10
41.177326
 20
255.981850
 30
0.0
 11
41.382233
 21
258.716908
 31
0.0
  0
LINE
  5
114
100
AcDbEntity
  8
wireframe
 62
7
100
AcDbLine
 10
41.070417
 20
254.930592
 30
0.0
 11
47.885790
 21
257.095474
 31
0.0
  0
LINE
  5
115
100
AcDbEntity
  8
wireframe
 62
7
100
AcDbLine
 10
47.885790
 20
257.095474
 30
0.0
 11
48.108514
 21
254.494051
 31
0.0
  0
LINE
  5
116
100
AcDbEntity
  8
wireframe
 62
7
100
AcDbLine
 10
48.108514
 20
254.494051
 30
0.0
 11
40.910056
 21
252.213351
 31
0.0
  0
LINE
  5
117
100
AcDbEntity
  8
wireframe
 62
7
100
AcDbLine
 10
40.910056
 20
252.213351
 30
0.0
 11
41.070417
 21
254.930592
 31
0.0
  0
LINE
  5
118
100
AcDbEntity
  8
wireframe
 62
7
100
AcDbLine
 10
40.829876
 20
251.188817
 30
0.0
 11
48.161970
 21
253.514063
 31
0.0
  0
LINE
  5
119
100
AcDbEntity
  8
wireframe
 62
7
100
AcDbLine
 10
48.161970
 20
253.514063
 30
0.0
 11
48.313422
 21
250.877004
 31
0.0
  0
LINE
  5
11a
100
AcDbEntity
  8
wireframe
 62
7
100
AcDbLine
 10
48.313422
 20
250.877004
 30
0.0
 11
40.794240
 21
248.507215
 31
0.0
  0
LINE
  5
11b
100
AcDbEntity
  8
wireframe
 62
7
100
AcDbLine
 10
40.794240
 20
248.507215
 30
0.0
 11
40.829876
 21
251.188817
 31
0.0
  0
LINE
  5
11c
100
AcDbEntity
  8
wireframe
 62
7
100
AcDbLine
 10
40.794240
 20
247.500500
 30
0.0
 11
40.892239
 21
244.872348
 31
0.0
  0
LINE
  5
11d
100
AcDbEntity
  8
wireframe
 62
7
100
AcDbLine
 10
40.892239
 20
244.872348
 30
0.0
 11
48.349058
 21
247.242137
 31
0.0
  0
LINE
  5
11e
100
AcDbEntity
  8
wireframe
 62
7
100
AcDbLine
 10
48.349058
 20
247.242137
 30
0.0
 11
48.322332
 21
249.914832
 31
0.0
  0
LINE
  5
11f
100
AcDbEntity
  8
wireframe
 62
7
100
AcDbLine
 10
48.322332
 20
249.914832
 30
0.0
 11
40.794240
 21
247.500500
 31
0.0
  0
LINE
  5
120
100
AcDbEntity
  8
wireframe
 62
7
100
AcDbLine
 10
40.972418
 20
243.865633
 30
0.0
 11
40.954610
 21
243.598363
 31
0.0
  0
LINE
  5
121
100
AcDbEntity
  8
wireframe
 62
7
100
AcDbLine
 10
40.954610
 20
243.598363
 30
0.0
 11
48.179795
 21
243.589444
 31
0.0
  0
LINE
  5
122
100
AcDbEntity
  8
wireframe
 62
7
100
AcDbLine
 10
48.179795
 20
243.589444
 30
0.0
 11
48.322340
 21
246.217594
 31
0.0
  0
LINE
  5
123
100
AcDbEntity
  8
wireframe
 62
7
100
AcDbLine
 10
48.322340
 20
246.217594
 30
0.0
 11
40.972418
 21
243.865633
 31
0.0
  0
LINE
  5
124
100
AcDbEntity
  8
wireframe
 62
7
100
AcDbLine
 10
17.147520
 20
239.441624
 30
0.0
 11
36.001206
 21
222.800340
 31
0.0
  0
LINE
  5
125
100
AcDbEntity
  8
wireframe
 62
7
100
AcDbLine
 10
36.001206
 20
222.800340
 30
0.0
 11
28.798291
 21
222.795881
 31
0.0
  0
LINE
  5
126
100
AcDbEntity
  8
wireframe
 62
7
100
AcDbLine
 10
28.798291
 20
222.795881
 30
0.0
 11
36.388746
 21
211.428018
 31
0.0
  0
LINE
  5
127
100
AcDbEntity
  8
wireframe
 62
7
100
AcDbLine
 10
36.388746
 20
211.428018
 30
0.0
 11
29.029925
 21
211.428018
 31
0.0
  0
LINE
  5
128
100
AcDbEntity
  8
wireframe
 62
7
100
AcDbLine
 10
29.029925
 20
211.428018
 30
0.0
 11
39.088167
 21
196.808376
 31
0.0
  0
LINE
  5
129
100
AcDbEntity
  8
wireframe
 62
7
100
AcDbLine
 10
39.088167
 20
196.808376
 30
0.0
 11
18.468324
 21
214.782252
 31
0.0
  0
LINE
  5
12a
100
AcDbEntity
  8
wireframe
 62
7
100
AcDbLine
 10
18.468324
 20
214.782252
 30
0.0
 11
27.502035
 21
214.782252
 31
0.0
  0
LINE
  5
12b
100
AcDbEntity
  8
wireframe
 62
7
100
AcDbLine
 10
27.502035
 20
214.782252
 30
0.0
 11
18.477233
 21
227.076650
 31
0.0
  0
LINE
  5
12c
100
AcDbEntity
  8
wireframe
 62
7
100
AcDbLine
 10
18.477233
 20
227.076650
 30
0.0
 11
25.893963
 21
227.085569
 31
0.0
  0
LINE
  5
12d
100
AcDbEntity
  8
wireframe
 62
7
100
AcDbLine
 10
25.893963
 20
227.085569
 30
0.0
 11
17.147520
 21
239.441624
 31
0.0
  0
LINE
  5
12e
100
AcDbEntity
  8
wireframe
 62
7
100
AcDbLine
 10
72.013547
 20
239.440095
 30
0.0
 11
71.979025
 21
239.438966
 31
0.0
  0
LINE
  5
12f
100
AcDbEntity
  8
wireframe
 62
7
100
AcDbLine
 10
71.979025
 20
239.438966
 30
0.0
 11
53.159908
 21
222.798097
 31
0.0
  0
LINE
  5
130
100
AcDbEntity
  8
wireframe
 62
7
100
AcDbLine
 10
53.159908
 20
222.798097
 30
0.0
 11
60.345947
 21
222.784663
 31
0.0
  0
LINE
  5
131
100
AcDbEntity
  8
wireframe
 62
7
100
AcDbLine
 10
60.345947
 20
222.784663
 30
0.0
 11
52.764532
 21
211.419707
 31
0.0
  0
LINE
  5
132
100
AcDbEntity
  8
wireframe
 62
7
100
AcDbLine
 10
52.764532
 20
211.419707
 30
0.0
 11
60.124061
 21
211.419534
 31
0.0
  0
LINE
  5
133
100
AcDbEntity
  8
wireframe
 62
7
100
AcDbLine
 10
60.124061
 20
211.419534
 30
0.0
 11
50.046218
 21
196.792318
 31
0.0
  0
LINE
  5
134
100
AcDbEntity
  8
wireframe
 62
7
100
AcDbLine
 10
50.046218
 20
196.792318
 30
0.0
 11
70.674617
 21
214.784323
 31
0.0
  0
LINE
  5
135
100
AcDbEntity
  8
wireframe
 62
7
100
AcDbLine
 10
70.674617
 20
214.784323
 30
0.0
 11
61.636893
 21
214.782065
 31
0.0
  0
LINE
  5
136
100
AcDbEntity
  8
wireframe
 62
7
100
AcDbLine
 10
61.636893
 20
214.782065
 30
0.0
 11
70.683436
 21
227.078575
 31
0.0
  0
LINE
  5
137
100
AcDbEntity
  8
wireframe
 62
7
100
AcDbLine
 10
70.683436
 20
227.078575
 30
0.0
 11
63.264079
 21
227.078575
 31
0.0
  0
LINE
  5
138
100
AcDbEntity
  8
wireframe
 62
7
100
AcDbLine
 10
63.264079
 20
227.078575
 30
0.0
 11
72.013547
 21
239.440095
 31
0.0
  0
LINE
  5
139
100
AcDbEntity
  8
wireframe
 62
7
100
AcDbLine
 10
13.651236
 20
201.881151
 30
0.0
 11
15.680972
 21
207.803757
 31
0.0
  0
LINE
  5
13a
100
AcDbEntity
  8
wireframe
 62
7
100
AcDbLine
 10
15.680972
 20
207.803757
 30
0.0
 11
17.797639
 21
213.624590
 31
0.0
  0
LINE
  5
13b
100
AcDbEntity
  8
wireframe
 62
7
100
AcDbLine
 10
17.797639
 20
213.624590
 30
0.0
 11
14.960857
 21
216.099891
 31
0.0
  0
LINE
  5
13c
100
AcDbEntity
  8
wireframe
 62
7
100
AcDbLine
 10
14.960857
 20
216.099891
 30
0.0
 11
18.739115
 21
216.102854
 31
0.0
  0
LINE
  5
13d
100
AcDbEntity
  8
wireframe
 62
7
100
AcDbLine
 10
18.739115
 20
216.102854
 30
0.0
 11
20.006015
 21
219.230509
 31
0.0
  0
LINE
  5
13e
100
AcDbEntity
  8
wireframe
 62
7
100
AcDbLine
 10
20.006015
 20
219.230509
 30
0.0
 11
20.935222
 21
221.512989
 31
0.0
  0
LINE
  5
13f
100
AcDbEntity
  8
wireframe
 62
7
100
AcDbLine
 10
20.935222
 20
221.512989
 30
0.0
 11
15.877592
 21
228.404088
 31
0.0
  0
LINE
  5
140
100
AcDbEntity
  8
wireframe
 62
7
100
AcDbLine
 10
15.877592
 20
228.404088
 30
0.0
 11
23.329957
 21
228.397851
 31
0.0
  0
LINE
  5
141
100
AcDbEntity
  8
wireframe
 62
7
100
AcDbLine
 10
23.329957
 20
228.397851
 30
0.0
 11
14.168848
 21
241.369332
 31
0.0
  0
LINE
  5
142
100
AcDbEntity
  8
wireframe
 62
7
100
AcDbLine
 10
14.168848
 20
241.369332
 30
0.0
 11
13.576401
 21
239.479736
 31
0.0
  0
LINE
  5
143
100
AcDbEntity
  8
wireframe
 62
7
100
AcDbLine
 10
13.576401
 20
239.479736
 30
0.0
 11
12.790629
 21
236.848022
 31
0.0
  0
LINE
  5
144
100
AcDbEntity
  8
wireframe
 62
7
100
AcDbLine
 10
12.790629
 20
236.848022
 30
0.0
 11
12.110873
 21
234.478233
 31
0.0
  0
LINE
  5
145
100
AcDbEntity
  8
wireframe
 62
7
100
AcDbLine
 10
12.110873
 20
234.478233
 30
0.0
 11
11.418645
 21
231.977482
 31
0.0
  0
LINE
  5
146
100
AcDbEntity
  8
wireframe
 62
7
100
AcDbLine
 10
11.418645
 20
231.977482
 30
0.0
 11
11.019523
 21
230.549369
 31
0.0
  0
LINE
  5
147
100
AcDbEntity
  8
wireframe
 62
7
100
AcDbLine
 10
11.019523
 20
230.549369
 30
0.0
 11
10.688999
 21
229.264694
 31
0.0
  0
LINE
  5
148
100
AcDbEntity
  8
wireframe
 62
7
100
AcDbLine
 10
10.688999
 20
229.264694
 30
0.0
 11
10.077843
 21
226.963505
 31
0.0
  0
LINE
  5
149
100
AcDbEntity
  8
wireframe
 62
7
100
AcDbLine
 10
10.077843
 20
226.963505
 30
0.0
 11
9.313333
 21
223.894832
 31
0.0
  0
LINE
  5
14a
100
AcDbEntity
  8
wireframe
 62
7
100
AcDbLine
 10
9.313333
 20
223.894832
 30
0.0
 11
8.713611
 21
221.368063
 31
0.0
  0
LINE
  5
14b
100
AcDbEntity
  8
wireframe
 62
7
100
AcDbLine
 10
8.713611
 20
221.368063
 30
0.0
 11
8.105069
 21
218.528201
 31
0.0
  0
LINE
  5
14c
100
AcDbEntity
  8
wireframe
 62
7
100
AcDbLine
 10
8.105069
 20
218.528201
 30
0.0
 11
7.725833
 21
216.737854
 31
0.0
  0
LINE
  5
14d
100
AcDbEntity
  8
wireframe
 62
7
100
AcDbLine
 10
7.725833
 20
216.737854
 30
0.0
 11
7.545035
 21
215.816221
 31
0.0
  0
LINE
  5
14e
100
AcDbEntity
  8
wireframe
 62
7
100
AcDbLine
 10
7.545035
 20
215.816221
 30
0.0
 11
7.156979
 21
213.721604
 31
0.0
  0
LINE
  5
14f
100
AcDbEntity
  8
wireframe
 62
7
100
AcDbLine
 10
7.156979
 20
213.721604
 30
0.0
 11
6.861528
 21
211.957715
 31
0.0
  0
LINE
  5
150
100
AcDbEntity
  8
wireframe
 62
7
100
AcDbLine
 10
6.861528
 20
211.957715
 30
0.0
 11
6.579306
 21
210.162957
 31
0.0
  0
LINE
  5
151
100
AcDbEntity
  8
wireframe
 62
7
100
AcDbLine
 10
6.579306
 20
210.162957
 30
0.0
 11
6.323542
 21
208.288826
 31
0.0
  0
LINE
  5
152
100
AcDbEntity
  8
wireframe
 62
7
100
AcDbLine
 10
6.323542
 20
208.288826
 30
0.0
 11
6.116285
 21
206.449971
 31
0.0
  0
LINE
  5
153
100
AcDbEntity
  8
wireframe
 62
7
100
AcDbLine
 10
6.116285
 20
206.449971
 30
0.0
 11
5.975174
 21
204.827193
 31
0.0
  0
LINE
  5
154
100
AcDbEntity
  8
wireframe
 62
7
100
AcDbLine
 10
5.975174
 20
204.827193
 30
0.0
 11
5.891389
 21
203.147090
 31
0.0
  0
LINE
  5
155
100
AcDbEntity
  8
wireframe
 62
7
100
AcDbLine
 10
5.891389
 20
203.147090
 30
0.0
 11
5.878161
 21
201.890318
 31
0.0
  0
LINE
  5
156
100
AcDbEntity
  8
wireframe
 62
7
100
AcDbLine
 10
5.878161
 20
201.890318
 30
0.0
 11
13.651236
 21
201.881151
 31
0.0
  0
LINE
  5
157
100
AcDbEntity
  8
wireframe
 62
7
100
AcDbLine
 10
34.885311
 20
242.486221
 30
0.0
 11
34.894116
 21
239.417054
 31
0.0
  0
LINE
  5
158
100
AcDbEntity
  8
wireframe
 62
7
100
AcDbLine
 10
34.894116
 20
239.417054
 30
0.0
 11
40.388630
 21
239.412652
 31
0.0
  0
LINE
  5
159
100
AcDbEntity
  8
wireframe
 62
7
100
AcDbLine
 10
40.388630
 20
239.412652
 30
0.0
 11
40.419500
 21
232.180707
 31
0.0
  0
LINE
  5
15a
100
AcDbEntity
  8
wireframe
 62
7
100
AcDbLine
 10
40.419500
 20
232.180707
 30
0.0
 11
40.441541
 21
226.302546
 31
0.0
  0
LINE
  5
15b
100
AcDbEntity
  8
wireframe
 62
7
100
AcDbLine
 10
40.441541
 20
226.302546
 30
0.0
 11
40.485639
 21
222.091263
 31
0.0
  0
LINE
  5
15c
100
AcDbEntity
  8
wireframe
 62
7
100
AcDbLine
 10
40.485639
 20
222.091263
 30
0.0
 11
40.529736
 21
219.211713
 31
0.0
  0
LINE
  5
15d
100
AcDbEntity
  8
wireframe
 62
7
100
AcDbLine
 10
40.529736
 20
219.211713
 30
0.0
 11
40.604702
 21
216.027893
 31
0.0
  0
LINE
  5
15e
100
AcDbEntity
  8
wireframe
 62
7
100
AcDbLine
 10
40.604702
 20
216.027893
 30
0.0
 11
40.692897
 21
212.870532
 31
0.0
  0
LINE
  5
15f
100
AcDbEntity
  8
wireframe
 62
7
100
AcDbLine
 10
40.692897
 20
212.870532
 30
0.0
 11
40.781091
 21
210.436365
 31
0.0
  0
LINE
  5
160
100
AcDbEntity
  8
wireframe
 62
7
100
AcDbLine
 10
40.781091
 20
210.436365
 30
0.0
 11
40.878105
 21
208.434351
 31
0.0
  0
LINE
  5
161
100
AcDbEntity
  8
wireframe
 62
7
100
AcDbLine
 10
40.878105
 20
208.434351
 30
0.0
 11
40.966300
 21
206.718971
 31
0.0
  0
LINE
  5
162
100
AcDbEntity
  8
wireframe
 62
7
100
AcDbLine
 10
40.966300
 20
206.718971
 30
0.0
 11
41.067722
 21
205.246124
 31
0.0
  0
LINE
  5
163
100
AcDbEntity
  8
wireframe
 62
7
100
AcDbLine
 10
41.067722
 20
205.246124
 30
0.0
 11
41.177966
 21
203.632165
 31
0.0
  0
LINE
  5
164
100
AcDbEntity
  8
wireframe
 62
7
100
AcDbLine
 10
41.177966
 20
203.632165
 30
0.0
 11
41.380814
 21
201.215638
 31
0.0
  0
LINE
  5
165
100
AcDbEntity
  8
wireframe
 62
7
100
AcDbLine
 10
41.380814
 20
201.215638
 30
0.0
 11
41.663036
 21
198.596263
 31
0.0
  0
LINE
  5
166
100
AcDbEntity
  8
wireframe
 62
7
100
AcDbLine
 10
41.663036
 20
198.596263
 30
0.0
 11
41.896750
 21
196.832374
 31
0.0
  0
LINE
  5
167
100
AcDbEntity
  8
wireframe
 62
7
100
AcDbLine
 10
41.896750
 20
196.832374
 30
0.0
 11
42.192202
 21
194.896504
 31
0.0
  0
LINE
  5
168
100
AcDbEntity
  8
wireframe
 62
7
100
AcDbLine
 10
42.192202
 20
194.896504
 30
0.0
 11
42.558208
 21
192.920949
 31
0.0
  0
LINE
  5
169
100
AcDbEntity
  8
wireframe
 62
7
100
AcDbLine
 10
42.558208
 20
192.920949
 30
0.0
 11
43.047689
 21
190.777824
 31
0.0
  0
LINE
  5
16a
100
AcDbEntity
  8
wireframe
 62
7
100
AcDbLine
 10
43.047689
 20
190.777824
 30
0.0
 11
43.528347
 21
189.005115
 31
0.0
  0
LINE
  5
16b
100
AcDbEntity
  8
wireframe
 62
7
100
AcDbLine
 10
43.528347
 20
189.005115
 30
0.0
 11
44.242722
 21
186.861990
 31
0.0
  0
LINE
  5
16c
100
AcDbEntity
  8
wireframe
 62
7
100
AcDbLine
 10
44.242722
 20
186.861990
 30
0.0
 11
44.564633
 21
186.068240
 31
0.0
  0
LINE
  5
16d
100
AcDbEntity
  8
wireframe
 62
7
100
AcDbLine
 10
44.564633
 20
186.068240
 30
0.0
 11
44.595500
 21
186.059435
 31
0.0
  0
LINE
  5
16e
100
AcDbEntity
  8
wireframe
 62
7
100
AcDbLine
 10
44.595500
 20
186.059435
 30
0.0
 11
45.146716
 21
187.585199
 31
0.0
  0
LINE
  5
16f
100
AcDbEntity
  8
wireframe
 62
7
100
AcDbLine
 10
45.146716
 20
187.585199
 30
0.0
 11
45.834633
 21
189.860616
 31
0.0
  0
LINE
  5
170
100
AcDbEntity
  8
wireframe
 62
7
100
AcDbLine
 10
45.834633
 20
189.860616
 30
0.0
 11
46.434355
 21
192.316832
 31
0.0
  0
LINE
  5
171
100
AcDbEntity
  8
wireframe
 62
7
100
AcDbLine
 10
46.434355
 20
192.316832
 30
0.0
 11
47.012027
 21
195.368360
 31
0.0
  0
LINE
  5
172
100
AcDbEntity
  8
wireframe
 62
7
100
AcDbLine
 10
47.012027
 20
195.368360
 30
0.0
 11
47.470639
 21
198.609504
 31
0.0
  0
LINE
  5
173
100
AcDbEntity
  8
wireframe
 62
7
100
AcDbLine
 10
47.470639
 20
198.609504
 30
0.0
 11
47.792550
 21
201.652213
 31
0.0
  0
LINE
  5
174
100
AcDbEntity
  8
wireframe
 62
7
100
AcDbLine
 10
47.792550
 20
201.652213
 30
0.0
 11
48.065952
 21
205.135893
 31
0.0
  0
LINE
  5
175
100
AcDbEntity
  8
wireframe
 62
7
100
AcDbLine
 10
48.065952
 20
205.135893
 30
0.0
 11
48.299666
 21
209.170791
 31
0.0
  0
LINE
  5
176
100
AcDbEntity
  8
wireframe
 62
7
100
AcDbLine
 10
48.299666
 20
209.170791
 30
0.0
 11
48.440777
 21
212.539818
 31
0.0
  0
LINE
  5
177
100
AcDbEntity
  8
wireframe
 62
7
100
AcDbLine
 10
48.440777
 20
212.539818
 30
0.0
 11
48.555430
 21
216.424782
 31
0.0
  0
LINE
  5
178
100
AcDbEntity
  8
wireframe
 62
7
100
AcDbLine
 10
48.555430
 20
216.424782
 30
0.0
 11
48.643625
 21
221.178463
 31
0.0
  0
LINE
  5
179
100
AcDbEntity
  8
wireframe
 62
7
100
AcDbLine
 10
48.643625
 20
221.178463
 30
0.0
 11
48.687722
 21
224.856171
 31
0.0
  0
LINE
  5
17a
100
AcDbEntity
  8
wireframe
 62
7
100
AcDbLine
 10
48.687722
 20
224.856171
 30
0.0
 11
48.718591
 21
229.301171
 31
0.0
  0
LINE
  5
17b
100
AcDbEntity
  8
wireframe
 62
7
100
AcDbLine
 10
48.718591
 20
229.301171
 30
0.0
 11
48.736230
 21
235.898116
 31
0.0
  0
LINE
  5
17c
100
AcDbEntity
  8
wireframe
 62
7
100
AcDbLine
 10
48.736230
 20
235.898116
 30
0.0
 11
48.753869
 21
239.412666
 31
0.0
  0
LINE
  5
17d
100
AcDbEntity
  8
wireframe
 62
7
100
AcDbLine
 10
48.753869
 20
239.412666
 30
0.0
 11
54.243972
 21
239.421471
 31
0.0
  0
LINE
  5
17e
100
AcDbEntity
  8
wireframe
 62
7
100
AcDbLine
 10
54.243972
 20
239.421471
 30
0.0
 11
54.248375
 21
242.499457
 31
0.0
  0
LINE
  5
17f
100
AcDbEntity
  8
wireframe
 62
7
100
AcDbLine
 10
54.248375
 20
242.499457
 30
0.0
 11
34.885311
 21
242.486221
 31
0.0
  0
LINE
  5
180
100
AcDbEntity
  8
wireframe
 62
7
100
AcDbLine
 10
46.661476
 20
274.661759
 30
0.0
 11
42.496492
 21
274.659558
 31
0.0
  0
LINE
  5
181
100
AcDbEntity
  8
wireframe
 62
7
100
AcDbLine
 10
42.496492
 20
274.659558
 30
0.0
 11
42.353176
 21
274.752162
 31
0.0
  0
LINE
  5
182
100
AcDbEntity
  8
wireframe
 62
7
100
AcDbLine
 10
42.353176
 20
274.752162
 30
0.0
 11
42.192222
 21
274.891068
 31
0.0
  0
LINE
  5
183
100
AcDbEntity
  8
wireframe
 62
7
100
AcDbLine
 10
42.192222
 20
274.891068
 30
0.0
 11
42.077569
 21
275.029975
 31
0.0
  0
LINE
  5
184
100
AcDbEntity
  8
wireframe
 62
7
100
AcDbLine
 10
42.077569
 20
275.029975
 30
0.0
 11
41.958506
 21
275.166676
 31
0.0
  0
LINE
  5
185
100
AcDbEntity
  8
wireframe
 62
7
100
AcDbLine
 10
41.958506
 20
275.166676
 30
0.0
 11
41.861492
 21
275.356294
 31
0.0
  0
LINE
  5
186
100
AcDbEntity
  8
wireframe
 62
7
100
AcDbLine
 10
41.861492
 20
275.356294
 30
0.0
 11
41.826214
 21
275.475357
 31
0.0
  0
LINE
  5
187
100
AcDbEntity
  8
wireframe
 62
7
100
AcDbLine
 10
41.826214
 20
275.475357
 30
0.0
 11
41.775504
 21
275.722301
 31
0.0
  0
LINE
  5
188
100
AcDbEntity
  8
wireframe
 62
7
100
AcDbLine
 10
41.775504
 20
275.722301
 30
0.0
 11
41.777762
 21
275.801676
 31
0.0
  0
LINE
  5
189
100
AcDbEntity
  8
wireframe
 62
7
100
AcDbLine
 10
41.777762
 20
275.801676
 30
0.0
 11
41.799804
 21
275.956016
 31
0.0
  0
LINE
  5
18a
100
AcDbEntity
  8
wireframe
 62
7
100
AcDbLine
 10
41.799804
 20
275.956016
 30
0.0
 11
41.868155
 21
276.163273
 31
0.0
  0
LINE
  5
18b
100
AcDbEntity
  8
wireframe
 62
7
100
AcDbLine
 10
41.868155
 20
276.163273
 30
0.0
 11
41.985012
 21
276.328638
 31
0.0
  0
LINE
  5
18c
100
AcDbEntity
  8
wireframe
 62
7
100
AcDbLine
 10
41.985012
 20
276.328638
 30
0.0
 11
42.097460
 21
276.441086
 31
0.0
  0
LINE
  5
18d
100
AcDbEntity
  8
wireframe
 62
7
100
AcDbLine
 10
42.097460
 20
276.441086
 30
0.0
 11
42.289284
 21
276.575582
 31
0.0
  0
LINE
  5
18e
100
AcDbEntity
  8
wireframe
 62
7
100
AcDbLine
 10
42.289284
 20
276.575582
 30
0.0
 11
42.448034
 21
276.670391
 31
0.0
  0
LINE
  5
18f
100
AcDbEntity
  8
wireframe
 62
7
100
AcDbLine
 10
42.448034
 20
276.670391
 30
0.0
 11
42.679544
 21
276.760791
 31
0.0
  0
LINE
  5
190
100
AcDbEntity
  8
wireframe
 62
7
100
AcDbLine
 10
42.679544
 20
276.760791
 30
0.0
 11
42.913260
 21
276.829141
 31
0.0
  0
LINE
  5
191
100
AcDbEntity
  8
wireframe
 62
7
100
AcDbLine
 10
42.913260
 20
276.829141
 30
0.0
 11
43.204302
 21
276.890878
 31
0.0
  0
LINE
  5
192
100
AcDbEntity
  8
wireframe
 62
7
100
AcDbLine
 10
43.204302
 20
276.890878
 30
0.0
 11
43.327774
 21
276.921746
 31
0.0
  0
LINE
  5
193
100
AcDbEntity
  8
wireframe
 62
7
100
AcDbLine
 10
43.327774
 20
276.921746
 30
0.0
 11
43.497548
 21
276.941589
 31
0.0
  0
LINE
  5
194
100
AcDbEntity
  8
wireframe
 62
7
100
AcDbLine
 10
43.497548
 20
276.941589
 30
0.0
 11
43.929701
 21
276.990096
 31
0.0
  0
LINE
  5
195
100
AcDbEntity
  8
wireframe
 62
7
100
AcDbLine
 10
43.929701
 20
276.990096
 30
0.0
 11
44.108294
 21
277.012146
 31
0.0
  0
LINE
  5
196
100
AcDbEntity
  8
wireframe
 62
7
100
AcDbLine
 10
44.108294
 20
277.012146
 30
0.0
 11
45.029927
 21
277.014347
 31
0.0
  0
LINE
  5
197
100
AcDbEntity
  8
wireframe
 62
7
100
AcDbLine
 10
45.029927
 20
277.014347
 30
0.0
 11
45.237183
 21
276.985684
 31
0.0
  0
LINE
  5
198
100
AcDbEntity
  8
wireframe
 62
7
100
AcDbLine
 10
45.237183
 20
276.985684
 30
0.0
 11
45.490742
 21
276.968045
 31
0.0
  0
LINE
  5
199
100
AcDbEntity
  8
wireframe
 62
7
100
AcDbLine
 10
45.490742
 20
276.968045
 30
0.0
 11
45.947149
 21
276.895284
 31
0.0
  0
LINE
  5
19a
100
AcDbEntity
  8
wireframe
 62
7
100
AcDbLine
 10
45.947149
 20
276.895284
 30
0.0
 11
46.240395
 21
276.826934
 31
0.0
  0
LINE
  5
19b
100
AcDbEntity
  8
wireframe
 62
7
100
AcDbLine
 10
46.240395
 20
276.826934
 30
0.0
 11
46.524822
 21
276.734329
 31
0.0
  0
LINE
  5
19c
100
AcDbEntity
  8
wireframe
 62
7
100
AcDbLine
 10
46.524822
 20
276.734329
 30
0.0
 11
46.780585
 21
276.619677
 31
0.0
  0
LINE
  5
19d
100
AcDbEntity
  8
wireframe
 62
7
100
AcDbLine
 10
46.780585
 20
276.619677
 30
0.0
 11
46.937131
 21
276.531482
 31
0.0
  0
LINE
  5
19e
100
AcDbEntity
  8
wireframe
 62
7
100
AcDbLine
 10
46.937131
 20
276.531482
 30
0.0
 11
47.126748
 21
276.370528
 31
0.0
  0
LINE
  5
19f
100
AcDbEntity
  8
wireframe
 62
7
100
AcDbLine
 10
47.126748
 20
276.370528
 30
0.0
 11
47.263451
 21
276.180909
 31
0.0
  0
LINE
  5
1a0
100
AcDbEntity
  8
wireframe
 62
7
100
AcDbLine
 10
47.263451
 20
276.180909
 30
0.0
 11
47.351645
 21
275.929555
 31
0.0
  0
LINE
  5
1a1
100
AcDbEntity
  8
wireframe
 62
7
100
AcDbLine
 10
47.351645
 20
275.929555
 30
0.0
 11
47.358249
 21
275.612055
 31
0.0
  0
LINE
  5
1a2
100
AcDbEntity
  8
wireframe
 62
7
100
AcDbLine
 10
47.358249
 20
275.612055
 30
0.0
 11
47.331805
 21
275.492993
 31
0.0
  0
LINE
  5
1a3
100
AcDbEntity
  8
wireframe
 62
7
100
AcDbLine
 10
47.331805
 20
275.492993
 30
0.0
 11
47.241404
 21
275.257073
 31
0.0
  0
LINE
  5
1a4
100
AcDbEntity
  8
wireframe
 62
7
100
AcDbLine
 10
47.241404
 20
275.257073
 30
0.0
 11
47.104704
 21
275.052021
 31
0.0
  0
LINE
  5
1a5
100
AcDbEntity
  8
wireframe
 62
7
100
AcDbLine
 10
47.104704
 20
275.052021
 30
0.0
 11
46.983436
 21
274.930753
 31
0.0
  0
LINE
  5
1a6
100
AcDbEntity
  8
wireframe
 62
7
100
AcDbLine
 10
46.983436
 20
274.930753
 30
0.0
 11
46.844529
 21
274.796257
 31
0.0
  0
LINE
  5
1a7
100
AcDbEntity
  8
wireframe
 62
7
100
AcDbLine
 10
46.844529
 20
274.796257
 30
0.0
 11
46.727672
 21
274.708062
 31
0.0
  0
LINE
  5
1a8
100
AcDbEntity
  8
wireframe
 62
7
100
AcDbLine
 10
46.727672
 20
274.708062
 30
0.0
 11
46.661476
 21
274.661759
 31
0.0
  0
LINE
  5
1a9
100
AcDbEntity
  8
wireframe
 62
7
100
AcDbLine
 10
74.978508
 20
241.369459
 30
0.0
 11
74.702899
 21
240.980300
 31
0.0
  0
LINE
  5
1aa
100
AcDbEntity
  8
wireframe
 62
7
100
AcDbLine
 10
74.702899
 20
240.980300
 30
0.0
 11
74.473593
 21
240.657288
 31
0.0
  0
LINE
  5
1ab
100
AcDbEntity
  8
wireframe
 62
7
100
AcDbLine
 10
74.473593
 20
240.657288
 30
0.0
 11
74.355633
 21
240.495231
 31
0.0
  0
LINE
  5
1ac
100
AcDbEntity
  8
wireframe
 62
7
100
AcDbLine
 10
74.355633
 20
240.495231
 30
0.0
 11
74.028213
 21
240.036619
 31
0.0
  0
LINE
  5
1ad
100
AcDbEntity
  8
wireframe
 62
7
100
AcDbLine
 10
74.028213
 20
240.036619
 30
0.0
 11
72.188163
 21
237.421763
 31
0.0
  0
LINE
  5
1ae
100
AcDbEntity
  8
wireframe
 62
7
100
AcDbLine
 10
72.188163
 20
237.421763
 30
0.0
 11
69.413016
 21
233.483546
 31
0.0
  0
LINE
  5
1af
100
AcDbEntity
  8
wireframe
 62
7
100
AcDbLine
 10
69.413016
 20
233.483546
 30
0.0
 11
65.827148
 21
228.404088
 31
0.0
  0
LINE
  5
1b0
100
AcDbEntity
  8
wireframe
 62
7
100
AcDbLine
 10
65.827148
 20
228.404088
 30
0.0
 11
73.310694
 21
228.407193
 31
0.0
  0
LINE
  5
1b1
100
AcDbEntity
  8
wireframe
 62
7
100
AcDbLine
 10
73.310694
 20
228.407193
 30
0.0
 11
68.228120
 21
221.516094
 31
0.0
  0
LINE
  5
1b2
100
AcDbEntity
  8
wireframe
 62
7
100
AcDbLine
 10
68.228120
 20
221.516094
 30
0.0
 11
68.225015
 21
221.447494
 31
0.0
  0
LINE
  5
1b3
100
AcDbEntity
  8
wireframe
 62
7
100
AcDbLine
 10
68.225015
 20
221.447494
 30
0.0
 11
70.417072
 21
216.099877
 31
0.0
  0
LINE
  5
1b4
100
AcDbEntity
  8
wireframe
 62
7
100
AcDbLine
 10
70.417072
 20
216.099877
 30
0.0
 11
74.174435
 21
216.096744
 31
0.0
  0
LINE
  5
1b5
100
AcDbEntity
  8
wireframe
 62
7
100
AcDbLine
 10
74.174435
 20
216.096744
 30
0.0
 11
74.174435
 21
216.074928
 31
0.0
  0
LINE
  5
1b6
100
AcDbEntity
  8
wireframe
 62
7
100
AcDbLine
 10
74.174435
 20
216.074928
 30
0.0
 11
71.380579
 21
213.649014
 31
0.0
  0
LINE
  5
1b7
100
AcDbEntity
  8
wireframe
 62
7
100
AcDbLine
 10
71.380579
 20
213.649014
 30
0.0
 11
71.380579
 21
213.586651
 31
0.0
  0
LINE
  5
1b8
100
AcDbEntity
  8
wireframe
 62
7
100
AcDbLine
 10
71.380579
 20
213.586651
 30
0.0
 11
72.902233
 21
209.464463
 31
0.0
  0
LINE
  5
1b9
100
AcDbEntity
  8
wireframe
 62
7
100
AcDbLine
 10
72.902233
 20
209.464463
 30
0.0
 11
73.550805
 21
207.634113
 31
0.0
  0
LINE
  5
1ba
100
AcDbEntity
  8
wireframe
 62
7
100
AcDbLine
 10
73.550805
 20
207.634113
 30
0.0
 11
74.037238
 21
206.230947
 31
0.0
  0
LINE
  5
1bb
100
AcDbEntity
  8
wireframe
 62
7
100
AcDbLine
 10
74.037238
 20
206.230947
 30
0.0
 11
74.514312
 21
204.830901
 31
0.0
  0
LINE
  5
1bc
100
AcDbEntity
  8
wireframe
 62
7
100
AcDbLine
 10
74.514312
 20
204.830901
 30
0.0
 11
74.950853
 21
203.511925
 31
0.0
  0
LINE
  5
1bd
100
AcDbEntity
  8
wireframe
 62
7
100
AcDbLine
 10
74.950853
 20
203.511925
 30
0.0
 11
75.493412
 21
201.884253
 31
0.0
  0
LINE
  5
1be
100
AcDbEntity
  8
wireframe
 62
7
100
AcDbLine
 10
75.493412
 20
201.884253
 30
0.0
 11
83.276299
 21
201.881149
 31
0.0
  0
LINE
  5
1bf
100
AcDbEntity
  8
wireframe
 62
7
100
AcDbLine
 10
83.276299
 20
201.881149
 30
0.0
 11
83.270062
 21
202.878957
 31
0.0
  0
LINE
  5
1c0
100
AcDbEntity
  8
wireframe
 62
7
100
AcDbLine
 10
83.270062
 20
202.878957
 30
0.0
 11
83.220173
 21
204.007724
 31
0.0
  0
LINE
  5
1c1
100
AcDbEntity
  8
wireframe
 62
7
100
AcDbLine
 10
83.220173
 20
204.007724
 30
0.0
 11
83.157811
 21
205.061658
 31
0.0
  0
LINE
  5
1c2
100
AcDbEntity
  8
wireframe
 62
7
100
AcDbLine
 10
83.157811
 20
205.061658
 30
0.0
 11
83.070502
 21
206.156127
 31
0.0
  0
LINE
  5
1c3
100
AcDbEntity
  8
wireframe
 62
7
100
AcDbLine
 10
83.070502
 20
206.156127
 30
0.0
 11
82.945774
 21
207.278657
 31
0.0
  0
LINE
  5
1c4
100
AcDbEntity
  8
wireframe
 62
7
100
AcDbLine
 10
82.945774
 20
207.278657
 30
0.0
 11
82.786751
 21
208.610105
 31
0.0
  0
LINE
  5
1c5
100
AcDbEntity
  8
wireframe
 62
7
100
AcDbLine
 10
82.786751
 20
208.610105
 30
0.0
 11
82.633961
 21
209.810591
 31
0.0
  0
LINE
  5
1c6
100
AcDbEntity
  8
wireframe
 62
7
100
AcDbLine
 10
82.633961
 20
209.810591
 30
0.0
 11
82.421928
 21
211.191931
 31
0.0
  0
LINE
  5
1c7
100
AcDbEntity
  8
wireframe
 62
7
100
AcDbLine
 10
82.421928
 20
211.191931
 30
0.0
 11
82.237955
 21
212.342525
 31
0.0
  0
LINE
  5
1c8
100
AcDbEntity
  8
wireframe
 62
7
100
AcDbLine
 10
82.237955
 20
212.342525
 30
0.0
 11
82.032159
 21
213.539893
 31
0.0
  0
LINE
  5
1c9
100
AcDbEntity
  8
wireframe
 62
7
100
AcDbLine
 10
82.032159
 20
213.539893
 30
0.0
 11
81.776471
 21
214.927466
 31
0.0
  0
LINE
  5
1ca
100
AcDbEntity
  8
wireframe
 62
7
100
AcDbLine
 10
81.776471
 20
214.927466
 30
0.0
 11
81.527021
 21
216.243325
 31
0.0
  0
LINE
  5
1cb
100
AcDbEntity
  8
wireframe
 62
7
100
AcDbLine
 10
81.527021
 20
216.243325
 30
0.0
 11
81.243269
 21
217.624661
 31
0.0
  0
LINE
  5
1cc
100
AcDbEntity
  8
wireframe
 62
7
100
AcDbLine
 10
81.243269
 20
217.624661
 30
0.0
 11
80.878446
 21
219.352113
 31
0.0
  0
LINE
  5
1cd
100
AcDbEntity
  8
wireframe
 62
7
100
AcDbLine
 10
80.878446
 20
219.352113
 30
0.0
 11
80.507386
 21
221.032794
 31
0.0
  0
LINE
  5
1ce
100
AcDbEntity
  8
wireframe
 62
7
100
AcDbLine
 10
80.507386
 20
221.032794
 30
0.0
 11
80.067729
 21
222.916153
 31
0.0
  0
LINE
  5
1cf
100
AcDbEntity
  8
wireframe
 62
7
100
AcDbLine
 10
80.067729
 20
222.916153
 30
0.0
 11
79.743441
 21
224.253836
 31
0.0
  0
LINE
  5
1d0
100
AcDbEntity
  8
wireframe
 62
7
100
AcDbLine
 10
79.743441
 20
224.253836
 30
0.0
 11
79.126049
 21
226.770180
 31
0.0
  0
LINE
  5
1d1
100
AcDbEntity
  8
wireframe
 62
7
100
AcDbLine
 10
79.126049
 20
226.770180
 30
0.0
 11
78.664562
 21
228.547522
 31
0.0
  0
LINE
  5
1d2
100
AcDbEntity
  8
wireframe
 62
7
100
AcDbLine
 10
78.664562
 20
228.547522
 30
0.0
 11
78.131360
 21
230.552488
 31
0.0
  0
LINE
  5
1d3
100
AcDbEntity
  8
wireframe
 62
7
100
AcDbLine
 10
78.131360
 20
230.552488
 30
0.0
 11
77.146026
 21
234.113410
 31
0.0
  0
LINE
  5
1d4
100
AcDbEntity
  8
wireframe
 62
7
100
AcDbLine
 10
77.146026
 20
234.113410
 30
0.0
 11
76.425735
 21
236.604806
 31
0.0
  0
LINE
  5
1d5
100
AcDbEntity
  8
wireframe
 62
7
100
AcDbLine
 10
76.425735
 20
236.604806
 30
0.0
 11
75.602544
 21
239.386190
 31
0.0
  0
LINE
  5
1d6
100
AcDbEntity
  8
wireframe
 62
7
100
AcDbLine
 10
75.602544
 20
239.386190
 30
0.0
 11
74.978508
 21
241.369459
 31
0.0
  0
LINE
  5
1d7
100
AcDbEntity
  8
wireframe
 62
7
100
AcDbLine
 10
53.229756
 20
293.718374
 30
0.0
 11
45.983480
 21
293.727193
 31
0.0
  0
LINE
  5
1d8
100
AcDbEntity
  8
wireframe
 62
7
100
AcDbLine
 10
45.983480
 20
293.727193
 30
0.0
 11
45.987883
 21
277.745258
 31
0.0
  0
LINE
  5
1d9
100
AcDbEntity
  8
wireframe
 62
7
100
AcDbLine
 10
45.987883
 20
277.745258
 30
0.0
 11
46.318610
 21
277.679112
 31
0.0
  0
LINE
  5
1da
100
AcDbEntity
  8
wireframe
 62
7
100
AcDbLine
 10
46.318610
 20
277.679112
 30
0.0
 11
46.572170
 21
277.611864
 31
0.0
  0
LINE
  5
1db
100
AcDbEntity
  8
wireframe
 62
7
100
AcDbLine
 10
46.572170
 20
277.611864
 30
0.0
 11
46.780529
 21
277.542410
 31
0.0
  0
LINE
  5
1dc
100
AcDbEntity
  8
wireframe
 62
7
100
AcDbLine
 10
46.780529
 20
277.542410
 30
0.0
 11
46.963533
 21
277.475162
 31
0.0
  0
LINE
  5
1dd
100
AcDbEntity
  8
wireframe
 62
7
100
AcDbLine
 10
46.963533
 20
277.475162
 30
0.0
 11
47.287648
 21
277.309798
 31
0.0
  0
LINE
  5
1de
100
AcDbEntity
  8
wireframe
 62
7
100
AcDbLine
 10
47.287648
 20
277.309798
 30
0.0
 11
47.494904
 21
277.171994
 31
0.0
  0
LINE
  5
1df
100
AcDbEntity
  8
wireframe
 62
7
100
AcDbLine
 10
47.494904
 20
277.171994
 30
0.0
 11
47.676805
 21
277.035292
 31
0.0
  0
LINE
  5
1e0
100
AcDbEntity
  8
wireframe
 62
7
100
AcDbLine
 10
47.676805
 20
277.035292
 30
0.0
 11
47.770514
 21
276.940483
 31
0.0
  0
LINE
  5
1e1
100
AcDbEntity
  8
wireframe
 62
7
100
AcDbLine
 10
47.770514
 20
276.940483
 30
0.0
 11
47.862013
 21
276.852289
 31
0.0
  0
LINE
  5
1e2
100
AcDbEntity
  8
wireframe
 62
7
100
AcDbLine
 10
47.862013
 20
276.852289
 30
0.0
 11
47.953515
 21
276.714485
 31
0.0
  0
LINE
  5
1e3
100
AcDbEntity
  8
wireframe
 62
7
100
AcDbLine
 10
47.953515
 20
276.714485
 30
0.0
 11
48.070375
 21
276.507228
 31
0.0
  0
LINE
  5
1e4
100
AcDbEntity
  8
wireframe
 62
7
100
AcDbLine
 10
48.070375
 20
276.507228
 30
0.0
 11
48.139827
 21
276.346273
 31
0.0
  0
LINE
  5
1e5
100
AcDbEntity
  8
wireframe
 62
7
100
AcDbLine
 10
48.139827
 20
276.346273
 30
0.0
 11
48.232430
 21
275.971447
 31
0.0
  0
LINE
  5
1e6
100
AcDbEntity
  8
wireframe
 62
7
100
AcDbLine
 10
48.232430
 20
275.971447
 30
0.0
 11
48.255572
 21
275.630796
 31
0.0
  0
LINE
  5
1e7
100
AcDbEntity
  8
wireframe
 62
7
100
AcDbLine
 10
48.255572
 20
275.630796
 30
0.0
 11
48.232430
 21
275.422436
 31
0.0
  0
LINE
  5
1e8
100
AcDbEntity
  8
wireframe
 62
7
100
AcDbLine
 10
48.232430
 20
275.422436
 30
0.0
 11
48.165182
 21
275.145727
 31
0.0
  0
LINE
  5
1e9
100
AcDbEntity
  8
wireframe
 62
7
100
AcDbLine
 10
48.165182
 20
275.145727
 30
0.0
 11
48.116676
 21
275.032176
 31
0.0
  0
LINE
  5
1ea
100
AcDbEntity
  8
wireframe
 62
7
100
AcDbLine
 10
48.116676
 20
275.032176
 30
0.0
 11
48.046121
 21
274.871221
 31
0.0
  0
LINE
  5
1eb
100
AcDbEntity
  8
wireframe
 62
7
100
AcDbLine
 10
48.046121
 20
274.871221
 30
0.0
 11
47.930364
 21
274.686013
 31
0.0
  0
LINE
  5
1ec
100
AcDbEntity
  8
wireframe
 62
7
100
AcDbLine
 10
47.930364
 20
274.686013
 30
0.0
 11
47.816815
 21
274.525058
 31
0.0
  0
LINE
  5
1ed
100
AcDbEntity
  8
wireframe
 62
7
100
AcDbLine
 10
47.816815
 20
274.525058
 30
0.0
 11
47.677908
 21
274.363001
 31
0.0
  0
LINE
  5
1ee
100
AcDbEntity
  8
wireframe
 62
7
100
AcDbLine
 10
47.677908
 20
274.363001
 30
0.0
 11
47.515851
 21
274.202046
 31
0.0
  0
LINE
  5
1ef
100
AcDbEntity
  8
wireframe
 62
7
100
AcDbLine
 10
47.515851
 20
274.202046
 30
0.0
 11
47.353793
 21
274.065345
 31
0.0
  0
LINE
  5
1f0
100
AcDbEntity
  8
wireframe
 62
7
100
AcDbLine
 10
47.353793
 20
274.065345
 30
0.0
 11
47.236936
 21
273.974945
 31
0.0
  0
LINE
  5
1f1
100
AcDbEntity
  8
wireframe
 62
7
100
AcDbLine
 10
47.236936
 20
273.974945
 30
0.0
 11
47.236936
 21
273.595709
 31
0.0
  0
LINE
  5
1f2
100
AcDbEntity
  8
wireframe
 62
7
100
AcDbLine
 10
47.236936
 20
273.595709
 30
0.0
 11
47.252374
 21
273.186707
 31
0.0
  0
LINE
  5
1f3
100
AcDbEntity
  8
wireframe
 62
7
100
AcDbLine
 10
47.252374
 20
273.186707
 30
0.0
 11
47.261179
 21
272.543990
 31
0.0
  0
LINE
  5
1f4
100
AcDbEntity
  8
wireframe
 62
7
100
AcDbLine
 10
47.261179
 20
272.543990
 30
0.0
 11
47.309684
 21
271.667558
 31
0.0
  0
LINE
  5
1f5
100
AcDbEntity
  8
wireframe
 62
7
100
AcDbLine
 10
47.309684
 20
271.667558
 30
0.0
 11
47.426959
 21
270.050027
 31
0.0
  0
LINE
  5
1f6
100
AcDbEntity
  8
wireframe
 62
7
100
AcDbLine
 10
47.426959
 20
270.050027
 30
0.0
 11
47.539210
 21
268.765352
 31
0.0
  0
LINE
  5
1f7
100
AcDbEntity
  8
wireframe
 62
7
100
AcDbLine
 10
47.539210
 20
268.765352
 30
0.0
 11
47.626518
 21
267.823672
 31
0.0
  0
LINE
  5
1f8
100
AcDbEntity
  8
wireframe
 62
7
100
AcDbLine
 10
47.626518
 20
267.823672
 30
0.0
 11
47.794898
 21
266.277072
 31
0.0
  0
LINE
  5
1f9
100
AcDbEntity
  8
wireframe
 62
7
100
AcDbLine
 10
47.794898
 20
266.277072
 30
0.0
 11
47.957043
 21
264.799071
 31
0.0
  0
LINE
  5
1fa
100
AcDbEntity
  8
wireframe
 62
7
100
AcDbLine
 10
47.957043
 20
264.799071
 30
0.0
 11
48.194022
 21
262.697444
 31
0.0
  0
LINE
  5
1fb
100
AcDbEntity
  8
wireframe
 62
7
100
AcDbLine
 10
48.194022
 20
262.697444
 30
0.0
 11
48.393581
 21
260.801611
 31
0.0
  0
LINE
  5
1fc
100
AcDbEntity
  8
wireframe
 62
7
100
AcDbLine
 10
48.393581
 20
260.801611
 30
0.0
 11
48.530781
 21
259.467044
 31
0.0
  0
LINE
  5
1fd
100
AcDbEntity
  8
wireframe
 62
7
100
AcDbLine
 10
48.530781
 20
259.467044
 30
0.0
 11
48.761523
 21
257.072309
 31
0.0
  0
LINE
  5
1fe
100
AcDbEntity
  8
wireframe
 62
7
100
AcDbLine
 10
48.761523
 20
257.072309
 30
0.0
 11
48.892485
 21
255.432166
 31
0.0
  0
LINE
  5
1ff
100
AcDbEntity
  8
wireframe
 62
7
100
AcDbLine
 10
48.892485
 20
255.432166
 30
0.0
 11
48.961127
 21
254.775015
 31
0.0
  0
LINE
  5
200
100
AcDbEntity
  8
wireframe
 62
7
100
AcDbLine
 10
48.961127
 20
254.775015
 30
0.0
 11
49.176099
 21
254.503816
 31
0.0
  0
LINE
  5
201
100
AcDbEntity
  8
wireframe
 62
7
100
AcDbLine
 10
49.176099
 20
254.503816
 30
0.0
 11
49.384461
 21
254.250259
 31
0.0
  0
LINE
  5
202
100
AcDbEntity
  8
wireframe
 62
7
100
AcDbLine
 10
49.384461
 20
254.250259
 30
0.0
 11
49.566362
 21
254.020954
 31
0.0
  0
LINE
  5
203
100
AcDbEntity
  8
wireframe
 62
7
100
AcDbLine
 10
49.566362
 20
254.020954
 30
0.0
 11
49.730623
 21
253.833538
 31
0.0
  0
LINE
  5
204
100
AcDbEntity
  8
wireframe
 62
7
100
AcDbLine
 10
49.730623
 20
253.833538
 30
0.0
 11
50.050327
 21
253.417924
 31
0.0
  0
LINE
  5
205
100
AcDbEntity
  8
wireframe
 62
7
100
AcDbLine
 10
50.050327
 20
253.417924
 30
0.0
 11
50.214589
 21
253.215076
 31
0.0
  0
LINE
  5
206
100
AcDbEntity
  8
wireframe
 62
7
100
AcDbLine
 10
50.214589
 20
253.215076
 30
0.0
 11
50.350189
 21
253.051915
 31
0.0
  0
LINE
  5
207
100
AcDbEntity
  8
wireframe
 62
7
100
AcDbLine
 10
50.350189
 20
253.051915
 30
0.0
 11
50.559651
 21
252.774104
 31
0.0
  0
LINE
  5
208
100
AcDbEntity
  8
wireframe
 62
7
100
AcDbLine
 10
50.559651
 20
252.774104
 30
0.0
 11
50.788957
 21
252.474243
 31
0.0
  0
LINE
  5
209
100
AcDbEntity
  8
wireframe
 62
7
100
AcDbLine
 10
50.788957
 20
252.474243
 30
0.0
 11
50.947707
 21
252.269189
 31
0.0
  0
LINE
  5
20a
100
AcDbEntity
  8
wireframe
 62
7
100
AcDbLine
 10
50.947707
 20
252.269189
 30
0.0
 11
51.248668
 21
251.877829
 31
0.0
  0
LINE
  5
20b
100
AcDbEntity
  8
wireframe
 62
7
100
AcDbLine
 10
51.248668
 20
251.877829
 30
0.0
 11
51.617984
 21
251.389451
 31
0.0
  0
LINE
  5
20c
100
AcDbEntity
  8
wireframe
 62
7
100
AcDbLine
 10
51.617984
 20
251.389451
 30
0.0
 11
51.871544
 21
251.045493
 31
0.0
  0
LINE
  5
20d
100
AcDbEntity
  8
wireframe
 62
7
100
AcDbLine
 10
51.871544
 20
251.045493
 30
0.0
 11
52.077696
 21
250.767679
 31
0.0
  0
LINE
  5
20e
100
AcDbEntity
  8
wireframe
 62
7
100
AcDbLine
 10
52.077696
 20
250.767679
 30
0.0
 11
52.329052
 21
250.423721
 31
0.0
  0
LINE
  5
20f
100
AcDbEntity
  8
wireframe
 62
7
100
AcDbLine
 10
52.329052
 20
250.423721
 30
0.0
 11
52.579304
 21
250.081967
 31
0.0
  0
LINE
  5
210
100
AcDbEntity
  8
wireframe
 62
7
100
AcDbLine
 10
52.579304
 20
250.081967
 30
0.0
 11
52.883573
 21
249.665249
 31
0.0
  0
LINE
  5
211
100
AcDbEntity
  8
wireframe
 62
7
100
AcDbLine
 10
52.883573
 20
249.665249
 30
0.0
 11
53.069885
 21
249.408384
 31
0.0
  0
LINE
  5
212
100
AcDbEntity
  8
wireframe
 62
7
100
AcDbLine
 10
53.069885
 20
249.408384
 30
0.0
 11
53.277141
 21
249.105215
 31
0.0
  0
LINE
  5
213
100
AcDbEntity
  8
wireframe
 62
7
100
AcDbLine
 10
53.277141
 20
249.105215
 30
0.0
 11
53.599052
 21
248.647705
 31
0.0
  0
LINE
  5
214
100
AcDbEntity
  8
wireframe
 62
7
100
AcDbLine
 10
53.599052
 20
248.647705
 30
0.0
 11
53.965057
 21
248.124050
 31
0.0
  0
LINE
  5
215
100
AcDbEntity
  8
wireframe
 62
7
100
AcDbLine
 10
53.965057
 20
248.124050
 30
0.0
 11
54.266022
 21
247.684181
 31
0.0
  0
LINE
  5
216
100
AcDbEntity
  8
wireframe
 62
7
100
AcDbLine
 10
54.266022
 20
247.684181
 30
0.0
 11
54.840389
 21
246.830899
 31
0.0
  0
LINE
  5
217
100
AcDbEntity
  8
wireframe
 62
7
100
AcDbLine
 10
54.840389
 20
246.830899
 30
0.0
 11
55.165605
 21
246.348037
 31
0.0
  0
LINE
  5
218
100
AcDbEntity
  8
wireframe
 62
7
100
AcDbLine
 10
55.165605
 20
246.348037
 30
0.0
 11
55.510667
 21
245.816663
 31
0.0
  0
LINE
  5
219
100
AcDbEntity
  8
wireframe
 62
7
100
AcDbLine
 10
55.510667
 20
245.816663
 30
0.0
 11
55.972586
 21
245.105596
 31
0.0
  0
LINE
  5
21a
100
AcDbEntity
  8
wireframe
 62
7
100
AcDbLine
 10
55.972586
 20
245.105596
 30
0.0
 11
56.733262
 21
243.902844
 31
0.0
  0
LINE
  5
21b
100
AcDbEntity
  8
wireframe
 62
7
100
AcDbLine
 10
56.733262
 20
243.902844
 30
0.0
 11
57.097064
 21
243.307533
 31
0.0
  0
LINE
  5
21c
100
AcDbEntity
  8
wireframe
 62
7
100
AcDbLine
 10
57.097064
 20
243.307533
 30
0.0
 11
57.469684
 21
242.708911
 31
0.0
  0
LINE
  5
21d
100
AcDbEntity
  8
wireframe
 62
7
100
AcDbLine
 10
57.469684
 20
242.708911
 30
0.0
 11
57.813643
 21
242.133443
 31
0.0
  0
LINE
  5
21e
100
AcDbEntity
  8
wireframe
 62
7
100
AcDbLine
 10
57.813643
 20
242.133443
 30
0.0
 11
58.297612
 21
241.324258
 31
0.0
  0
LINE
  5
21f
100
AcDbEntity
  8
wireframe
 62
7
100
AcDbLine
 10
58.297612
 20
241.324258
 30
0.0
 11
58.735276
 21
240.587836
 31
0.0
  0
LINE
  5
220
100
AcDbEntity
  8
wireframe
 62
7
100
AcDbLine
 10
58.735276
 20
240.587836
 30
0.0
 11
59.056084
 21
240.035519
 31
0.0
  0
LINE
  5
221
100
AcDbEntity
  8
wireframe
 62
7
100
AcDbLine
 10
59.056084
 20
240.035519
 30
0.0
 11
59.544461
 21
239.180033
 31
0.0
  0
LINE
  5
222
100
AcDbEntity
  8
wireframe
 62
7
100
AcDbLine
 10
59.544461
 20
239.180033
 30
0.0
 11
59.935821
 21
238.494320
 31
0.0
  0
LINE
  5
223
100
AcDbEntity
  8
wireframe
 62
7
100
AcDbLine
 10
59.935821
 20
238.494320
 30
0.0
 11
60.418686
 21
237.615683
 31
0.0
  0
LINE
  5
224
100
AcDbEntity
  8
wireframe
 62
7
100
AcDbLine
 10
60.418686
 20
237.615683
 30
0.0
 11
60.826585
 21
236.881465
 31
0.0
  0
LINE
  5
225
100
AcDbEntity
  8
wireframe
 62
7
100
AcDbLine
 10
60.826585
 20
236.881465
 30
0.0
 11
61.155112
 21
236.276231
 31
0.0
  0
LINE
  5
226
100
AcDbEntity
  8
wireframe
 62
7
100
AcDbLine
 10
61.155112
 20
236.276231
 30
0.0
 11
61.546475
 21
235.543114
 31
0.0
  0
LINE
  5
227
100
AcDbEntity
  8
wireframe
 62
7
100
AcDbLine
 10
61.546475
 20
235.543114
 30
0.0
 11
61.957512
 21
234.765103
 31
0.0
  0
LINE
  5
228
100
AcDbEntity
  8
wireframe
 62
7
100
AcDbLine
 10
61.957512
 20
234.765103
 30
0.0
 11
62.144600
 21
234.392485
 31
0.0
  0
LINE
  5
229
100
AcDbEntity
  8
wireframe
 62
7
100
AcDbLine
 10
62.144600
 20
234.392485
 30
0.0
 11
62.375342
 21
233.973095
 31
0.0
  0
LINE
  5
22a
100
AcDbEntity
  8
wireframe
 62
7
100
AcDbLine
 10
62.375342
 20
233.973095
 30
0.0
 11
62.632590
 21
233.467956
 31
0.0
  0
LINE
  5
22b
100
AcDbEntity
  8
wireframe
 62
7
100
AcDbLine
 10
62.632590
 20
233.467956
 30
0.0
 11
62.788498
 21
233.168615
 31
0.0
  0
LINE
  5
22c
100
AcDbEntity
  8
wireframe
 62
7
100
AcDbLine
 10
62.788498
 20
233.168615
 30
0.0
 11
62.816551
 21
233.098457
 31
0.0
  0
LINE
  5
22d
100
AcDbEntity
  8
wireframe
 62
7
100
AcDbLine
 10
62.816551
 20
233.098457
 30
0.0
 11
62.843052
 21
233.096764
 31
0.0
  0
LINE
  5
22e
100
AcDbEntity
  8
wireframe
 62
7
100
AcDbLine
 10
62.843052
 20
233.096764
 30
0.0
 11
63.067559
 21
233.311916
 31
0.0
  0
LINE
  5
22f
100
AcDbEntity
  8
wireframe
 62
7
100
AcDbLine
 10
63.067559
 20
233.311916
 30
0.0
 11
63.412113
 21
233.611258
 31
0.0
  0
LINE
  5
230
100
AcDbEntity
  8
wireframe
 62
7
100
AcDbLine
 10
63.412113
 20
233.611258
 30
0.0
 11
68.550815
 21
238.149718
 31
0.0
  0
LINE
  5
231
100
AcDbEntity
  8
wireframe
 62
7
100
AcDbLine
 10
68.550815
 20
238.149718
 30
0.0
 11
71.134199
 21
240.429080
 31
0.0
  0
LINE
  5
232
100
AcDbEntity
  8
wireframe
 62
7
100
AcDbLine
 10
71.134199
 20
240.429080
 30
0.0
 11
74.380959
 21
243.301888
 31
0.0
  0
LINE
  5
233
100
AcDbEntity
  8
wireframe
 62
7
100
AcDbLine
 10
74.380959
 20
243.301888
 30
0.0
 11
74.380959
 21
243.337166
 31
0.0
  0
LINE
  5
234
100
AcDbEntity
  8
wireframe
 62
7
100
AcDbLine
 10
74.380959
 20
243.337166
 30
0.0
 11
73.805488
 21
245.153972
 31
0.0
  0
LINE
  5
235
100
AcDbEntity
  8
wireframe
 62
7
100
AcDbLine
 10
73.805488
 20
245.153972
 30
0.0
 11
73.069066
 21
247.402930
 31
0.0
  0
LINE
  5
236
100
AcDbEntity
  8
wireframe
 62
7
100
AcDbLine
 10
73.069066
 20
247.402930
 30
0.0
 11
72.308390
 21
249.682755
 31
0.0
  0
LINE
  5
237
100
AcDbEntity
  8
wireframe
 62
7
100
AcDbLine
 10
72.308390
 20
249.682755
 30
0.0
 11
71.571965
 21
251.883208
 31
0.0
  0
LINE
  5
238
100
AcDbEntity
  8
wireframe
 62
7
100
AcDbLine
 10
71.571965
 20
251.883208
 30
0.0
 11
70.879640
 21
253.858763
 31
0.0
  0
LINE
  5
239
100
AcDbEntity
  8
wireframe
 62
7
100
AcDbLine
 10
70.879640
 20
253.858763
 30
0.0
 11
70.138806
 21
255.957791
 31
0.0
  0
LINE
  5
23a
100
AcDbEntity
  8
wireframe
 62
7
100
AcDbLine
 10
70.138806
 20
255.957791
 30
0.0
 11
69.128979
 21
258.766783
 31
0.0
  0
LINE
  5
23b
100
AcDbEntity
  8
wireframe
 62
7
100
AcDbLine
 10
69.128979
 20
258.766783
 30
0.0
 11
68.302155
 21
261.009126
 31
0.0
  0
LINE
  5
23c
100
AcDbEntity
  8
wireframe
 62
7
100
AcDbLine
 10
68.302155
 20
261.009126
 30
0.0
 11
67.563529
 21
262.938380
 31
0.0
  0
SPLINE
  5
23d
100
AcDbEntity
  8
wireframe
 62
7
100
AcDbSpline
 70
8
 71
3
 72
8
 73
4
 74
0
 40
0
 40
0
 40
0
 40
0
 40
1
 40
1
 40
1
 40
1
 10
67.563529
 20
262.938380
 30
0.0
 10
67.563529
 20
262.938380
 30
0.0
 10
66.575751
 20
265.518069
 30
0.0
 10
66.566931
 20
265.518069
 30
0.0
  0
SPLINE
  5
23e
100
AcDbEntity
  8
wireframe
 62
7
100
AcDbSpline
 70
8
 71
3
 72
8
 73
4
 74
0
 40
0
 40
0
 40
0
 40
0
 40
1
 40
1
 40
1
 40
1
 10
66.566931
 20
265.518069
 30
0.0
 10
66.558126
 20
265.518069
 30
0.0
 10
65.718058
 20
267.661194
 30
0.0
 10
65.718058
 20
267.661194
 30
0.0
  0
LINE
  5
23f
100
AcDbEntity
  8
wireframe
 62
7
100
AcDbLine
 10
65.718058
 20
267.661194
 30
0.0
 11
64.725872
 21
270.128432
 31
0.0
  0
LINE
  5
240
100
AcDbEntity
  8
wireframe
 62
7
100
AcDbLine
 10
64.725872
 20
270.128432
 30
0.0
 11
62.536445
 21
275.307651
 31
0.0
  0
LINE
  5
241
100
AcDbEntity
  8
wireframe
 62
7
100
AcDbLine
 10
62.536445
 20
275.307651
 30
0.0
 11
61.231168
 21
278.255550
 31
0.0
  0
LINE
  5
242
100
AcDbEntity
  8
wireframe
 62
7
100
AcDbLine
 10
61.231168
 20
278.255550
 30
0.0
 11
59.956756
 21
281.022651
 31
0.0
  0
LINE
  5
243
100
AcDbEntity
  8
wireframe
 62
7
100
AcDbLine
 10
59.956756
 20
281.022651
 30
0.0
 11
58.481705
 21
284.089613
 31
0.0
  0
LINE
  5
244
100
AcDbEntity
  8
wireframe
 62
7
100
AcDbLine
 10
58.481705
 20
284.089613
 30
0.0
 11
57.052955
 21
286.918450
 31
0.0
  0
LINE
  5
245
100
AcDbEntity
  8
wireframe
 62
7
100
AcDbLine
 10
57.052955
 20
286.918450
 30
0.0
 11
55.923891
 21
289.033158
 31
0.0
  0
LINE
  5
246
100
AcDbEntity
  8
wireframe
 62
7
100
AcDbLine
 10
55.923891
 20
289.033158
 30
0.0
 11
54.907375
 21
290.860391
 31
0.0
  0
LINE
  5
247
100
AcDbEntity
  8
wireframe
 62
7
100
AcDbLine
 10
54.907375
 20
290.860391
 30
0.0
 11
53.825380
 21
292.734396
 31
0.0
  0
LINE
  5
248
100
AcDbEntity
  8
wireframe
 62
7
100
AcDbLine
 10
53.825380
 20
292.734396
 30
0.0
 11
53.229756
 21
293.718374
 31
0.0
  0
LINE
  5
249
100
AcDbEntity
  8
wireframe
 62
7
100
AcDbLine
 10
43.166769
 20
277.750770
 30
0.0
 11
43.153533
 21
293.731603
 31
0.0
  0
LINE
  5
24a
100
AcDbEntity
  8
wireframe
 62
7
100
AcDbLine
 10
43.153533
 20
293.731603
 30
0.0
 11
35.925997
 21
293.727192
 31
0.0
  0
LINE
  5
24b
100
AcDbEntity
  8
wireframe
 62
7
100
AcDbLine
 10
35.925997
 20
293.727192
 30
0.0
 11
34.360547
 21
291.085768
 31
0.0
  0
LINE
  5
24c
100
AcDbEntity
  8
wireframe
 62
7
100
AcDbLine
 10
34.360547
 20
291.085768
 30
0.0
 11
33.072908
 21
288.761845
 31
0.0
  0
LINE
  5
24d
100
AcDbEntity
  8
wireframe
 62
7
100
AcDbLine
 10
33.072908
 20
288.761845
 30
0.0
 11
32.085130
 21
286.887713
 31
0.0
  0
LINE
  5
24e
100
AcDbEntity
  8
wireframe
 62
7
100
AcDbLine
 10
32.085130
 20
286.887713
 30
0.0
 11
30.647561
 21
284.047852
 31
0.0
  0
LINE
  5
24f
100
AcDbEntity
  8
wireframe
 62
7
100
AcDbLine
 10
30.647561
 20
284.047852
 30
0.0
 11
29.337872
 21
281.322643
 31
0.0
  0
LINE
  5
250
100
AcDbEntity
  8
wireframe
 62
7
100
AcDbLine
 10
29.337872
 20
281.322643
 30
0.0
 11
28.323636
 21
279.148650
 31
0.0
  0
LINE
  5
251
100
AcDbEntity
  8
wireframe
 62
7
100
AcDbLine
 10
28.323636
 20
279.148650
 30
0.0
 11
27.516658
 21
277.349484
 31
0.0
  0
LINE
  5
252
100
AcDbEntity
  8
wireframe
 62
7
100
AcDbLine
 10
27.516658
 20
277.349484
 30
0.0
 11
25.946797
 21
273.764379
 31
0.0
  0
LINE
  5
253
100
AcDbEntity
  8
wireframe
 62
7
100
AcDbLine
 10
25.946797
 20
273.764379
 30
0.0
 11
24.288742
 21
269.786810
 31
0.0
  0
LINE
  5
254
100
AcDbEntity
  8
wireframe
 62
7
100
AcDbLine
 10
24.288742
 20
269.786810
 30
0.0
 11
22.560130
 21
265.460874
 31
0.0
  0
LINE
  5
255
100
AcDbEntity
  8
wireframe
 62
7
100
AcDbLine
 10
22.560130
 20
265.460874
 30
0.0
 11
20.972630
 21
261.320146
 31
0.0
  0
LINE
  5
256
100
AcDbEntity
  8
wireframe
 62
7
100
AcDbLine
 10
20.972630
 20
261.320146
 30
0.0
 11
19.089679
 21
256.156360
 31
0.0
  0
LINE
  5
257
100
AcDbEntity
  8
wireframe
 62
7
100
AcDbLine
 10
19.089679
 20
256.156360
 30
0.0
 11
17.056797
 21
250.331118
 31
0.0
  0
LINE
  5
258
100
AcDbEntity
  8
wireframe
 62
7
100
AcDbLine
 10
17.056797
 20
250.331118
 30
0.0
 11
15.398742
 21
245.304035
 31
0.0
  0
LINE
  5
259
100
AcDbEntity
  8
wireframe
 62
7
100
AcDbLine
 10
15.398742
 20
245.304035
 30
0.0
 11
14.772561
 21
243.368165
 31
0.0
  0
LINE
  5
25a
100
AcDbEntity
  8
wireframe
 62
7
100
AcDbLine
 10
14.772561
 20
243.368165
 30
0.0
 11
14.768150
 21
243.310840
 31
0.0
  0
LINE
  5
25b
100
AcDbEntity
  8
wireframe
 62
7
100
AcDbLine
 10
14.768150
 20
243.310840
 30
0.0
 11
26.321622
 21
233.102332
 31
0.0
  0
LINE
  5
25c
100
AcDbEntity
  8
wireframe
 62
7
100
AcDbLine
 10
26.321622
 20
233.102332
 30
0.0
 11
26.343672
 21
233.115568
 31
0.0
  0
LINE
  5
25d
100
AcDbEntity
  8
wireframe
 62
7
100
AcDbLine
 10
26.343672
 20
233.115568
 30
0.0
 11
27.825339
 21
235.964249
 31
0.0
  0
LINE
  5
25e
100
AcDbEntity
  8
wireframe
 62
7
100
AcDbLine
 10
27.825339
 20
235.964249
 30
0.0
 11
29.708289
 21
239.364143
 31
0.0
  0
LINE
  5
25f
100
AcDbEntity
  8
wireframe
 62
7
100
AcDbLine
 10
29.708289
 20
239.364143
 30
0.0
 11
31.322247
 21
242.120221
 31
0.0
  0
LINE
  5
260
100
AcDbEntity
  8
wireframe
 62
7
100
AcDbLine
 10
31.322247
 20
242.120221
 30
0.0
 11
32.773047
 21
244.457374
 31
0.0
  0
LINE
  5
261
100
AcDbEntity
  8
wireframe
 62
7
100
AcDbLine
 10
32.773047
 20
244.457374
 30
0.0
 11
35.220442
 21
248.170360
 31
0.0
  0
LINE
  5
262
100
AcDbEntity
  8
wireframe
 62
7
100
AcDbLine
 10
35.220442
 20
248.170360
 30
0.0
 11
37.222455
 21
250.974943
 31
0.0
  0
LINE
  5
263
100
AcDbEntity
  8
wireframe
 62
7
100
AcDbLine
 10
37.222455
 20
250.974943
 30
0.0
 11
40.194608
 21
254.767304
 31
0.0
  0
LINE
  5
264
100
AcDbEntity
  8
wireframe
 62
7
100
AcDbLine
 10
40.194608
 20
254.767304
 30
0.0
 11
40.212247
 21
254.948101
 31
0.0
  0
LINE
  5
265
100
AcDbEntity
  8
wireframe
 62
7
100
AcDbLine
 10
40.212247
 20
254.948101
 30
0.0
 11
40.379817
 21
256.932476
 31
0.0
  0
LINE
  5
266
100
AcDbEntity
  8
wireframe
 62
7
100
AcDbLine
 10
40.379817
 20
256.932476
 30
0.0
 11
40.538567
 21
258.661088
 31
0.0
  0
LINE
  5
267
100
AcDbEntity
  8
wireframe
 62
7
100
AcDbLine
 10
40.538567
 20
258.661088
 30
0.0
 11
40.697317
 21
260.257407
 31
0.0
  0
LINE
  5
268
100
AcDbEntity
  8
wireframe
 62
7
100
AcDbLine
 10
40.697317
 20
260.257407
 30
0.0
 11
40.860478
 21
261.747893
 31
0.0
  0
LINE
  5
269
100
AcDbEntity
  8
wireframe
 62
7
100
AcDbLine
 10
40.860478
 20
261.747893
 30
0.0
 11
41.279400
 21
265.491749
 31
0.0
  0
LINE
  5
26a
100
AcDbEntity
  8
wireframe
 62
7
100
AcDbLine
 10
41.279400
 20
265.491749
 30
0.0
 11
41.433742
 21
267.017513
 31
0.0
  0
LINE
  5
26b
100
AcDbEntity
  8
wireframe
 62
7
100
AcDbLine
 10
41.433742
 20
267.017513
 30
0.0
 11
41.552803
 21
268.155221
 31
0.0
  0
LINE
  5
26c
100
AcDbEntity
  8
wireframe
 62
7
100
AcDbLine
 10
41.552803
 20
268.155221
 30
0.0
 11
41.645408
 21
269.129767
 31
0.0
  0
LINE
  5
26d
100
AcDbEntity
  8
wireframe
 62
7
100
AcDbLine
 10
41.645408
 20
269.129767
 30
0.0
 11
41.738011
 21
270.174871
 31
0.0
  0
LINE
  5
26e
100
AcDbEntity
  8
wireframe
 62
7
100
AcDbLine
 10
41.738011
 20
270.174871
 30
0.0
 11
41.848255
 21
271.810878
 31
0.0
  0
LINE
  5
26f
100
AcDbEntity
  8
wireframe
 62
7
100
AcDbLine
 10
41.848255
 20
271.810878
 30
0.0
 11
41.927630
 21
273.513031
 31
0.0
  0
LINE
  5
270
100
AcDbEntity
  8
wireframe
 62
7
100
AcDbLine
 10
41.927630
 20
273.513031
 30
0.0
 11
41.927630
 21
273.971642
 31
0.0
  0
LINE
  5
271
100
AcDbEntity
  8
wireframe
 62
7
100
AcDbLine
 10
41.927630
 20
273.971642
 30
0.0
 11
41.733603
 21
274.112753
 31
0.0
  0
LINE
  5
272
100
AcDbEntity
  8
wireframe
 62
7
100
AcDbLine
 10
41.733603
 20
274.112753
 30
0.0
 11
41.548394
 21
274.271503
 31
0.0
  0
LINE
  5
273
100
AcDbEntity
  8
wireframe
 62
7
100
AcDbLine
 10
41.548394
 20
274.271503
 30
0.0
 11
41.363186
 21
274.480965
 31
0.0
  0
LINE
  5
274
100
AcDbEntity
  8
wireframe
 62
7
100
AcDbLine
 10
41.363186
 20
274.480965
 30
0.0
 11
41.246329
 21
274.648535
 31
0.0
  0
LINE
  5
275
100
AcDbEntity
  8
wireframe
 62
7
100
AcDbLine
 10
41.246329
 20
274.648535
 30
0.0
 11
41.111830
 21
274.877840
 31
0.0
  0
LINE
  5
276
100
AcDbEntity
  8
wireframe
 62
7
100
AcDbLine
 10
41.111830
 20
274.877840
 30
0.0
 11
40.992769
 21
275.151243
 31
0.0
  0
LINE
  5
277
100
AcDbEntity
  8
wireframe
 62
7
100
AcDbLine
 10
40.992769
 20
275.151243
 30
0.0
 11
40.950876
 21
275.309993
 31
0.0
  0
LINE
  5
278
100
AcDbEntity
  8
wireframe
 62
7
100
AcDbLine
 10
40.950876
 20
275.309993
 30
0.0
 11
40.926633
 21
275.453309
 31
0.0
  0
LINE
  5
279
100
AcDbEntity
  8
wireframe
 62
7
100
AcDbLine
 10
40.926633
 20
275.453309
 30
0.0
 11
40.902390
 21
275.704663
 31
0.0
  0
LINE
  5
27a
100
AcDbEntity
  8
wireframe
 62
7
100
AcDbLine
 10
40.902390
 20
275.704663
 30
0.0
 11
40.906793
 21
275.951608
 31
0.0
  0
LINE
  5
27b
100
AcDbEntity
  8
wireframe
 62
7
100
AcDbLine
 10
40.906793
 20
275.951608
 30
0.0
 11
40.931036
 21
276.123587
 31
0.0
  0
LINE
  5
27c
100
AcDbEntity
  8
wireframe
 62
7
100
AcDbLine
 10
40.931036
 20
276.123587
 30
0.0
 11
40.994976
 21
276.319819
 31
0.0
  0
LINE
  5
27d
100
AcDbEntity
  8
wireframe
 62
7
100
AcDbLine
 10
40.994976
 20
276.319819
 30
0.0
 11
41.114040
 21
276.584403
 31
0.0
  0
LINE
  5
27e
100
AcDbEntity
  8
wireframe
 62
7
100
AcDbLine
 10
41.114040
 20
276.584403
 30
0.0
 11
41.250740
 21
276.785045
 31
0.0
  0
LINE
  5
27f
100
AcDbEntity
  8
wireframe
 62
7
100
AcDbLine
 10
41.250740
 20
276.785045
 30
0.0
 11
41.365393
 21
276.919541
 31
0.0
  0
LINE
  5
280
100
AcDbEntity
  8
wireframe
 62
7
100
AcDbLine
 10
41.365393
 20
276.919541
 30
0.0
 11
41.526347
 21
277.082701
 31
0.0
  0
LINE
  5
281
100
AcDbEntity
  8
wireframe
 62
7
100
AcDbLine
 10
41.526347
 20
277.082701
 30
0.0
 11
41.782111
 21
277.261295
 31
0.0
  0
LINE
  5
282
100
AcDbEntity
  8
wireframe
 62
7
100
AcDbLine
 10
41.782111
 20
277.261295
 30
0.0
 11
42.128276
 21
277.448708
 31
0.0
  0
LINE
  5
283
100
AcDbEntity
  8
wireframe
 62
7
100
AcDbLine
 10
42.128276
 20
277.448708
 30
0.0
 11
42.428137
 21
277.563361
 31
0.0
  0
LINE
  5
284
100
AcDbEntity
  8
wireframe
 62
7
100
AcDbLine
 10
42.428137
 20
277.563361
 30
0.0
 11
42.650828
 21
277.631712
 31
0.0
  0
LINE
  5
285
100
AcDbEntity
  8
wireframe
 62
7
100
AcDbLine
 10
42.650828
 20
277.631712
 30
0.0
 11
42.930846
 21
277.706677
 31
0.0
  0
LINE
  5
286
100
AcDbEntity
  8
wireframe
 62
7
100
AcDbLine
 10
42.930846
 20
277.706677
 30
0.0
 11
43.166769
 21
277.750770
 31
0.0
  0
ENDSEC
  0
SECTION
  2
OBJECTS
  0
DICTIONARY
  5
C
330
0
100
AcDbDictionary
  3
ACAD_GROUP
350
D
  3
ACAD_MLINESTYLE
350
17
  0
DICTIONARY
  5
D
330
C
100
AcDbDictionary
  0
DICTIONARY
  5
1A
330
C
100
AcDbDictionary
  0
DICTIONARY
  5
17
330
C
100
AcDbDictionary
  3
STANDARD
350
18
  0
DICTIONARY
  5
19
330
C
100
AcDbDictionary
  0
ENDSEC
  0
EOF
