<?xml version="1.0" encoding="UTF-8" standalone="no"?>
<!-- Created with Inkscape (http://www.inkscape.org/) -->

<svg
   xmlns:dc="http://purl.org/dc/elements/1.1/"
   xmlns:cc="http://creativecommons.org/ns#"
   xmlns:rdf="http://www.w3.org/1999/02/22-rdf-syntax-ns#"
   xmlns:svg="http://www.w3.org/2000/svg"
   xmlns="http://www.w3.org/2000/svg"
   xmlns:sodipodi="http://sodipodi.sourceforge.net/DTD/sodipodi-0.dtd"
   xmlns:inkscape="http://www.inkscape.org/namespaces/inkscape"
   width="744.09448819"
   height="1052.3622047"
   id="svg2"
   version="1.1"
   inkscape:version="0.48.2 r9819"
   sodipodi:docname="alliance_sf.dxf">
  <defs
     id="defs4" />
  <sodipodi:namedview
     id="base"
     pagecolor="#ffffff"
     bordercolor="#666666"
     borderopacity="1.0"
     inkscape:pageopacity="0.0"
     inkscape:pageshadow="2"
     inkscape:zoom="2.8284271"
     inkscape:cx="78.184413"
     inkscape:cy="834.6816"
     inkscape:document-units="px"
     inkscape:current-layer="layer2"
     showgrid="false"
     inkscape:window-width="1858"
     inkscape:window-height="1178"
     inkscape:window-x="-8"
     inkscape:window-y="-8"
     inkscape:window-maximized="1" />
  <metadata
     id="metadata7">
    <rdf:RDF>
      <cc:Work
         rdf:about="">
        <dc:format>image/svg+xml</dc:format>
        <dc:type
           rdf:resource="http://purl.org/dc/dcmitype/StillImage" />
        <dc:title></dc:title>
      </cc:Work>
    </rdf:RDF>
  </metadata>
  <g
     inkscape:groupmode="layer"
     id="layer2"
     inkscape:label="wireframe">
    <path
       style="fill:none;stroke:#000000;stroke-width:1px;stroke-linecap:butt;stroke-linejoin:miter;stroke-opacity:1"
       d="m 151.55445,84.036264 12.69004,0.03157 0.22097,3.377697 -13.25825,4.16688 z"
       id="path2997"
       inkscape:connector-curvature="0" />
    <path
       style="fill:none;stroke:#000000;stroke-width:1px;stroke-linecap:butt;stroke-linejoin:miter;stroke-opacity:1"
       d="m 150.89154,95.274211 13.73176,-4.356283 0.75761,9.186072 -15.34169,4.82979 z"
       id="path2999"
       inkscape:connector-curvature="0" />
    <path
       style="fill:none;stroke:#000000;stroke-width:1px;stroke-linecap:butt;stroke-linejoin:miter;stroke-opacity:1"
       d="m 149.66041,108.65873 16.09931,-5.05076 0.97858,9.09137 -18.18274,5.74524 z"
       id="path3001"
       inkscape:connector-curvature="0" />
    <path
       style="fill:none;stroke:#000000;stroke-width:1px;stroke-linecap:butt;stroke-linejoin:miter;stroke-opacity:1"
       d="m 148.11362,122.16952 18.94036,-5.96621 0.97858,9.02824 -20.9291,6.72383 z"
       id="path3003"
       inkscape:connector-curvature="0" />
    <path
       style="fill:none;stroke:#000000;stroke-width:1px;stroke-linecap:butt;stroke-linejoin:miter;stroke-opacity:1"
       d="m 146.62996,135.64875 21.81298,-6.88167 0.91545,9.12294 -23.45448,7.44988 z"
       id="path3005"
       inkscape:connector-curvature="0" />
    <path
       style="fill:none;stroke:#000000;stroke-width:1px;stroke-linecap:butt;stroke-linejoin:miter;stroke-opacity:1"
       d="m 145.5251,149.06483 24.14896,-7.67084 0.78918,9.21764 -25.50635,8.08122 z"
       id="path3007"
       inkscape:connector-curvature="0" />
    <path
       style="fill:none;stroke:#000000;stroke-width:1px;stroke-linecap:butt;stroke-linejoin:miter;stroke-opacity:1"
       d="m 144.67279,162.32309 25.97986,-8.23906 0.53664,9.34391 -26.64277,8.39689 z"
       id="path3009"
       inkscape:connector-curvature="0" />
    <path
       style="fill:none;stroke:#000000;stroke-width:1px;stroke-linecap:butt;stroke-linejoin:miter;stroke-opacity:1"
       d="m 144.54652,175.39193 0.34724,9.31235 26.4218,-8.39689 -0.0947,-9.47018 z"
       id="path3011"
       inkscape:connector-curvature="0" />
    <path
       style="fill:none;stroke:#000000;stroke-width:1px;stroke-linecap:butt;stroke-linejoin:miter;stroke-opacity:1"
       d="m 145.17786,188.27138 -0.0631,0.94702 25.60105,0.0316 0.50508,-9.31234 z"
       id="path3013"
       inkscape:connector-curvature="0" />
    <path
       style="fill:none;stroke:#000000;stroke-width:1px;stroke-linecap:butt;stroke-linejoin:miter;stroke-opacity:1"
       d="m 60.758929,203.947 66.804401,58.96518 -25.52214,0.0158 26.89531,40.27983 -26.07456,0 35.63944,51.80188 -73.062435,-63.68696 32.009209,0 -31.977642,-43.56283 26.27975,-0.0316 z"
       id="path3015"
       inkscape:connector-curvature="0" />
    <path
       style="fill:none;stroke:#000000;stroke-width:1px;stroke-linecap:butt;stroke-linejoin:miter;stroke-opacity:1"
       d="m 255.16611,203.95242 -0.12232,0.004 -66.68191,58.96371 25.46234,0.0476 -26.86328,40.26953 26.07707,6.1e-4 -35.70889,51.82872 73.09275,-63.7512 -32.02343,0.008 32.05468,-43.57031 -26.28906,0 z"
       id="path3017"
       inkscape:connector-curvature="0" />
    <path
       style="fill:none;stroke:#000000;stroke-width:1px;stroke-linecap:butt;stroke-linejoin:miter;stroke-opacity:1"
       d="m 48.370523,337.03529 7.191977,-20.98561 7.5,-20.625 -10.051589,-8.77075 13.387527,-0.0105 4.489017,-11.08224 3.292466,-8.08753 -17.920738,-24.41728 26.406019,0.0221 -32.460621,-45.96194 -2.099223,6.69542 -2.784233,9.32497 -2.408582,8.39689 -2.452777,8.86093 -1.414213,5.06024 -1.171146,4.552 -2.165515,8.15382 L 33,259.03406 l -2.125,8.95312 -2.15625,10.0625 -1.34375,6.34375 -0.640625,3.26563 -1.375,7.42187 -1.046875,6.25 -1,6.35938 -0.90625,6.64062 -0.734375,6.51563 -0.5,5.75 -0.296875,5.95312 -0.04687,4.45313 z"
       id="path3019"
       inkscape:connector-curvature="0" />
    <path
       style="fill:none;stroke:#000000;stroke-width:1px;stroke-linecap:butt;stroke-linejoin:miter;stroke-opacity:1"
       d="m 123.60937,193.15906 0.0312,10.875 19.46875,0.0156 0.10938,25.625 0.0781,20.82813 0.15625,14.92187 0.15625,10.20313 0.26563,11.28125 0.3125,11.1875 0.3125,8.625 0.34375,7.09375 0.3125,6.07812 0.35937,5.21875 0.39063,5.71875 0.71875,8.5625 1,9.28125 0.82812,6.25 1.04688,6.85938 1.29687,7 1.73438,7.59375 1.70312,6.28125 2.53125,7.59375 1.14063,2.8125 0.10937,0.0312 1.95313,-5.40625 2.4375,-8.0625 2.125,-8.70313 2.04687,-10.8125 1.625,-11.48437 1.14063,-10.78125 0.96875,-12.34375 0.82812,-14.29688 0.5,-11.9375 0.40625,-13.76562 0.3125,-16.84375 0.15625,-13.03125 0.10938,-15.75 0.0625,-23.375 0.0625,-12.45313 19.45312,-0.0312 0.0156,-10.90625 z"
       id="path3021"
       inkscape:connector-curvature="0" />
    <path
       style="fill:none;stroke:#000000;stroke-width:1px;stroke-linecap:butt;stroke-linejoin:miter;stroke-opacity:1"
       d="m 165.33594,79.151246 -14.75782,0.0078 -0.50781,-0.328125 -0.57031,-0.492187 -0.40625,-0.492188 -0.42188,-0.484375 -0.34375,-0.671875 -0.125,-0.421875 -0.17968,-0.875 0.008,-0.28125 0.0781,-0.546875 0.24219,-0.734375 0.41406,-0.585937 0.39844,-0.398438 0.67969,-0.476562 0.5625,-0.335938 0.82031,-0.320312 0.82813,-0.242188 1.03125,-0.21875 0.4375,-0.109375 0.60156,-0.07031 1.53125,-0.171875 0.63281,-0.07813 3.26563,-0.0078 0.73437,0.101563 0.89844,0.0625 1.61719,0.257812 1.03906,0.242188 1.00781,0.328125 0.90625,0.40625 0.55469,0.3125 0.67187,0.570312 0.48438,0.671875 0.3125,0.890625 0.0234,1.125 -0.0937,0.421875 -0.32032,0.835938 -0.48437,0.726562 -0.42969,0.429688 -0.49219,0.476562 -0.41406,0.3125 z"
       id="path3023"
       inkscape:connector-curvature="0" />
    <path
       style="fill:none;stroke:#000000;stroke-width:1px;stroke-linecap:butt;stroke-linejoin:miter;stroke-opacity:1"
       d="m 265.67188,197.11609 -0.97657,1.37891 -0.8125,1.14453 -0.41797,0.57422 -1.16015,1.625 -6.51986,9.26524 -9.8332,13.95431 -12.70583,17.99808 26.5165,-0.011 -18.00912,24.41728 -0.011,0.24307 7.76713,18.94825 13.31349,0.0111 0,0.0773 -9.89949,8.59576 0,0.22097 5.39169,14.60618 2.29809,6.48549 1.72358,4.97185 1.69042,4.96079 1.5468,4.67354 1.92245,5.76734 27.57716,0.011 -0.0221,-3.53554 -0.17677,-3.99957 -0.22097,-3.73441 -0.30936,-3.87804 -0.44195,-3.97747 -0.56347,-4.71773 -0.54138,-4.25369 -0.7513,-4.89451 -0.65187,-4.07691 -0.7292,-4.24264 -0.90598,-4.9166 -0.88388,-4.66249 -1.00542,-4.8945 -1.29268,-6.12089 -1.31478,-5.95517 -1.55784,-6.67332 -1.14905,-4.73982 -2.18761,-8.91618 -1.63519,-6.29767 -1.8893,-7.10421 -3.49134,-12.61744 -2.55221,-8.82778 -2.91682,-9.8553 z"
       id="path3025"
       inkscape:connector-curvature="0" />
    <path
       style="fill:none;stroke:#000000;stroke-width:1px;stroke-linecap:butt;stroke-linejoin:miter;stroke-opacity:1"
       d="m 188.60937,11.627809 -25.67578,-0.03125 0.0156,56.628906 1.17187,0.234375 0.89844,0.238281 0.73828,0.246094 0.64844,0.238281 1.14844,0.585938 0.73437,0.488281 0.64453,0.484375 0.33204,0.335937 0.32421,0.3125 0.32422,0.488282 0.41407,0.734375 0.24609,0.570312 0.32812,1.328125 0.082,1.207031 -0.082,0.738282 -0.23828,0.980468 -0.17187,0.402344 -0.25,0.570313 -0.41016,0.65625 -0.40234,0.570312 -0.49219,0.574219 -0.57422,0.570312 -0.57422,0.484375 -0.41406,0.320313 0,1.34375 0.0547,1.449219 0.0312,2.277343 0.17187,3.105469 0.41554,5.731409 0.39774,4.552 0.30936,3.33666 0.59662,5.48008 0.57453,5.23701 0.83969,7.44671 0.7071,6.71752 0.48614,4.72878 0.81759,8.48528 0.46404,5.81153 0.24322,2.32849 0.76171,0.96094 0.73829,0.89843 0.64453,0.8125 0.58203,0.66407 1.13281,1.47265 0.58203,0.71875 0.48047,0.57813 0.74219,0.98437 0.8125,1.0625 0.5625,0.72657 1.0664,1.38671 1.3086,1.73047 0.89844,1.21875 0.73046,0.98438 0.89063,1.21875 0.88672,1.21094 1.07812,1.47656 0.66016,0.91015 0.73437,1.07422 1.14063,1.6211 1.29687,1.85547 1.06641,1.55859 2.03516,3.02344 1.15234,1.71093 1.22266,1.88282 1.63672,2.51953 2.69531,4.26172 1.28906,2.10937 1.32031,2.1211 1.21875,2.03906 1.71485,2.86719 1.55078,2.60937 1.13672,1.95703 1.73047,3.03125 1.38671,2.42969 1.71094,3.11328 1.44531,2.60156 1.16407,2.14453 1.38672,2.59766 1.45643,2.75673 0.66291,1.3203 0.81759,1.48603 0.91151,1.78986 0.55243,1.06066 0.0994,0.24859 0.0939,0.006 0.7955,-0.76235 1.22086,-1.06066 18.208,-16.08116 9.15372,-8.07648 11.50427,-10.17924 0,-0.125 -2.03907,-6.4375 -2.60937,-7.96875 -2.69531,-8.07812 -2.60938,-7.79688 -2.45312,-7 -2.625,-7.4375 -3.57813,-9.95312 -2.92969,-7.94531 -2.61718,-6.83594 c 0,0 -3.5,-9.14063 -3.53125,-9.14063 -0.0312,0 -3.00782,-7.59375 -3.00782,-7.59375 l -3.51562,-8.742183 -7.75781,-18.351563 -4.625,-10.445312 -4.51563,-9.804688 -5.22656,-10.867187 -5.0625,-10.023438 -4.00062,-7.493062 -3.60183,-6.474446 -3.83384,-6.640175 z"
       id="path3027"
       inkscape:connector-curvature="0" />
    <path
       style="fill:none;stroke:#000000;stroke-width:1px;stroke-linecap:butt;stroke-linejoin:miter;stroke-opacity:1"
       d="m 152.95312,68.205934 -0.0469,-56.625 -25.60938,0.01563 -5.54687,9.359375 -4.5625,8.234375 -3.5,6.640625 -5.09375,10.0625 -4.64063,9.65625 -3.59375,7.703125 -2.85937,6.375 -5.5625,12.703125 -5.875,14.09375 -6.125,15.328121 -5.625,14.67187 -6.671875,18.29688 -7.203125,20.64062 -5.875,17.8125 -2.21875,6.85938 -0.01563,0.20312 40.9375,36.17188 0.07813,-0.0469 5.25,-10.09375 6.67187,-12.04687 5.71875,-9.76563 5.14063,-8.28125 8.67187,-13.15625 7.09375,-9.9375 10.53125,-13.4375 0.0625,-0.64062 0.59375,-7.03125 0.5625,-6.125 0.5625,-5.65625 0.57813,-5.28125 1.48437,-13.26563 0.54688,-5.40625 0.42187,-4.03125 0.32813,-3.453116 0.32812,-3.703125 0.39063,-5.796875 0.28125,-6.03125 0,-1.625 -0.6875,-0.5 -0.65625,-0.5625 -0.65625,-0.742188 -0.41406,-0.59375 -0.47657,-0.8125 -0.42187,-0.96875 -0.14844,-0.5625 -0.0859,-0.507813 -0.0859,-0.890625 0.0156,-0.875 0.0859,-0.609375 0.22656,-0.695312 0.42188,-0.9375 0.48437,-0.710938 0.40625,-0.476562 0.57031,-0.578125 0.90625,-0.632813 1.22657,-0.664062 1.0625,-0.40625 0.78906,-0.242188 0.99219,-0.265625 z"
       id="path3031"
       inkscape:connector-curvature="0" />
  </g>
</svg>
